STARTFONT 2.1
COMMENT
COMMENT Converted from OpenType font "firacode.otf" by "otf2bdf 3.0".
COMMENT
FONT -FreeType-FiraCode Nerd Font Mono-Retina-R-Normal--22-160-100-100-P-133-ISO10646-1
SIZE 16 100 100
FONTBOUNDINGBOX 41 38 -14 -11
STARTPROPERTIES 19
FOUNDRY "FreeType"
FAMILY_NAME "FiraCode Nerd Font Mono"
WEIGHT_NAME "Retina"
SLANT "R"
SETWIDTH_NAME "Normal"
ADD_STYLE_NAME ""
PIXEL_SIZE 22
POINT_SIZE 160
RESOLUTION_X 100
RESOLUTION_Y 100
SPACING "P"
AVERAGE_WIDTH 133
CHARSET_REGISTRY "ISO10646"
CHARSET_ENCODING "1"
FONT_ASCENT 20
FONT_DESCENT 6
COPYRIGHT "Copyright 2012-2015 The Fira Code Project Authors (https://github.com/tonsky/FiraCode)"
_OTF_FONTFILE "firacode.otf"
_OTF_PSNAME "FiraCodeNerdFontCompleteM-Retina"
ENDPROPERTIES
CHARS 5183
STARTCHAR 000D
ENCODING 13
SWIDTH 630 0
DWIDTH 14 0
BBX 0 0 0 0
BITMAP
ENDCHAR
STARTCHAR 0020
ENCODING 32
SWIDTH 630 0
DWIDTH 14 0
BBX 0 0 0 0
BITMAP
ENDCHAR
STARTCHAR 0021
ENCODING 33
SWIDTH 630 0
DWIDTH 14 0
BBX 3 16 5 0
BITMAP
60
60
60
60
60
60
60
60
60
60
60
00
00
60
E0
E0
ENDCHAR
STARTCHAR 0022
ENCODING 34
SWIDTH 630 0
DWIDTH 14 0
BBX 6 6 4 11
BITMAP
CC
CC
CC
CC
CC
CC
ENDCHAR
STARTCHAR 0023
ENCODING 35
SWIDTH 630 0
DWIDTH 14 0
BBX 12 16 1 0
BITMAP
18C0
18C0
18C0
18C0
7FF0
7FF0
1080
3180
3180
3180
3180
FFE0
3180
3180
2100
6300
ENDCHAR
STARTCHAR 0024
ENCODING 36
SWIDTH 630 0
DWIDTH 14 0
BBX 10 23 2 -4
BITMAP
0C00
0C00
0C00
1F00
7FC0
ECC0
CC00
CC00
EC00
7C00
3F00
0F80
0DC0
0CC0
0CC0
0CC0
CCC0
FF80
7F00
0C00
0C00
0C00
0C00
ENDCHAR
STARTCHAR 0025
ENCODING 37
SWIDTH 630 0
DWIDTH 14 0
BBX 13 16 0 -1
BITMAP
3810
6C30
4660
C660
C6C0
6680
7D80
0300
0200
06F0
0D98
0998
1998
3198
3198
60F0
ENDCHAR
STARTCHAR 0026
ENCODING 38
SWIDTH 630 0
DWIDTH 14 0
BBX 12 16 1 0
BITMAP
1F00
3F80
7000
6000
6000
7000
3FF0
1FF0
70C0
60C0
C0C0
C0C0
C0C0
60C0
7BC0
3F80
ENDCHAR
STARTCHAR 0027
ENCODING 39
SWIDTH 630 0
DWIDTH 14 0
BBX 2 6 6 11
BITMAP
C0
C0
C0
C0
C0
C0
ENDCHAR
STARTCHAR 0028
ENCODING 40
SWIDTH 630 0
DWIDTH 14 0
BBX 6 22 3 -3
BITMAP
04
0C
18
30
70
60
E0
C0
C0
C0
C0
C0
C0
C0
C0
E0
60
70
30
18
0C
04
ENDCHAR
STARTCHAR 0029
ENCODING 41
SWIDTH 630 0
DWIDTH 14 0
BBX 7 22 4 -3
BITMAP
C0
E0
70
38
18
0C
0C
0E
0E
06
06
06
06
0E
0E
0C
0C
18
38
70
E0
C0
ENDCHAR
STARTCHAR 002A
ENCODING 42
SWIDTH 630 0
DWIDTH 14 0
BBX 12 11 1 2
BITMAP
0600
0600
0600
E660
FFF0
1F80
0F00
1F00
3980
31C0
1080
ENDCHAR
STARTCHAR 002B
ENCODING 43
SWIDTH 630 0
DWIDTH 14 0
BBX 11 11 1 2
BITMAP
0600
0600
0600
0600
0600
FFE0
FFE0
0600
0600
0600
0600
ENDCHAR
STARTCHAR 002C
ENCODING 44
SWIDTH 630 0
DWIDTH 14 0
BBX 4 8 5 -4
BITMAP
60
F0
F0
60
E0
E0
C0
C0
ENDCHAR
STARTCHAR 002D
ENCODING 45
SWIDTH 630 0
DWIDTH 14 0
BBX 9 2 2 6
BITMAP
FF80
FF80
ENDCHAR
STARTCHAR 002E
ENCODING 46
SWIDTH 630 0
DWIDTH 14 0
BBX 4 4 5 0
BITMAP
60
F0
F0
E0
ENDCHAR
STARTCHAR 002F
ENCODING 47
SWIDTH 630 0
DWIDTH 14 0
BBX 11 20 1 -2
BITMAP
0060
0060
00E0
00C0
01C0
0180
0380
0300
0700
0600
0600
0C00
0C00
1800
1800
3000
3000
6000
6000
C000
ENDCHAR
STARTCHAR 0030
ENCODING 48
SWIDTH 630 0
DWIDTH 14 0
BBX 10 16 2 0
BITMAP
1E00
7F00
6180
E380
C2C0
C6C0
C4C0
CCC0
C8C0
D8C0
D0C0
D0C0
E180
6180
7780
3F00
ENDCHAR
STARTCHAR 0031
ENCODING 49
SWIDTH 630 0
DWIDTH 14 0
BBX 10 16 2 0
BITMAP
0E00
1E00
7E00
E600
0600
0600
0600
0600
0600
0600
0600
0600
0600
0600
7FC0
7FC0
ENDCHAR
STARTCHAR 0032
ENCODING 50
SWIDTH 630 0
DWIDTH 14 0
BBX 10 16 1 0
BITMAP
1F00
7F80
E1C0
00C0
00C0
00C0
01C0
0180
0380
0700
0E00
1C00
3800
7000
7FC0
7FC0
ENDCHAR
STARTCHAR 0033
ENCODING 51
SWIDTH 630 0
DWIDTH 14 0
BBX 11 16 1 0
BITMAP
1F00
7F80
61C0
00C0
00C0
00C0
0180
0E00
0F80
00C0
00C0
00E0
00C0
40C0
FF80
3F00
ENDCHAR
STARTCHAR 0034
ENCODING 52
SWIDTH 630 0
DWIDTH 14 0
BBX 10 16 2 0
BITMAP
0800
1C00
1800
1800
3000
3000
7300
6300
E300
C300
C300
FFC0
0300
0300
0300
0300
ENDCHAR
STARTCHAR 0035
ENCODING 53
SWIDTH 630 0
DWIDTH 14 0
BBX 10 16 2 0
BITMAP
7F80
7F80
6000
6000
6000
6000
7E00
7F80
0180
01C0
01C0
01C0
01C0
8180
FF80
7E00
ENDCHAR
STARTCHAR 0036
ENCODING 54
SWIDTH 630 0
DWIDTH 14 0
BBX 10 16 2 0
BITMAP
1F00
3F80
7000
6000
C000
C000
DF00
FB80
E1C0
C0C0
C0C0
C0C0
C0C0
6180
7380
3F00
ENDCHAR
STARTCHAR 0037
ENCODING 55
SWIDTH 630 0
DWIDTH 14 0
BBX 10 16 2 0
BITMAP
FFC0
FFC0
0180
0180
0300
0300
0700
0600
0600
0C00
0C00
1800
1800
3800
3000
7000
ENDCHAR
STARTCHAR 0038
ENCODING 56
SWIDTH 630 0
DWIDTH 14 0
BBX 11 16 1 0
BITMAP
0F00
3FC0
70C0
60E0
60E0
70C0
3980
1F00
3FC0
60E0
6060
E060
E060
60E0
79C0
3F80
ENDCHAR
STARTCHAR 0039
ENCODING 57
SWIDTH 630 0
DWIDTH 14 0
BBX 11 16 1 -1
BITMAP
1F00
3F80
70C0
60C0
E0E0
E060
6060
60E0
7BE0
3EE0
00C0
00C0
0180
0780
1E00
3800
ENDCHAR
STARTCHAR 003A
ENCODING 58
SWIDTH 630 0
DWIDTH 14 0
BBX 4 12 5 0
BITMAP
60
F0
F0
E0
00
00
00
00
40
F0
F0
E0
ENDCHAR
STARTCHAR 003B
ENCODING 59
SWIDTH 630 0
DWIDTH 14 0
BBX 4 16 5 -4
BITMAP
60
F0
F0
E0
00
00
00
00
60
F0
F0
60
E0
E0
C0
C0
ENDCHAR
STARTCHAR 003C
ENCODING 60
SWIDTH 630 0
DWIDTH 14 0
BBX 9 12 2 2
BITMAP
0180
0780
0E00
3C00
F000
C000
E000
7000
1C00
0F00
0380
0180
ENDCHAR
STARTCHAR 003D
ENCODING 61
SWIDTH 630 0
DWIDTH 14 0
BBX 9 6 2 4
BITMAP
FF80
FF80
0000
0000
FF80
FF80
ENDCHAR
STARTCHAR 003E
ENCODING 62
SWIDTH 630 0
DWIDTH 14 0
BBX 10 12 2 2
BITMAP
E000
7000
3C00
0F00
0380
01C0
01C0
0780
0E00
3C00
F000
C000
ENDCHAR
STARTCHAR 003F
ENCODING 63
SWIDTH 630 0
DWIDTH 14 0
BBX 9 16 2 0
BITMAP
3E00
7F80
C180
0180
0180
0380
0700
0E00
1C00
1800
1800
0000
0000
1800
1C00
1C00
ENDCHAR
STARTCHAR 0040
ENCODING 64
SWIDTH 630 0
DWIDTH 14 0
BBX 13 18 0 -2
BITMAP
0F80
3FE0
E070
4030
0018
0018
1F18
3B18
6118
6118
6118
6118
6118
6118
6398
7F98
3CF0
00F0
ENDCHAR
STARTCHAR 0041
ENCODING 65
SWIDTH 630 0
DWIDTH 14 0
BBX 12 16 1 0
BITMAP
0E00
0F00
0F00
1B00
1B80
1980
3180
31C0
30C0
70C0
7FE0
7FE0
E060
C070
C070
C030
ENDCHAR
STARTCHAR 0042
ENCODING 66
SWIDTH 630 0
DWIDTH 14 0
BBX 10 16 2 0
BITMAP
FC00
FF80
C380
C1C0
C1C0
C1C0
C380
FE00
FF80
C1C0
C0C0
C0C0
C0C0
C1C0
FF80
FF00
ENDCHAR
STARTCHAR 0043
ENCODING 67
SWIDTH 630 0
DWIDTH 14 0
BBX 12 16 1 0
BITMAP
07C0
1FF0
3820
7000
6000
6000
E000
E000
E000
E000
6000
6000
7000
3820
1FF0
0FE0
ENDCHAR
STARTCHAR 0044
ENCODING 68
SWIDTH 630 0
DWIDTH 14 0
BBX 11 16 2 0
BITMAP
FC00
FF00
C380
C1C0
C0C0
C0C0
C0E0
C0E0
C0E0
C0E0
C0C0
C0C0
C1C0
C380
FF00
FE00
ENDCHAR
STARTCHAR 0045
ENCODING 69
SWIDTH 630 0
DWIDTH 14 0
BBX 9 16 3 0
BITMAP
FF80
FF80
C000
C000
C000
C000
C000
FF00
FF00
C000
C000
C000
C000
C000
FF80
FF80
ENDCHAR
STARTCHAR 0046
ENCODING 70
SWIDTH 630 0
DWIDTH 14 0
BBX 9 16 3 0
BITMAP
FF80
FF80
C000
C000
C000
C000
C000
FF00
FF00
C000
C000
C000
C000
C000
C000
C000
ENDCHAR
STARTCHAR 0047
ENCODING 71
SWIDTH 630 0
DWIDTH 14 0
BBX 11 16 1 0
BITMAP
0F80
1FE0
3060
6000
6000
E000
C000
C3E0
C3E0
C060
E060
E060
6060
7060
3FE0
1FC0
ENDCHAR
STARTCHAR 0048
ENCODING 72
SWIDTH 630 0
DWIDTH 14 0
BBX 10 16 2 0
BITMAP
C0C0
C0C0
C0C0
C0C0
C0C0
C0C0
C0C0
FFC0
FFC0
C0C0
C0C0
C0C0
C0C0
C0C0
C0C0
C0C0
ENDCHAR
STARTCHAR 0049
ENCODING 73
SWIDTH 630 0
DWIDTH 14 0
BBX 9 16 2 0
BITMAP
FF80
FF80
0C00
0C00
0C00
0C00
0C00
0C00
0C00
0C00
0C00
0C00
0C00
0C00
FF80
FF80
ENDCHAR
STARTCHAR 004A
ENCODING 74
SWIDTH 630 0
DWIDTH 14 0
BBX 9 16 2 0
BITMAP
3F80
3F80
0180
0180
0180
0180
0180
0180
0180
0180
0180
0180
0180
8380
FF00
7E00
ENDCHAR
STARTCHAR 004B
ENCODING 75
SWIDTH 630 0
DWIDTH 14 0
BBX 11 16 2 0
BITMAP
C0E0
C0C0
C180
C300
C700
CE00
DC00
D800
DC00
CE00
C600
C700
C380
C1C0
C0C0
C0E0
ENDCHAR
STARTCHAR 004C
ENCODING 76
SWIDTH 630 0
DWIDTH 14 0
BBX 9 16 3 0
BITMAP
C000
C000
C000
C000
C000
C000
C000
C000
C000
C000
C000
C000
C000
C000
FF80
FF80
ENDCHAR
STARTCHAR 004D
ENCODING 77
SWIDTH 630 0
DWIDTH 14 0
BBX 12 16 1 0
BITMAP
60E0
F0E0
F0E0
F1E0
D1E0
D9E0
D960
D970
CB70
CF30
CF30
CE30
C630
C030
C030
C030
ENDCHAR
STARTCHAR 004E
ENCODING 78
SWIDTH 630 0
DWIDTH 14 0
BBX 10 16 2 0
BITMAP
E0C0
E0C0
F0C0
F0C0
F0C0
D8C0
D8C0
CCC0
CCC0
CCC0
C6C0
C6C0
C7C0
C3C0
C3C0
C1C0
ENDCHAR
STARTCHAR 004F
ENCODING 79
SWIDTH 630 0
DWIDTH 14 0
BBX 12 16 1 0
BITMAP
0F00
3FC0
70C0
6060
E060
E060
C070
C070
C070
C070
C070
E060
6060
70E0
3FC0
1F80
ENDCHAR
STARTCHAR 0050
ENCODING 80
SWIDTH 630 0
DWIDTH 14 0
BBX 11 16 2 0
BITMAP
FE00
FF80
E1C0
E0E0
E0E0
E0E0
E0E0
E0C0
E7C0
FF00
E000
E000
E000
E000
E000
E000
ENDCHAR
STARTCHAR 0051
ENCODING 81
SWIDTH 630 0
DWIDTH 14 0
BBX 12 20 1 -4
BITMAP
0F00
3FC0
70C0
6060
E060
E060
C070
C070
C070
C070
C070
E060
6060
70C0
3FC0
1F80
01E0
0070
0030
0030
ENDCHAR
STARTCHAR 0052
ENCODING 82
SWIDTH 630 0
DWIDTH 14 0
BBX 11 16 2 0
BITMAP
FE00
FF80
C1C0
C0C0
C0C0
C0C0
C0C0
C380
FF00
CE00
C700
C300
C380
C1C0
C0C0
C0E0
ENDCHAR
STARTCHAR 0053
ENCODING 83
SWIDTH 630 0
DWIDTH 14 0
BBX 11 16 1 0
BITMAP
1F80
3FE0
7040
6000
6000
7000
7C00
1F80
07C0
00E0
0060
0060
0060
40E0
FFC0
3F80
ENDCHAR
STARTCHAR 0054
ENCODING 84
SWIDTH 630 0
DWIDTH 14 0
BBX 12 16 1 0
BITMAP
FFF0
FFF0
0600
0600
0600
0600
0600
0600
0600
0600
0600
0600
0600
0600
0600
0600
ENDCHAR
STARTCHAR 0055
ENCODING 85
SWIDTH 630 0
DWIDTH 14 0
BBX 10 16 2 0
BITMAP
C0C0
C0C0
C0C0
C0C0
C0C0
C0C0
C0C0
C0C0
C0C0
C0C0
C0C0
C0C0
C0C0
E1C0
7F80
3F00
ENDCHAR
STARTCHAR 0056
ENCODING 86
SWIDTH 630 0
DWIDTH 14 0
BBX 12 16 1 0
BITMAP
C030
C030
E060
6060
6060
60C0
70C0
30C0
31C0
3980
1980
1980
1F00
0F00
0F00
0E00
ENDCHAR
STARTCHAR 0057
ENCODING 87
SWIDTH 630 0
DWIDTH 14 0
BBX 14 16 0 0
BITMAP
C00C
C018
E318
6718
6718
6798
6598
6598
65B0
6CB0
6CB0
3CF0
3CF0
38F0
38F0
38E0
ENDCHAR
STARTCHAR 0058
ENCODING 88
SWIDTH 630 0
DWIDTH 14 0
BBX 12 16 1 0
BITMAP
E060
60E0
70C0
31C0
1980
1B00
0F00
0E00
0F00
1F00
1980
3180
30C0
60E0
E060
C070
ENDCHAR
STARTCHAR 0059
ENCODING 89
SWIDTH 630 0
DWIDTH 14 0
BBX 12 16 1 0
BITMAP
C030
E070
6060
70E0
30C0
3980
1980
1F00
0F00
0E00
0600
0600
0600
0600
0600
0600
ENDCHAR
STARTCHAR 005A
ENCODING 90
SWIDTH 630 0
DWIDTH 14 0
BBX 11 16 1 0
BITMAP
7FE0
7FE0
00E0
00C0
01C0
0380
0300
0600
0E00
0C00
1800
3800
3000
6000
FFE0
FFE0
ENDCHAR
STARTCHAR 005B
ENCODING 91
SWIDTH 630 0
DWIDTH 14 0
BBX 6 22 4 -3
BITMAP
FC
FC
C0
C0
C0
C0
C0
C0
C0
C0
C0
C0
C0
C0
C0
C0
C0
C0
C0
C0
FC
FC
ENDCHAR
STARTCHAR 005C
ENCODING 92
SWIDTH 630 0
DWIDTH 14 0
BBX 12 20 1 -2
BITMAP
C000
6000
6000
3000
3000
1800
1800
0C00
0C00
0600
0600
0700
0300
0380
0180
01C0
00C0
00E0
0060
0070
ENDCHAR
STARTCHAR 005D
ENCODING 93
SWIDTH 630 0
DWIDTH 14 0
BBX 6 22 4 -3
BITMAP
FC
FC
0C
0C
0C
0C
0C
0C
0C
0C
0C
0C
0C
0C
0C
0C
0C
0C
0C
0C
FC
FC
ENDCHAR
STARTCHAR 005E
ENCODING 94
SWIDTH 630 0
DWIDTH 14 0
BBX 10 7 2 12
BITMAP
1C00
1E00
3600
3300
6380
E180
C0C0
ENDCHAR
STARTCHAR 005F
ENCODING 95
SWIDTH 630 0
DWIDTH 14 0
BBX 12 2 1 -4
BITMAP
FFF0
FFF0
ENDCHAR
STARTCHAR 0060
ENCODING 96
SWIDTH 630 0
DWIDTH 14 0
BBX 5 4 4 14
BITMAP
40
F0
38
08
ENDCHAR
STARTCHAR 0061
ENCODING 97
SWIDTH 630 0
DWIDTH 14 0
BBX 11 12 1 0
BITMAP
7F80
3380
00C0
00C0
00C0
3FC0
70C0
60C0
E0C0
61C0
73C0
3E60
ENDCHAR
STARTCHAR 0062
ENCODING 98
SWIDTH 630 0
DWIDTH 14 0
BBX 10 17 2 0
BITMAP
C000
C000
C000
C000
C000
DF00
FB80
E1C0
C0C0
C0C0
C0C0
C0C0
C0C0
C0C0
E1C0
F380
DF00
ENDCHAR
STARTCHAR 0063
ENCODING 99
SWIDTH 630 0
DWIDTH 14 0
BBX 10 12 2 0
BITMAP
1F80
3FC0
6000
E000
C000
C000
C000
C000
E000
6000
7FC0
1F80
ENDCHAR
STARTCHAR 0064
ENCODING 100
SWIDTH 630 0
DWIDTH 14 0
BBX 11 17 1 0
BITMAP
00E0
00E0
00E0
00E0
00E0
1FE0
3BE0
70E0
60E0
60E0
E0E0
E0E0
60E0
60E0
70E0
3BE0
3E60
ENDCHAR
STARTCHAR 0065
ENCODING 101
SWIDTH 630 0
DWIDTH 14 0
BBX 10 12 2 0
BITMAP
3F00
7380
E180
C0C0
C0C0
FFC0
FFC0
C000
C000
E080
7B80
3F80
ENDCHAR
STARTCHAR 0066
ENCODING 102
SWIDTH 630 0
DWIDTH 14 0
BBX 11 17 2 0
BITMAP
07E0
0FC0
1800
1800
1800
1800
FF80
FF80
1800
1800
1800
1800
1800
1800
1800
1800
1800
ENDCHAR
STARTCHAR 0067
ENCODING 103
SWIDTH 630 0
DWIDTH 14 0
BBX 12 18 1 -5
BITMAP
00E0
1FF0
7180
60C0
60C0
60C0
60C0
3B80
3F00
2000
7000
3FC0
1FE0
0060
C060
6060
7FC0
1F80
ENDCHAR
STARTCHAR 0068
ENCODING 104
SWIDTH 630 0
DWIDTH 14 0
BBX 10 17 2 0
BITMAP
C000
C000
C000
C000
C000
DF80
FB80
E180
C1C0
C1C0
C1C0
C1C0
C1C0
C1C0
C1C0
C1C0
C1C0
ENDCHAR
STARTCHAR 0069
ENCODING 105
SWIDTH 630 0
DWIDTH 14 0
BBX 9 18 3 0
BITMAP
1800
3800
1800
0000
0000
0000
F800
F800
1800
1800
1800
1800
1800
1800
1800
1800
FF80
FF80
ENDCHAR
STARTCHAR 006A
ENCODING 106
SWIDTH 630 0
DWIDTH 14 0
BBX 8 23 2 -5
BITMAP
06
07
07
00
00
00
7F
7F
03
03
03
03
03
03
03
03
03
03
07
0E
1C
F8
C0
ENDCHAR
STARTCHAR 006B
ENCODING 107
SWIDTH 630 0
DWIDTH 14 0
BBX 11 17 2 0
BITMAP
C000
C000
C000
C000
C000
C1C0
C380
C700
CE00
CC00
D800
CC00
CE00
C700
C380
C1C0
C0E0
ENDCHAR
STARTCHAR 006C
ENCODING 108
SWIDTH 630 0
DWIDTH 14 0
BBX 11 17 1 0
BITMAP
FC00
FC00
0C00
0C00
0C00
0C00
0C00
0C00
0C00
0C00
0C00
0C00
0C00
0C00
0C00
0FC0
07E0
ENDCHAR
STARTCHAR 006D
ENCODING 109
SWIDTH 630 0
DWIDTH 14 0
BBX 12 12 1 0
BITMAP
DDE0
EF60
C630
C630
C630
C630
C630
C630
C630
C630
C630
C630
ENDCHAR
STARTCHAR 006E
ENCODING 110
SWIDTH 630 0
DWIDTH 14 0
BBX 10 12 2 0
BITMAP
DF80
FB80
E180
C1C0
C1C0
C1C0
C1C0
C1C0
C1C0
C1C0
C1C0
C1C0
ENDCHAR
STARTCHAR 006F
ENCODING 111
SWIDTH 630 0
DWIDTH 14 0
BBX 10 12 2 0
BITMAP
3F00
7780
E180
C1C0
C0C0
C0C0
C0C0
C0C0
C1C0
E180
7780
3F00
ENDCHAR
STARTCHAR 0070
ENCODING 112
SWIDTH 630 0
DWIDTH 14 0
BBX 10 17 2 -5
BITMAP
DF00
FB80
E1C0
C0C0
C0C0
C0C0
C0C0
C0C0
C1C0
E180
FF80
DF00
C000
C000
C000
C000
C000
ENDCHAR
STARTCHAR 0071
ENCODING 113
SWIDTH 630 0
DWIDTH 14 0
BBX 10 17 2 -5
BITMAP
3EC0
77C0
E1C0
C1C0
C1C0
C1C0
C1C0
C1C0
C1C0
E1C0
77C0
7DC0
01C0
01C0
01C0
01C0
01C0
ENDCHAR
STARTCHAR 0072
ENCODING 114
SWIDTH 630 0
DWIDTH 14 0
BBX 10 12 2 0
BITMAP
F3C0
F7C0
3CC0
38C0
3800
3000
3000
3000
3000
3000
FE00
FE00
ENDCHAR
STARTCHAR 0073
ENCODING 115
SWIDTH 630 0
DWIDTH 14 0
BBX 10 12 2 0
BITMAP
3F00
7380
E000
E000
7000
3E00
0F80
0180
01C0
0180
F780
7F00
ENDCHAR
STARTCHAR 0074
ENCODING 116
SWIDTH 630 0
DWIDTH 14 0
BBX 10 15 2 0
BITMAP
3800
3800
3800
FF80
FF80
3800
3800
3800
3800
3800
3800
3800
1800
1F80
0FC0
ENDCHAR
STARTCHAR 0075
ENCODING 117
SWIDTH 630 0
DWIDTH 14 0
BBX 10 12 2 0
BITMAP
C1C0
C1C0
C1C0
C1C0
C1C0
C1C0
C1C0
C1C0
C1C0
C1C0
F7C0
7CC0
ENDCHAR
STARTCHAR 0076
ENCODING 118
SWIDTH 630 0
DWIDTH 14 0
BBX 11 12 1 0
BITMAP
E060
6060
60E0
30C0
30C0
3180
1980
1980
1B00
0F00
0F00
0E00
ENDCHAR
STARTCHAR 0077
ENCODING 119
SWIDTH 630 0
DWIDTH 14 0
BBX 13 12 0 0
BITMAP
E018
6018
6318
6718
6798
6790
65B0
34B0
3CB0
3CF0
3CF0
38E0
ENDCHAR
STARTCHAR 0078
ENCODING 120
SWIDTH 630 0
DWIDTH 14 0
BBX 11 12 1 0
BITMAP
70E0
30C0
3980
1B80
0F00
0E00
0F00
1B00
1980
31C0
70E0
E060
ENDCHAR
STARTCHAR 0079
ENCODING 121
SWIDTH 630 0
DWIDTH 14 0
BBX 11 17 1 -5
BITMAP
E060
6060
60E0
70C0
30C0
3180
1980
1980
1B00
0F00
0F00
0E00
0600
0E00
1C00
7800
2000
ENDCHAR
STARTCHAR 007A
ENCODING 122
SWIDTH 630 0
DWIDTH 14 0
BBX 9 12 2 0
BITMAP
7F80
7F80
0380
0700
0600
0C00
1C00
3800
3000
6000
FF80
FF80
ENDCHAR
STARTCHAR 007B
ENCODING 123
SWIDTH 630 0
DWIDTH 14 0
BBX 7 22 3 -3
BITMAP
0E
1E
18
18
18
18
18
18
18
18
F0
F0
38
18
18
18
18
18
18
18
1E
0E
ENDCHAR
STARTCHAR 007C
ENCODING 124
SWIDTH 630 0
DWIDTH 14 0
BBX 2 28 6 -7
BITMAP
C0
C0
C0
C0
C0
C0
C0
C0
C0
C0
C0
C0
C0
C0
C0
C0
C0
C0
C0
C0
C0
C0
C0
C0
C0
C0
C0
C0
ENDCHAR
STARTCHAR 007D
ENCODING 125
SWIDTH 630 0
DWIDTH 14 0
BBX 8 22 3 -3
BITMAP
E0
F8
18
18
18
18
18
18
18
18
0F
0F
18
18
18
18
18
18
18
18
F8
F0
ENDCHAR
STARTCHAR 007E
ENCODING 126
SWIDTH 630 0
DWIDTH 14 0
BBX 11 4 1 5
BITMAP
3C20
7E60
C7E0
01C0
ENDCHAR
STARTCHAR 00A0
ENCODING 160
SWIDTH 630 0
DWIDTH 14 0
BBX 0 0 0 0
BITMAP
ENDCHAR
STARTCHAR 00A1
ENCODING 161
SWIDTH 630 0
DWIDTH 14 0
BBX 3 16 5 -5
BITMAP
E0
E0
60
00
00
60
60
60
60
60
60
60
60
60
60
60
ENDCHAR
STARTCHAR 00A2
ENCODING 162
SWIDTH 630 0
DWIDTH 14 0
BBX 9 20 2 -4
BITMAP
0600
0600
0600
0600
1F80
3F80
7000
6000
E000
E000
E000
E000
6000
7000
3F80
1F80
0600
0600
0600
0600
ENDCHAR
STARTCHAR 00A3
ENCODING 163
SWIDTH 630 0
DWIDTH 14 0
BBX 10 16 2 0
BITMAP
0F00
3FC0
3080
3000
7000
7000
7000
FF00
FF00
7000
7000
7000
6000
6000
FFC0
FFC0
ENDCHAR
STARTCHAR 00A4
ENCODING 164
SWIDTH 630 0
DWIDTH 14 0
BBX 12 12 1 2
BITMAP
0020
C670
7FE0
31C0
60C0
6060
6060
60E0
70C0
7FC0
FF60
C020
ENDCHAR
STARTCHAR 00A5
ENCODING 165
SWIDTH 630 0
DWIDTH 14 0
BBX 12 16 1 0
BITMAP
C070
E060
60E0
30C0
31C0
1980
1B00
0F00
3FC0
3FC0
0600
3FC0
3FC0
0600
0600
0600
ENDCHAR
STARTCHAR 00A6
ENCODING 166
SWIDTH 630 0
DWIDTH 14 0
BBX 2 20 6 -2
BITMAP
C0
C0
C0
C0
C0
C0
C0
C0
00
00
00
00
C0
C0
C0
C0
C0
C0
C0
C0
ENDCHAR
STARTCHAR 00A7
ENCODING 167
SWIDTH 630 0
DWIDTH 14 0
BBX 9 18 2 -2
BITMAP
1F00
7F80
6000
6000
7000
3C00
7F00
6380
C180
E180
7980
3F00
0700
0380
0180
4380
7F00
1C00
ENDCHAR
STARTCHAR 00A8
ENCODING 168
SWIDTH 630 0
DWIDTH 14 0
BBX 7 2 3 15
BITMAP
E6
E6
ENDCHAR
STARTCHAR 00A9
ENCODING 169
SWIDTH 630 0
DWIDTH 14 0
BBX 12 14 1 3
BITMAP
1F00
30C0
6060
CF20
9930
B010
B010
B010
B010
9830
DFA0
4060
70C0
1F80
ENDCHAR
STARTCHAR 00AA
ENCODING 170
SWIDTH 630 0
DWIDTH 14 0
BBX 9 17 2 0
BITMAP
7E00
7F00
0300
0300
3F00
6300
C300
C300
7780
3D80
0000
0000
0000
0000
0000
FF80
FF80
ENDCHAR
STARTCHAR 00AB
ENCODING 171
SWIDTH 630 0
DWIDTH 14 0
BBX 10 11 2 1
BITMAP
18C0
3180
7380
6700
E600
C600
E700
6300
3180
19C0
1080
ENDCHAR
STARTCHAR 00AC
ENCODING 172
SWIDTH 630 0
DWIDTH 14 0
BBX 9 5 2 3
BITMAP
FF80
FF80
0180
0180
0180
ENDCHAR
STARTCHAR 00AD
ENCODING 173
SWIDTH 630 0
DWIDTH 14 0
BBX 7 2 3 6
BITMAP
FE
FE
ENDCHAR
STARTCHAR 00AE
ENCODING 174
SWIDTH 630 0
DWIDTH 14 0
BBX 12 12 1 5
BITMAP
1F00
30C0
6060
CF20
8930
8F30
8A30
CB20
4920
6040
3F80
0E00
ENDCHAR
STARTCHAR 00AF
ENCODING 175
SWIDTH 630 0
DWIDTH 14 0
BBX 6 2 4 15
BITMAP
FC
FC
ENDCHAR
STARTCHAR 00B0
ENCODING 176
SWIDTH 630 0
DWIDTH 14 0
BBX 7 7 2 10
BITMAP
78
EC
86
86
86
CC
78
ENDCHAR
STARTCHAR 00B1
ENCODING 177
SWIDTH 630 0
DWIDTH 14 0
BBX 9 12 2 0
BITMAP
0C00
0C00
0C00
FF80
FF80
0C00
0C00
0C00
0000
0000
FF80
FF80
ENDCHAR
STARTCHAR 00B2
ENCODING 178
SWIDTH 630 0
DWIDTH 14 0
BBX 6 8 4 7
BITMAP
30
FC
8C
0C
18
70
FC
FC
ENDCHAR
STARTCHAR 00B3
ENCODING 179
SWIDTH 630 0
DWIDTH 14 0
BBX 7 8 3 7
BITMAP
18
7E
46
0E
1E
06
E6
3C
ENDCHAR
STARTCHAR 00B4
ENCODING 180
SWIDTH 630 0
DWIDTH 14 0
BBX 6 3 4 15
BITMAP
18
3C
E0
ENDCHAR
STARTCHAR 00B5
ENCODING 181
SWIDTH 630 0
DWIDTH 14 0
BBX 10 17 2 -5
BITMAP
C180
C180
C180
C180
C180
C180
C180
C180
C180
C380
FF80
FDC0
C000
C000
C000
C000
C000
ENDCHAR
STARTCHAR 00B6
ENCODING 182
SWIDTH 630 0
DWIDTH 14 0
BBX 12 21 1 -5
BITMAP
0FF0
3FF0
7E30
FE30
FE30
FE30
FE30
7E30
3E30
0630
0630
0630
0630
0630
0630
0630
0630
0630
0630
0630
0630
ENDCHAR
STARTCHAR 00B7
ENCODING 183
SWIDTH 630 0
DWIDTH 14 0
BBX 4 4 5 6
BITMAP
60
F0
F0
E0
ENDCHAR
STARTCHAR 00B8
ENCODING 184
SWIDTH 630 0
DWIDTH 14 0
BBX 5 6 4 -6
BITMAP
20
30
18
08
F8
20
ENDCHAR
STARTCHAR 00B9
ENCODING 185
SWIDTH 630 0
DWIDTH 14 0
BBX 4 7 5 7
BITMAP
70
F0
B0
30
30
30
30
ENDCHAR
STARTCHAR 00BA
ENCODING 186
SWIDTH 630 0
DWIDTH 14 0
BBX 10 17 2 0
BITMAP
3E00
7F00
6180
C180
C1C0
C1C0
C180
6180
7F00
1E00
0000
0000
0000
0000
0000
FF80
FF80
ENDCHAR
STARTCHAR 00BB
ENCODING 187
SWIDTH 630 0
DWIDTH 14 0
BBX 10 11 2 1
BITMAP
C400
C600
6300
3380
39C0
19C0
39C0
7380
6300
C600
8400
ENDCHAR
STARTCHAR 00BC
ENCODING 188
SWIDTH 630 0
DWIDTH 14 0
BBX 14 16 0 0
BITMAP
1800
7800
D800
1800
1800
1818
1870
19C0
0700
1C60
F040
40D8
0198
01FC
01FC
0018
ENDCHAR
STARTCHAR 00BD
ENCODING 189
SWIDTH 630 0
DWIDTH 14 0
BBX 14 16 0 0
BITMAP
1800
7800
D800
1800
1800
1818
1870
19C0
0700
3CF8
F08C
400C
0018
0070
00C0
01FC
ENDCHAR
STARTCHAR 00BE
ENCODING 190
SWIDTH 630 0
DWIDTH 14 0
BBX 14 16 0 0
BITMAP
3800
FC00
0600
1C00
0E00
0618
FE70
39C0
0700
1C60
7040
40D8
0198
01FC
01FC
0018
ENDCHAR
STARTCHAR 00BF
ENCODING 191
SWIDTH 630 0
DWIDTH 14 0
BBX 10 16 2 -5
BITMAP
0E00
0E00
0C00
0000
0000
0E00
0C00
0C00
1C00
3800
6000
E000
E000
E1C0
7F80
1E00
ENDCHAR
STARTCHAR 00C0
ENCODING 192
SWIDTH 630 0
DWIDTH 14 0
BBX 12 21 1 0
BITMAP
0800
1E00
0700
0100
0000
0E00
0F00
0F00
1B00
1B80
1980
3180
31C0
30C0
70C0
7FE0
7FE0
E060
C070
C070
C030
ENDCHAR
STARTCHAR 00C1
ENCODING 193
SWIDTH 630 0
DWIDTH 14 0
BBX 12 21 1 0
BITMAP
0100
0700
1E00
0000
0000
0E00
0F00
0F00
1B00
1B80
1980
3180
31C0
30C0
70C0
7FE0
7FE0
E060
C070
C070
C030
ENDCHAR
STARTCHAR 00C2
ENCODING 194
SWIDTH 630 0
DWIDTH 14 0
BBX 12 21 1 0
BITMAP
0600
1F00
3980
0080
0000
0E00
0F00
0F00
1B00
1B80
1980
3180
31C0
30C0
70C0
7FE0
7FE0
E060
C070
C070
C030
ENDCHAR
STARTCHAR 00C3
ENCODING 195
SWIDTH 630 0
DWIDTH 14 0
BBX 12 20 1 0
BITMAP
1EC0
3780
0000
0000
0E00
0F00
0F00
1B00
1B80
1980
3180
31C0
30C0
70C0
7FE0
7FE0
E060
C070
C070
C030
ENDCHAR
STARTCHAR 00C4
ENCODING 196
SWIDTH 630 0
DWIDTH 14 0
BBX 12 20 1 0
BITMAP
3980
39C0
1000
0000
0E00
0F00
0F00
1B00
1B80
1980
3180
31C0
30C0
70C0
7FE0
7FE0
E060
C070
C070
C030
ENDCHAR
STARTCHAR 00C5
ENCODING 197
SWIDTH 630 0
DWIDTH 14 0
BBX 12 22 1 0
BITMAP
0600
0F00
1900
1900
0F00
0000
0E00
0F00
0F00
1B00
1B80
1980
3180
31C0
30C0
70C0
7FE0
7FE0
E060
C070
C070
C030
ENDCHAR
STARTCHAR 00C6
ENCODING 198
SWIDTH 630 0
DWIDTH 14 0
BBX 14 16 0 0
BITMAP
0FF8
0FF8
0B00
1B00
1B00
1B00
3300
31F8
31F8
3180
7F80
7F80
60C0
E0C0
C0FC
C0FC
ENDCHAR
STARTCHAR 00C7
ENCODING 199
SWIDTH 630 0
DWIDTH 14 0
BBX 12 22 1 -6
BITMAP
07C0
1FF0
3820
7000
6000
6000
E000
E000
E000
E000
6000
6000
7000
3820
1FF0
0FE0
0200
0300
0180
00C0
0780
0200
ENDCHAR
STARTCHAR 00C8
ENCODING 200
SWIDTH 630 0
DWIDTH 14 0
BBX 9 21 3 0
BITMAP
2000
3800
1E00
0200
0000
FF80
FF80
C000
C000
C000
C000
C000
FF00
FF00
C000
C000
C000
C000
C000
FF80
FF80
ENDCHAR
STARTCHAR 00C9
ENCODING 201
SWIDTH 630 0
DWIDTH 14 0
BBX 9 20 3 1
BITMAP
0E00
3C00
2000
0000
FF80
FF80
C000
C000
C000
C000
C000
FF00
FF00
C000
C000
C000
C000
C000
FF80
FF80
ENDCHAR
STARTCHAR 00CA
ENCODING 202
SWIDTH 630 0
DWIDTH 14 0
BBX 9 21 3 0
BITMAP
1C00
3E00
6700
4000
0000
FF80
FF80
C000
C000
C000
C000
C000
FF00
FF00
C000
C000
C000
C000
C000
FF80
FF80
ENDCHAR
STARTCHAR 00CB
ENCODING 203
SWIDTH 630 0
DWIDTH 14 0
BBX 9 20 3 0
BITMAP
6300
6700
0000
0000
FF80
FF80
C000
C000
C000
C000
C000
FF00
FF00
C000
C000
C000
C000
C000
FF80
FF80
ENDCHAR
STARTCHAR 00CC
ENCODING 204
SWIDTH 630 0
DWIDTH 14 0
BBX 9 21 2 0
BITMAP
1000
3C00
0E00
0200
0000
FF80
FF80
0C00
0C00
0C00
0C00
0C00
0C00
0C00
0C00
0C00
0C00
0C00
0C00
FF80
FF80
ENDCHAR
STARTCHAR 00CD
ENCODING 205
SWIDTH 630 0
DWIDTH 14 0
BBX 9 21 2 0
BITMAP
0200
0E00
3C00
0000
0000
FF80
FF80
0C00
0C00
0C00
0C00
0C00
0C00
0C00
0C00
0C00
0C00
0C00
0C00
FF80
FF80
ENDCHAR
STARTCHAR 00CE
ENCODING 206
SWIDTH 630 0
DWIDTH 14 0
BBX 9 21 2 0
BITMAP
0C00
3E00
7300
0100
0000
FF80
FF80
0C00
0C00
0C00
0C00
0C00
0C00
0C00
0C00
0C00
0C00
0C00
0C00
FF80
FF80
ENDCHAR
STARTCHAR 00CF
ENCODING 207
SWIDTH 630 0
DWIDTH 14 0
BBX 9 20 2 0
BITMAP
7300
7380
2000
0000
FF80
FF80
0C00
0C00
0C00
0C00
0C00
0C00
0C00
0C00
0C00
0C00
0C00
0C00
FF80
FF80
ENDCHAR
STARTCHAR 00D0
ENCODING 208
SWIDTH 630 0
DWIDTH 14 0
BBX 13 16 0 0
BITMAP
3F00
3FC0
30E0
3070
3030
3038
3038
FF38
FF38
3038
3038
3030
3070
3060
3FE0
3F80
ENDCHAR
STARTCHAR 00D1
ENCODING 209
SWIDTH 630 0
DWIDTH 14 0
BBX 10 20 2 0
BITMAP
3D80
6F00
0000
0000
E0C0
E0C0
F0C0
F0C0
F0C0
D8C0
D8C0
CCC0
CCC0
CCC0
C6C0
C6C0
C7C0
C3C0
C3C0
C1C0
ENDCHAR
STARTCHAR 00D2
ENCODING 210
SWIDTH 630 0
DWIDTH 14 0
BBX 12 21 1 0
BITMAP
0800
1E00
0700
0100
0000
0F00
3FC0
70C0
6060
E060
E060
C070
C070
C070
C070
C070
E060
6060
70E0
3FC0
1F80
ENDCHAR
STARTCHAR 00D3
ENCODING 211
SWIDTH 630 0
DWIDTH 14 0
BBX 12 21 1 0
BITMAP
0100
0700
1E00
0000
0000
0F00
3FC0
70C0
6060
E060
E060
C070
C070
C070
C070
C070
E060
6060
70E0
3FC0
1F80
ENDCHAR
STARTCHAR 00D4
ENCODING 212
SWIDTH 630 0
DWIDTH 14 0
BBX 12 21 1 0
BITMAP
0600
1F00
3980
0080
0000
0F00
3FC0
70C0
6060
E060
E060
C070
C070
C070
C070
C070
E060
6060
70E0
3FC0
1F80
ENDCHAR
STARTCHAR 00D5
ENCODING 213
SWIDTH 630 0
DWIDTH 14 0
BBX 12 20 1 0
BITMAP
1EC0
3780
0000
0000
0F00
3FC0
70C0
6060
E060
E060
C070
C070
C070
C070
C070
E060
6060
70E0
3FC0
1F80
ENDCHAR
STARTCHAR 00D6
ENCODING 214
SWIDTH 630 0
DWIDTH 14 0
BBX 12 20 1 0
BITMAP
3980
39C0
1000
0000
0F00
3FC0
70C0
6060
E060
E060
C070
C070
C070
C070
C070
E060
6060
70E0
3FC0
1F80
ENDCHAR
STARTCHAR 00D7
ENCODING 215
SWIDTH 630 0
DWIDTH 14 0
BBX 8 8 3 3
BITMAP
C2
E7
7E
3C
3C
7E
E7
C2
ENDCHAR
STARTCHAR 00D8
ENCODING 216
SWIDTH 630 0
DWIDTH 14 0
BBX 12 20 1 -3
BITMAP
00C0
0180
0F80
3FC0
71C0
6360
E360
E260
C270
C670
C470
C470
CC70
EC60
6860
68E0
3FC0
1F80
3000
3000
ENDCHAR
STARTCHAR 00D9
ENCODING 217
SWIDTH 630 0
DWIDTH 14 0
BBX 10 21 2 0
BITMAP
1000
3C00
0E00
0200
0000
C0C0
C0C0
C0C0
C0C0
C0C0
C0C0
C0C0
C0C0
C0C0
C0C0
C0C0
C0C0
C0C0
E1C0
7F80
3F00
ENDCHAR
STARTCHAR 00DA
ENCODING 218
SWIDTH 630 0
DWIDTH 14 0
BBX 10 21 2 0
BITMAP
0200
0E00
3C00
0000
0000
C0C0
C0C0
C0C0
C0C0
C0C0
C0C0
C0C0
C0C0
C0C0
C0C0
C0C0
C0C0
C0C0
E1C0
7F80
3F00
ENDCHAR
STARTCHAR 00DB
ENCODING 219
SWIDTH 630 0
DWIDTH 14 0
BBX 10 21 2 0
BITMAP
0C00
3E00
7300
0100
0000
C0C0
C0C0
C0C0
C0C0
C0C0
C0C0
C0C0
C0C0
C0C0
C0C0
C0C0
C0C0
C0C0
E1C0
7F80
3F00
ENDCHAR
STARTCHAR 00DC
ENCODING 220
SWIDTH 630 0
DWIDTH 14 0
BBX 10 20 2 0
BITMAP
7300
7380
2000
0000
C0C0
C0C0
C0C0
C0C0
C0C0
C0C0
C0C0
C0C0
C0C0
C0C0
C0C0
C0C0
C0C0
E1C0
7F80
3F00
ENDCHAR
STARTCHAR 00DD
ENCODING 221
SWIDTH 630 0
DWIDTH 14 0
BBX 12 21 1 0
BITMAP
0100
0700
1E00
0800
0000
C030
E070
6060
70E0
30C0
3980
1980
1F00
0F00
0E00
0600
0600
0600
0600
0600
0600
ENDCHAR
STARTCHAR 00DE
ENCODING 222
SWIDTH 630 0
DWIDTH 14 0
BBX 11 16 2 0
BITMAP
E000
E000
E000
FF00
FFC0
E1C0
E0E0
E0E0
E0E0
E0E0
E0C0
FF80
FF00
E000
E000
E000
ENDCHAR
STARTCHAR 00DF
ENCODING 223
SWIDTH 630 0
DWIDTH 14 0
BBX 11 17 2 0
BITMAP
3E00
7F00
E380
C180
C300
C700
CE00
CC00
CE00
C780
C3C0
C0C0
C0E0
C060
C0E0
CDC0
CF80
ENDCHAR
STARTCHAR 00E0
ENCODING 224
SWIDTH 630 0
DWIDTH 14 0
BBX 11 18 1 0
BITMAP
0800
1E00
0700
0100
0000
0000
7F80
3380
00C0
00C0
00C0
3FC0
70C0
60C0
E0C0
61C0
73C0
3E60
ENDCHAR
STARTCHAR 00E1
ENCODING 225
SWIDTH 630 0
DWIDTH 14 0
BBX 11 18 1 0
BITMAP
0300
0F00
1C00
0000
0000
0000
7F80
3380
00C0
00C0
00C0
3FC0
70C0
60C0
E0C0
61C0
73C0
3E60
ENDCHAR
STARTCHAR 00E2
ENCODING 226
SWIDTH 630 0
DWIDTH 14 0
BBX 11 18 1 0
BITMAP
0E00
1F00
3980
0080
0000
0000
7F80
3380
00C0
00C0
00C0
3FC0
70C0
60C0
E0C0
61C0
73C0
3E60
ENDCHAR
STARTCHAR 00E3
ENCODING 227
SWIDTH 630 0
DWIDTH 14 0
BBX 11 18 1 0
BITMAP
0800
3F80
2700
0000
0000
0000
7F80
3380
00C0
00C0
00C0
3FC0
70C0
60C0
E0C0
61C0
73C0
3E60
ENDCHAR
STARTCHAR 00E4
ENCODING 228
SWIDTH 630 0
DWIDTH 14 0
BBX 11 17 1 0
BITMAP
3980
3180
0000
0000
0000
7F80
3380
00C0
00C0
00C0
3FC0
70C0
60C0
E0C0
61C0
73C0
3E60
ENDCHAR
STARTCHAR 00E5
ENCODING 229
SWIDTH 630 0
DWIDTH 14 0
BBX 11 19 1 0
BITMAP
0E00
1B00
1100
1B00
0E00
0000
0000
7F80
3380
00C0
00C0
00C0
3FC0
70C0
60C0
E0C0
61C0
73C0
3E60
ENDCHAR
STARTCHAR 00E6
ENCODING 230
SWIDTH 630 0
DWIDTH 14 0
BBX 14 12 0 0
BITMAP
7CF0
6FB8
0318
030C
030C
7FFC
E3FC
C300
C300
C700
EDD8
7CF8
ENDCHAR
STARTCHAR 00E7
ENCODING 231
SWIDTH 630 0
DWIDTH 14 0
BBX 10 18 2 -6
BITMAP
1F80
3FC0
6000
E000
C000
C000
C000
C000
E000
6000
7FC0
1F80
0400
0600
0300
0100
1F00
0400
ENDCHAR
STARTCHAR 00E8
ENCODING 232
SWIDTH 630 0
DWIDTH 14 0
BBX 10 18 2 0
BITMAP
1000
3C00
0F00
0200
0000
0000
3F00
7380
E180
C0C0
C0C0
FFC0
FFC0
C000
C000
E080
7B80
3F80
ENDCHAR
STARTCHAR 00E9
ENCODING 233
SWIDTH 630 0
DWIDTH 14 0
BBX 10 18 2 0
BITMAP
0200
0F00
3800
0000
0000
0000
3F00
7380
E180
C0C0
C0C0
FFC0
FFC0
C000
C000
E080
7B80
3F80
ENDCHAR
STARTCHAR 00EA
ENCODING 234
SWIDTH 630 0
DWIDTH 14 0
BBX 10 18 2 0
BITMAP
0C00
1F00
7380
2000
0000
0000
3F00
7380
E180
C0C0
C0C0
FFC0
FFC0
C000
C000
E080
7B80
3F80
ENDCHAR
STARTCHAR 00EB
ENCODING 235
SWIDTH 630 0
DWIDTH 14 0
BBX 10 17 2 0
BITMAP
7380
7380
0000
0000
0000
3F00
7380
E180
C0C0
C0C0
FFC0
FFC0
C000
C000
E080
7B80
3F80
ENDCHAR
STARTCHAR 00EC
ENCODING 236
SWIDTH 630 0
DWIDTH 14 0
BBX 9 18 3 0
BITMAP
2000
7800
1C00
0400
0000
0000
F800
F800
1800
1800
1800
1800
1800
1800
1800
1800
FF80
FF80
ENDCHAR
STARTCHAR 00ED
ENCODING 237
SWIDTH 630 0
DWIDTH 14 0
BBX 9 18 3 0
BITMAP
0C00
1E00
7000
0000
0000
0000
F800
F800
1800
1800
1800
1800
1800
1800
1800
1800
FF80
FF80
ENDCHAR
STARTCHAR 00EE
ENCODING 238
SWIDTH 630 0
DWIDTH 14 0
BBX 9 18 3 0
BITMAP
3800
7C00
E600
0200
0000
0000
F800
F800
1800
1800
1800
1800
1800
1800
1800
1800
FF80
FF80
ENDCHAR
STARTCHAR 00EF
ENCODING 239
SWIDTH 630 0
DWIDTH 14 0
BBX 9 17 3 0
BITMAP
E700
E600
0000
0000
0000
F800
F800
1800
1800
1800
1800
1800
1800
1800
1800
FF80
FF80
ENDCHAR
STARTCHAR 00F0
ENCODING 240
SWIDTH 630 0
DWIDTH 14 0
BBX 11 18 1 0
BITMAP
0100
3B80
3F00
0F00
1F80
19C0
00C0
1EE0
3FE0
70E0
6060
6060
E060
E060
6060
60C0
3BC0
1F80
ENDCHAR
STARTCHAR 00F1
ENCODING 241
SWIDTH 630 0
DWIDTH 14 0
BBX 10 18 2 0
BITMAP
1000
7F00
6700
0000
0000
0000
DF80
FB80
E180
C1C0
C1C0
C1C0
C1C0
C1C0
C1C0
C1C0
C1C0
C1C0
ENDCHAR
STARTCHAR 00F2
ENCODING 242
SWIDTH 630 0
DWIDTH 14 0
BBX 10 18 2 0
BITMAP
1000
3C00
0E00
0200
0000
0000
3F00
7780
E180
C1C0
C0C0
C0C0
C0C0
C0C0
C1C0
E180
7780
3F00
ENDCHAR
STARTCHAR 00F3
ENCODING 243
SWIDTH 630 0
DWIDTH 14 0
BBX 10 18 2 0
BITMAP
0600
0F00
3800
0000
0000
0000
3F00
7780
E180
C1C0
C0C0
C0C0
C0C0
C0C0
C1C0
E180
7780
3F00
ENDCHAR
STARTCHAR 00F4
ENCODING 244
SWIDTH 630 0
DWIDTH 14 0
BBX 10 18 2 0
BITMAP
1C00
3E00
7300
0100
0000
0000
3F00
7780
E180
C1C0
C0C0
C0C0
C0C0
C0C0
C1C0
E180
7780
3F00
ENDCHAR
STARTCHAR 00F5
ENCODING 245
SWIDTH 630 0
DWIDTH 14 0
BBX 10 18 2 0
BITMAP
1000
7F00
6700
0000
0000
0000
3F00
7780
E180
C1C0
C0C0
C0C0
C0C0
C0C0
C1C0
E180
7780
3F00
ENDCHAR
STARTCHAR 00F6
ENCODING 246
SWIDTH 630 0
DWIDTH 14 0
BBX 10 17 2 0
BITMAP
7300
7300
0000
0000
0000
3F00
7780
E180
C1C0
C0C0
C0C0
C0C0
C0C0
C1C0
E180
7780
3F00
ENDCHAR
STARTCHAR 00F7
ENCODING 247
SWIDTH 630 0
DWIDTH 14 0
BBX 9 12 2 1
BITMAP
1C00
1C00
0C00
0000
0000
FF80
FF80
0000
0000
1C00
1C00
0C00
ENDCHAR
STARTCHAR 00F8
ENCODING 248
SWIDTH 630 0
DWIDTH 14 0
BBX 10 18 2 -3
BITMAP
0100
0300
0300
3F00
7780
E780
C4C0
C4C0
CCC0
C8C0
C8C0
D9C0
F180
7780
3F00
3000
6000
6000
ENDCHAR
STARTCHAR 00F9
ENCODING 249
SWIDTH 630 0
DWIDTH 14 0
BBX 10 18 2 0
BITMAP
1000
3C00
0E00
0200
0000
0000
C1C0
C1C0
C1C0
C1C0
C1C0
C1C0
C1C0
C1C0
C1C0
C1C0
F7C0
7CC0
ENDCHAR
STARTCHAR 00FA
ENCODING 250
SWIDTH 630 0
DWIDTH 14 0
BBX 10 18 2 0
BITMAP
0600
0F00
3800
0000
0000
0000
C1C0
C1C0
C1C0
C1C0
C1C0
C1C0
C1C0
C1C0
C1C0
C1C0
F7C0
7CC0
ENDCHAR
STARTCHAR 00FB
ENCODING 251
SWIDTH 630 0
DWIDTH 14 0
BBX 10 18 2 0
BITMAP
1C00
3E00
7300
0100
0000
0000
C1C0
C1C0
C1C0
C1C0
C1C0
C1C0
C1C0
C1C0
C1C0
C1C0
F7C0
7CC0
ENDCHAR
STARTCHAR 00FC
ENCODING 252
SWIDTH 630 0
DWIDTH 14 0
BBX 10 17 2 0
BITMAP
7300
7300
0000
0000
0000
C1C0
C1C0
C1C0
C1C0
C1C0
C1C0
C1C0
C1C0
C1C0
C1C0
F7C0
7CC0
ENDCHAR
STARTCHAR 00FD
ENCODING 253
SWIDTH 630 0
DWIDTH 14 0
BBX 11 23 1 -5
BITMAP
0300
0780
1C00
0000
0000
0000
E060
6060
60E0
70C0
30C0
3180
1980
1980
1B00
0F00
0F00
0E00
0600
0E00
1C00
7800
2000
ENDCHAR
STARTCHAR 00FE
ENCODING 254
SWIDTH 630 0
DWIDTH 14 0
BBX 10 22 2 -5
BITMAP
C000
C000
C000
C000
C000
DF00
FB80
E1C0
C0C0
C0C0
C0C0
C0C0
C0C0
C1C0
E180
FF80
DF00
C000
C000
C000
C000
C000
ENDCHAR
STARTCHAR 00FF
ENCODING 255
SWIDTH 630 0
DWIDTH 14 0
BBX 11 22 1 -5
BITMAP
3980
3980
0000
0000
0000
E060
6060
60E0
70C0
30C0
3180
1980
1980
1B00
0F00
0F00
0E00
0600
0E00
1C00
7800
2000
ENDCHAR
STARTCHAR 0100
ENCODING 256
SWIDTH 630 0
DWIDTH 14 0
BBX 12 20 1 0
BITMAP
1F80
1F80
0000
0000
0E00
0F00
0F00
1B00
1B80
1980
3180
31C0
30C0
70C0
7FE0
7FE0
E060
C070
C070
C030
ENDCHAR
STARTCHAR 0101
ENCODING 257
SWIDTH 630 0
DWIDTH 14 0
BBX 11 17 1 0
BITMAP
3F80
3F80
0000
0000
0000
7F80
3380
00C0
00C0
00C0
3FC0
70C0
60C0
E0C0
61C0
73C0
3E60
ENDCHAR
STARTCHAR 0102
ENCODING 258
SWIDTH 630 0
DWIDTH 14 0
BBX 12 20 1 0
BITMAP
3180
1F80
0E00
0000
0E00
0F00
0F00
1B00
1B80
1980
3180
31C0
30C0
70C0
7FE0
7FE0
E060
C070
C070
C030
ENDCHAR
STARTCHAR 0103
ENCODING 259
SWIDTH 630 0
DWIDTH 14 0
BBX 11 18 1 0
BITMAP
3080
3180
1F00
0E00
0000
0000
7F80
3380
00C0
00C0
00C0
3FC0
70C0
60C0
E0C0
61C0
73C0
3E60
ENDCHAR
STARTCHAR 0104
ENCODING 260
SWIDTH 630 0
DWIDTH 14 0
BBX 12 21 1 -5
BITMAP
0E00
0F00
0F00
1B00
1B80
1980
3180
31C0
30C0
70C0
7FE0
7FE0
E060
C070
C070
C030
00C0
0180
0100
0180
01E0
ENDCHAR
STARTCHAR 0105
ENCODING 261
SWIDTH 630 0
DWIDTH 14 0
BBX 11 18 1 -6
BITMAP
7F80
3380
00C0
00C0
00C0
3FC0
70C0
60C0
E0C0
61C0
73C0
3E60
00C0
0300
0300
0300
03C0
00C0
ENDCHAR
STARTCHAR 0106
ENCODING 262
SWIDTH 630 0
DWIDTH 14 0
BBX 12 20 1 1
BITMAP
01C0
0780
0400
0000
07C0
1FF0
3820
7000
6000
6000
E000
E000
E000
E000
6000
6000
7000
3820
1FF0
0FE0
ENDCHAR
STARTCHAR 0107
ENCODING 263
SWIDTH 630 0
DWIDTH 14 0
BBX 10 18 2 0
BITMAP
0100
0780
1E00
0000
0000
0000
1F80
3FC0
6000
E000
C000
C000
C000
C000
E000
6000
7FC0
1F80
ENDCHAR
STARTCHAR 0108
ENCODING 264
SWIDTH 630 0
DWIDTH 14 0
BBX 12 21 1 0
BITMAP
0380
07C0
0CE0
0800
0000
07C0
1FF0
3820
7000
6000
6000
E000
E000
E000
E000
6000
6000
7000
3820
1FF0
0FE0
ENDCHAR
STARTCHAR 0109
ENCODING 265
SWIDTH 630 0
DWIDTH 14 0
BBX 10 18 2 0
BITMAP
0600
0F00
3980
1080
0000
0000
1F80
3FC0
6000
E000
C000
C000
C000
C000
E000
6000
7FC0
1F80
ENDCHAR
STARTCHAR 010A
ENCODING 266
SWIDTH 630 0
DWIDTH 14 0
BBX 12 20 1 1
BITMAP
0380
0380
0000
0000
07C0
1FF0
3820
7000
6000
6000
E000
E000
E000
E000
6000
6000
7000
3820
1FF0
0FE0
ENDCHAR
STARTCHAR 010B
ENCODING 267
SWIDTH 630 0
DWIDTH 14 0
BBX 10 18 2 0
BITMAP
0400
0E00
0E00
0000
0000
0000
1F80
3FC0
6000
E000
C000
C000
C000
C000
E000
6000
7FC0
1F80
ENDCHAR
STARTCHAR 010C
ENCODING 268
SWIDTH 630 0
DWIDTH 14 0
BBX 12 21 1 0
BITMAP
0800
0CE0
07C0
0300
0000
07C0
1FF0
3820
7000
6000
6000
E000
E000
E000
E000
6000
6000
7000
3820
1FF0
0FE0
ENDCHAR
STARTCHAR 010D
ENCODING 269
SWIDTH 630 0
DWIDTH 14 0
BBX 10 18 2 0
BITMAP
1080
3980
0F00
0600
0000
0000
1F80
3FC0
6000
E000
C000
C000
C000
C000
E000
6000
7FC0
1F80
ENDCHAR
STARTCHAR 010E
ENCODING 270
SWIDTH 630 0
DWIDTH 14 0
BBX 11 21 2 0
BITMAP
4100
7700
3E00
1C00
0000
FC00
FF00
C380
C1C0
C0C0
C0C0
C0E0
C0E0
C0E0
C0E0
C0C0
C0C0
C1C0
C380
FF00
FE00
ENDCHAR
STARTCHAR 010F
ENCODING 271
SWIDTH 630 0
DWIDTH 14 0
BBX 13 17 1 0
BITMAP
00D8
00D8
00D8
00D0
00C0
3EC0
73C0
E1C0
C0C0
C0C0
C0C0
C0C0
C0C0
C0C0
E1C0
77C0
3EC0
ENDCHAR
STARTCHAR 0110
ENCODING 272
SWIDTH 630 0
DWIDTH 14 0
BBX 13 16 0 0
BITMAP
3F00
3FC0
30E0
3070
3030
3038
3038
FF38
FF38
3038
3038
3030
3070
3060
3FE0
3F80
ENDCHAR
STARTCHAR 0111
ENCODING 273
SWIDTH 630 0
DWIDTH 14 0
BBX 12 17 1 0
BITMAP
00C0
00C0
07F0
00C0
00C0
1FC0
3BC0
70C0
60C0
60C0
E0C0
E0C0
60C0
60C0
70C0
7BC0
3EC0
ENDCHAR
STARTCHAR 0112
ENCODING 274
SWIDTH 630 0
DWIDTH 14 0
BBX 9 20 3 0
BITMAP
7E00
7E00
0000
0000
FF80
FF80
C000
C000
C000
C000
C000
FF00
FF00
C000
C000
C000
C000
C000
FF80
FF80
ENDCHAR
STARTCHAR 0113
ENCODING 275
SWIDTH 630 0
DWIDTH 14 0
BBX 10 17 2 0
BITMAP
3F00
3F00
0000
0000
0000
3F00
7380
E180
C0C0
C0C0
FFC0
FFC0
C000
C000
E080
7B80
3F80
ENDCHAR
STARTCHAR 0114
ENCODING 276
SWIDTH 630 0
DWIDTH 14 0
BBX 9 20 3 0
BITMAP
6300
7E00
1C00
0000
FF80
FF80
C000
C000
C000
C000
C000
FF00
FF00
C000
C000
C000
C000
C000
FF80
FF80
ENDCHAR
STARTCHAR 0115
ENCODING 277
SWIDTH 630 0
DWIDTH 14 0
BBX 10 18 2 0
BITMAP
2180
3300
3F00
0C00
0000
0000
3F00
7380
E180
C0C0
C0C0
FFC0
FFC0
C000
C000
E080
7B80
3F80
ENDCHAR
STARTCHAR 0116
ENCODING 278
SWIDTH 630 0
DWIDTH 14 0
BBX 9 20 3 1
BITMAP
1C00
1C00
0000
0000
FF80
FF80
C000
C000
C000
C000
C000
FF00
FF00
C000
C000
C000
C000
C000
FF80
FF80
ENDCHAR
STARTCHAR 0117
ENCODING 279
SWIDTH 630 0
DWIDTH 14 0
BBX 10 18 2 0
BITMAP
0C00
0E00
0C00
0000
0000
0000
3F00
7380
E180
C0C0
C0C0
FFC0
FFC0
C000
C000
E080
7B80
3F80
ENDCHAR
STARTCHAR 0118
ENCODING 280
SWIDTH 630 0
DWIDTH 14 0
BBX 9 21 3 -5
BITMAP
FF80
FF80
C000
C000
C000
C000
C000
FF00
FF00
C000
C000
C000
C000
C000
FF80
FF80
0E00
1800
1800
1800
0E00
ENDCHAR
STARTCHAR 0119
ENCODING 281
SWIDTH 630 0
DWIDTH 14 0
BBX 10 17 2 -5
BITMAP
3F00
7380
E180
C0C0
C0C0
FFC0
FFC0
C000
C000
E080
7B80
3F80
0C00
1800
1000
1800
1E00
ENDCHAR
STARTCHAR 011A
ENCODING 282
SWIDTH 630 0
DWIDTH 14 0
BBX 9 21 3 0
BITMAP
4000
6700
3E00
1800
0000
FF80
FF80
C000
C000
C000
C000
C000
FF00
FF00
C000
C000
C000
C000
C000
FF80
FF80
ENDCHAR
STARTCHAR 011B
ENCODING 283
SWIDTH 630 0
DWIDTH 14 0
BBX 10 18 2 0
BITMAP
2100
3300
1E00
0C00
0000
0000
3F00
7380
E180
C0C0
C0C0
FFC0
FFC0
C000
C000
E080
7B80
3F80
ENDCHAR
STARTCHAR 011C
ENCODING 284
SWIDTH 630 0
DWIDTH 14 0
BBX 11 21 1 0
BITMAP
0700
0F80
1CC0
1040
0000
0F80
1FE0
3060
6000
6000
E000
C000
C3E0
C3E0
C060
E060
E060
6060
7060
3FE0
1FC0
ENDCHAR
STARTCHAR 011D
ENCODING 285
SWIDTH 630 0
DWIDTH 14 0
BBX 12 23 1 -5
BITMAP
0E00
1F00
3980
0080
0000
00E0
1FF0
7180
60C0
60C0
60C0
60C0
3B80
3F00
2000
7000
3FC0
1FE0
0060
C060
6060
7FC0
1F80
ENDCHAR
STARTCHAR 011E
ENCODING 286
SWIDTH 630 0
DWIDTH 14 0
BBX 11 20 1 0
BITMAP
18C0
0F80
0700
0000
0F80
1FE0
3060
6000
6000
E000
C000
C3E0
C3E0
C060
E060
E060
6060
7060
3FE0
1FC0
ENDCHAR
STARTCHAR 011F
ENCODING 287
SWIDTH 630 0
DWIDTH 14 0
BBX 12 23 1 -5
BITMAP
3080
3180
1F00
0E00
0000
00E0
1FF0
7180
60C0
60C0
60C0
60C0
3B80
3F00
2000
7000
3FC0
1FE0
0060
C060
6060
7FC0
1F80
ENDCHAR
STARTCHAR 0120
ENCODING 288
SWIDTH 630 0
DWIDTH 14 0
BBX 11 21 1 0
BITMAP
0200
0700
0700
0000
0000
0F80
1FE0
3060
6000
6000
E000
C000
C3E0
C3E0
C060
E060
E060
6060
7060
3FE0
1FC0
ENDCHAR
STARTCHAR 0121
ENCODING 289
SWIDTH 630 0
DWIDTH 14 0
BBX 12 23 1 -5
BITMAP
0600
0E00
0E00
0000
0000
00E0
1FF0
7180
60C0
60C0
60C0
60C0
3B80
3F00
2000
7000
3FC0
1FE0
0060
C060
6060
7FC0
1F80
ENDCHAR
STARTCHAR 0122
ENCODING 290
SWIDTH 630 0
DWIDTH 14 0
BBX 11 23 1 -7
BITMAP
0F80
1FE0
3060
6000
6000
E000
C000
C3E0
C3E0
C060
E060
E060
6060
7060
3FE0
1FC0
0000
0000
0700
0700
0200
0600
0400
ENDCHAR
STARTCHAR 0123
ENCODING 291
SWIDTH 630 0
DWIDTH 14 0
BBX 12 24 1 -5
BITMAP
0200
0600
0600
0E00
0E00
0000
00E0
1FF0
7180
60C0
60C0
60C0
60C0
3B80
3F00
2000
7000
3FC0
1FE0
0060
C060
6060
7FC0
1F80
ENDCHAR
STARTCHAR 0124
ENCODING 292
SWIDTH 630 0
DWIDTH 14 0
BBX 10 21 2 0
BITMAP
0C00
3E00
7300
0100
0000
C0C0
C0C0
C0C0
C0C0
C0C0
C0C0
C0C0
FFC0
FFC0
C0C0
C0C0
C0C0
C0C0
C0C0
C0C0
C0C0
ENDCHAR
STARTCHAR 0125
ENCODING 293
SWIDTH 630 0
DWIDTH 14 0
BBX 10 22 2 0
BITMAP
1C00
3E00
7380
0000
0000
C000
C000
C000
C000
C000
DF80
FB80
E180
C1C0
C1C0
C1C0
C1C0
C1C0
C1C0
C1C0
C1C0
C1C0
ENDCHAR
STARTCHAR 0126
ENCODING 294
SWIDTH 630 0
DWIDTH 14 0
BBX 14 16 0 0
BITMAP
3030
3030
3030
FFFC
3030
3030
3030
3FF0
3FF0
3030
3030
3030
3030
3030
3030
3030
ENDCHAR
STARTCHAR 0127
ENCODING 295
SWIDTH 630 0
DWIDTH 14 0
BBX 12 17 0 0
BITMAP
3000
3000
FF00
3000
3000
37E0
3EE0
3860
3070
3070
3070
3070
3070
3070
3070
3070
3070
ENDCHAR
STARTCHAR 0128
ENCODING 296
SWIDTH 630 0
DWIDTH 14 0
BBX 9 20 2 0
BITMAP
3D80
6F00
0000
0000
FF80
FF80
0C00
0C00
0C00
0C00
0C00
0C00
0C00
0C00
0C00
0C00
0C00
0C00
FF80
FF80
ENDCHAR
STARTCHAR 0129
ENCODING 297
SWIDTH 630 0
DWIDTH 14 0
BBX 9 18 3 0
BITMAP
2200
7E00
CE00
0000
0000
0000
F800
F800
1800
1800
1800
1800
1800
1800
1800
1800
FF80
FF80
ENDCHAR
STARTCHAR 012A
ENCODING 298
SWIDTH 630 0
DWIDTH 14 0
BBX 9 20 2 0
BITMAP
3F00
3F00
0000
0000
FF80
FF80
0C00
0C00
0C00
0C00
0C00
0C00
0C00
0C00
0C00
0C00
0C00
0C00
FF80
FF80
ENDCHAR
STARTCHAR 012B
ENCODING 299
SWIDTH 630 0
DWIDTH 14 0
BBX 9 17 3 0
BITMAP
7E00
7E00
0000
0000
0000
F800
F800
1800
1800
1800
1800
1800
1800
1800
1800
FF80
FF80
ENDCHAR
STARTCHAR 012C
ENCODING 300
SWIDTH 630 0
DWIDTH 14 0
BBX 9 20 2 0
BITMAP
6300
3F00
1C00
0000
FF80
FF80
0C00
0C00
0C00
0C00
0C00
0C00
0C00
0C00
0C00
0C00
0C00
0C00
FF80
FF80
ENDCHAR
STARTCHAR 012D
ENCODING 301
SWIDTH 630 0
DWIDTH 14 0
BBX 9 18 3 0
BITMAP
C200
4600
7C00
1800
0000
0000
F800
F800
1800
1800
1800
1800
1800
1800
1800
1800
FF80
FF80
ENDCHAR
STARTCHAR 012E
ENCODING 302
SWIDTH 630 0
DWIDTH 14 0
BBX 9 21 2 -5
BITMAP
FF80
FF80
0C00
0C00
0C00
0C00
0C00
0C00
0C00
0C00
0C00
0C00
0C00
0C00
FF80
FF80
1800
3000
6000
7000
3C00
ENDCHAR
STARTCHAR 012F
ENCODING 303
SWIDTH 630 0
DWIDTH 14 0
BBX 9 23 3 -5
BITMAP
1800
3800
1800
0000
0000
0000
F800
F800
1800
1800
1800
1800
1800
1800
1800
1800
FF80
FF80
3000
6000
6000
6000
7800
ENDCHAR
STARTCHAR 0130
ENCODING 304
SWIDTH 630 0
DWIDTH 14 0
BBX 9 20 2 1
BITMAP
1C00
1C00
0000
0000
FF80
FF80
0C00
0C00
0C00
0C00
0C00
0C00
0C00
0C00
0C00
0C00
0C00
0C00
FF80
FF80
ENDCHAR
STARTCHAR 0131
ENCODING 305
SWIDTH 630 0
DWIDTH 14 0
BBX 9 12 3 0
BITMAP
F800
F800
1800
1800
1800
1800
1800
1800
1800
1800
FF80
FF80
ENDCHAR
STARTCHAR 0132
ENCODING 306
SWIDTH 630 0
DWIDTH 14 0
BBX 12 19 0 -3
BITMAP
FFF0
FFF0
3830
3830
3830
3830
3830
3830
3830
3830
3830
3830
3830
3830
FC30
FC60
00E0
07C0
0700
ENDCHAR
STARTCHAR 0133
ENCODING 307
SWIDTH 630 0
DWIDTH 14 0
BBX 11 23 1 -5
BITMAP
30C0
38E0
30E0
0000
0000
0000
FFE0
FFE0
30E0
30E0
30E0
30E0
30E0
30E0
30E0
30E0
FCE0
FCC0
00C0
01C0
0380
0F00
0C00
ENDCHAR
STARTCHAR 0134
ENCODING 308
SWIDTH 630 0
DWIDTH 14 0
BBX 10 21 2 0
BITMAP
0600
0F00
39C0
0000
0000
3F80
3F80
0180
0180
0180
0180
0180
0180
0180
0180
0180
0180
0180
8380
FF00
7E00
ENDCHAR
STARTCHAR 0135
ENCODING 309
SWIDTH 630 0
DWIDTH 14 0
BBX 10 23 2 -5
BITMAP
0700
0F80
18C0
1000
0000
0000
7F00
7F00
0300
0300
0300
0300
0300
0300
0300
0300
0300
0300
0700
0E00
1C00
F800
C000
ENDCHAR
STARTCHAR 0136
ENCODING 310
SWIDTH 630 0
DWIDTH 14 0
BBX 11 23 2 -7
BITMAP
C0E0
C0C0
C180
C300
C700
CE00
DC00
D800
DC00
CE00
C600
C700
C380
C1C0
C0C0
C0E0
0000
0000
0E00
0E00
0C00
0C00
0800
ENDCHAR
STARTCHAR 0137
ENCODING 311
SWIDTH 630 0
DWIDTH 14 0
BBX 11 24 2 -7
BITMAP
C000
C000
C000
C000
C000
C1C0
C380
C700
CE00
CC00
D800
CC00
CE00
C700
C380
C1C0
C0E0
0000
0000
0C00
0C00
0C00
0800
0800
ENDCHAR
STARTCHAR 0138
ENCODING 312
SWIDTH 630 0
DWIDTH 14 0
BBX 10 12 2 0
BITMAP
C1C0
C380
C700
CE00
CC00
D800
DC00
CE00
C700
C380
C1C0
C0C0
ENDCHAR
STARTCHAR 0139
ENCODING 313
SWIDTH 630 0
DWIDTH 14 0
BBX 10 21 2 0
BITMAP
1000
7800
E000
8000
0000
6000
6000
6000
6000
6000
6000
6000
6000
6000
6000
6000
6000
6000
6000
7FC0
7FC0
ENDCHAR
STARTCHAR 013A
ENCODING 314
SWIDTH 630 0
DWIDTH 14 0
BBX 11 23 1 0
BITMAP
0200
0F00
3C00
0000
0000
0000
FC00
FC00
0C00
0C00
0C00
0C00
0C00
0C00
0C00
0C00
0C00
0C00
0C00
0C00
0C00
0FC0
07E0
ENDCHAR
STARTCHAR 013B
ENCODING 315
SWIDTH 630 0
DWIDTH 14 0
BBX 9 23 3 -7
BITMAP
C000
C000
C000
C000
C000
C000
C000
C000
C000
C000
C000
C000
C000
C000
FF80
FF80
0000
0000
1C00
1C00
0800
1800
1000
ENDCHAR
STARTCHAR 013C
ENCODING 316
SWIDTH 630 0
DWIDTH 14 0
BBX 11 24 1 -7
BITMAP
FC00
FC00
0C00
0C00
0C00
0C00
0C00
0C00
0C00
0C00
0C00
0C00
0C00
0C00
0C00
0FC0
07E0
0000
0000
0380
0300
0300
0300
0200
ENDCHAR
STARTCHAR 013D
ENCODING 317
SWIDTH 630 0
DWIDTH 14 0
BBX 9 16 3 0
BITMAP
CC00
CC00
C800
C800
C800
C000
C000
C000
C000
C000
C000
C000
C000
C000
FF80
FF80
ENDCHAR
STARTCHAR 013E
ENCODING 318
SWIDTH 630 0
DWIDTH 14 0
BBX 11 17 1 0
BITMAP
FCC0
FC80
0D80
0D80
0C00
0C00
0C00
0C00
0C00
0C00
0C00
0C00
0C00
0C00
0C00
0FC0
07E0
ENDCHAR
STARTCHAR 013F
ENCODING 319
SWIDTH 630 0
DWIDTH 14 0
BBX 9 16 3 0
BITMAP
C000
C000
C000
C000
C000
C000
C380
C380
C180
C000
C000
C000
C000
C000
FF80
FF80
ENDCHAR
STARTCHAR 0140
ENCODING 320
SWIDTH 630 0
DWIDTH 14 0
BBX 13 17 1 0
BITMAP
FC00
FC00
0C00
0C00
0C00
0C00
0C00
0C18
0C38
0C18
0C00
0C00
0C00
0C00
0C00
0FC0
07E0
ENDCHAR
STARTCHAR 0141
ENCODING 321
SWIDTH 630 0
DWIDTH 14 0
BBX 11 16 1 0
BITMAP
3000
3000
3000
3000
3000
3300
3700
3C00
7000
F000
B000
3000
3000
3000
3FE0
3FE0
ENDCHAR
STARTCHAR 0142
ENCODING 322
SWIDTH 630 0
DWIDTH 14 0
BBX 11 17 1 0
BITMAP
FC00
FC00
0C00
0C00
0C00
0C00
0D80
0F00
0E00
3C00
2C00
0C00
0C00
0C00
0C00
0FC0
07E0
ENDCHAR
STARTCHAR 0143
ENCODING 323
SWIDTH 630 0
DWIDTH 14 0
BBX 10 21 2 0
BITMAP
0200
0E00
3C00
1000
0000
E0C0
E0C0
F0C0
F0C0
F0C0
D8C0
D8C0
CCC0
CCC0
CCC0
C6C0
C6C0
C7C0
C3C0
C3C0
C1C0
ENDCHAR
STARTCHAR 0144
ENCODING 324
SWIDTH 630 0
DWIDTH 14 0
BBX 10 18 2 0
BITMAP
0600
0F00
3800
0000
0000
0000
DF80
FB80
E180
C1C0
C1C0
C1C0
C1C0
C1C0
C1C0
C1C0
C1C0
C1C0
ENDCHAR
STARTCHAR 0145
ENCODING 325
SWIDTH 630 0
DWIDTH 14 0
BBX 10 23 2 -7
BITMAP
E0C0
E0C0
F0C0
F0C0
F0C0
D8C0
D8C0
CCC0
CCC0
CCC0
C6C0
C6C0
C7C0
C3C0
C3C0
C1C0
0000
0000
0C00
0C00
0C00
0800
1800
ENDCHAR
STARTCHAR 0146
ENCODING 326
SWIDTH 630 0
DWIDTH 14 0
BBX 10 19 2 -7
BITMAP
DF80
FB80
E180
C1C0
C1C0
C1C0
C1C0
C1C0
C1C0
C1C0
C1C0
C1C0
0000
0000
0C00
0C00
0C00
0800
0800
ENDCHAR
STARTCHAR 0147
ENCODING 327
SWIDTH 630 0
DWIDTH 14 0
BBX 10 21 2 0
BITMAP
0100
7300
1E00
0C00
0000
E0C0
E0C0
F0C0
F0C0
F0C0
D8C0
D8C0
CCC0
CCC0
CCC0
C6C0
C6C0
C7C0
C3C0
C3C0
C1C0
ENDCHAR
STARTCHAR 0148
ENCODING 328
SWIDTH 630 0
DWIDTH 14 0
BBX 10 18 2 0
BITMAP
6100
3300
1E00
0C00
0000
0000
DF80
FB80
E180
C1C0
C1C0
C1C0
C1C0
C1C0
C1C0
C1C0
C1C0
C1C0
ENDCHAR
STARTCHAR 0149
ENCODING 329
SWIDTH 630 0
DWIDTH 14 0
BBX 12 17 0 0
BITMAP
E000
E000
4000
C000
8000
33E0
36E0
3870
3830
3830
3830
3830
3830
3830
3830
3830
3830
ENDCHAR
STARTCHAR 014A
ENCODING 330
SWIDTH 630 0
DWIDTH 14 0
BBX 10 21 2 -5
BITMAP
E0C0
E0C0
F0C0
F0C0
F0C0
D8C0
D8C0
CCC0
CCC0
CCC0
C6C0
C6C0
C7C0
C3C0
C3C0
C1C0
00C0
00C0
01C0
0F80
0F00
ENDCHAR
STARTCHAR 014B
ENCODING 331
SWIDTH 630 0
DWIDTH 14 0
BBX 10 17 2 -5
BITMAP
DF80
FB80
E180
C1C0
C1C0
C1C0
C1C0
C1C0
C1C0
C1C0
C1C0
C1C0
0180
0180
0380
0700
0200
ENDCHAR
STARTCHAR 014C
ENCODING 332
SWIDTH 630 0
DWIDTH 14 0
BBX 12 20 1 0
BITMAP
1F80
1F80
0000
0000
0F00
3FC0
70C0
6060
E060
E060
C070
C070
C070
C070
C070
E060
6060
70E0
3FC0
1F80
ENDCHAR
STARTCHAR 014D
ENCODING 333
SWIDTH 630 0
DWIDTH 14 0
BBX 10 17 2 0
BITMAP
3F00
3F00
0000
0000
0000
3F00
7780
E180
C1C0
C0C0
C0C0
C0C0
C0C0
C1C0
E180
7780
3F00
ENDCHAR
STARTCHAR 014E
ENCODING 334
SWIDTH 630 0
DWIDTH 14 0
BBX 12 20 1 0
BITMAP
3180
1F80
0E00
0000
0F00
3FC0
70C0
6060
E060
E060
C070
C070
C070
C070
C070
E060
6060
70E0
3FC0
1F80
ENDCHAR
STARTCHAR 014F
ENCODING 335
SWIDTH 630 0
DWIDTH 14 0
BBX 10 18 2 0
BITMAP
6100
2300
3E00
0C00
0000
0000
3F00
7780
E180
C1C0
C0C0
C0C0
C0C0
C0C0
C1C0
E180
7780
3F00
ENDCHAR
STARTCHAR 0150
ENCODING 336
SWIDTH 630 0
DWIDTH 14 0
BBX 12 22 1 0
BITMAP
0440
0CC0
0CC0
1980
0900
0000
0F00
3FC0
70C0
6060
E060
E060
C070
C070
C070
C070
C070
E060
6060
70E0
3FC0
1F80
ENDCHAR
STARTCHAR 0151
ENCODING 337
SWIDTH 630 0
DWIDTH 14 0
BBX 10 19 2 0
BITMAP
0980
1980
1B00
3300
0000
0000
0000
3F00
7780
E180
C1C0
C0C0
C0C0
C0C0
C0C0
C1C0
E180
7780
3F00
ENDCHAR
STARTCHAR 0152
ENCODING 338
SWIDTH 630 0
DWIDTH 14 0
BBX 14 16 0 0
BITMAP
1FFC
3FFC
6380
6180
E180
C180
C1C0
C1F8
C1F8
C1C0
C180
E180
E180
6180
7FFC
3FFC
ENDCHAR
STARTCHAR 0153
ENCODING 339
SWIDTH 630 0
DWIDTH 14 0
BBX 14 12 0 0
BITMAP
3CF0
77D8
E38C
C30C
C30C
C3FC
C3FC
C300
C300
E380
7FD8
3CF8
ENDCHAR
STARTCHAR 0154
ENCODING 340
SWIDTH 630 0
DWIDTH 14 0
BBX 11 21 2 0
BITMAP
0200
0E00
3C00
0000
0000
FE00
FF80
C1C0
C0C0
C0C0
C0C0
C0C0
C380
FF00
CE00
C700
C300
C380
C1C0
C0C0
C0E0
ENDCHAR
STARTCHAR 0155
ENCODING 341
SWIDTH 630 0
DWIDTH 14 0
BBX 10 18 2 0
BITMAP
0300
0F00
1C00
0000
0000
0000
F3C0
F7C0
3CC0
38C0
3800
3000
3000
3000
3000
3000
FE00
FE00
ENDCHAR
STARTCHAR 0156
ENCODING 342
SWIDTH 630 0
DWIDTH 14 0
BBX 11 23 2 -7
BITMAP
FE00
FF80
C1C0
C0C0
C0C0
C0C0
C0C0
C380
FF00
CE00
C700
C300
C380
C1C0
C0C0
C0E0
0000
0000
0C00
0C00
0C00
0800
1800
ENDCHAR
STARTCHAR 0157
ENCODING 343
SWIDTH 630 0
DWIDTH 14 0
BBX 10 19 2 -7
BITMAP
F3C0
F7C0
3CC0
38C0
3800
3000
3000
3000
3000
3000
FE00
FE00
0000
0000
3800
3800
3000
3000
2000
ENDCHAR
STARTCHAR 0158
ENCODING 344
SWIDTH 630 0
DWIDTH 14 0
BBX 11 21 2 0
BITMAP
0100
7300
1E00
0C00
0000
FE00
FF80
C1C0
C0C0
C0C0
C0C0
C0C0
C380
FF00
CE00
C700
C300
C380
C1C0
C0C0
C0E0
ENDCHAR
STARTCHAR 0159
ENCODING 345
SWIDTH 630 0
DWIDTH 14 0
BBX 10 18 2 0
BITMAP
2080
3B80
1F00
0400
0000
0000
F3C0
F7C0
3CC0
38C0
3800
3000
3000
3000
3000
3000
FE00
FE00
ENDCHAR
STARTCHAR 015A
ENCODING 346
SWIDTH 630 0
DWIDTH 14 0
BBX 11 21 1 0
BITMAP
0100
0780
0E00
0800
0000
1F80
3FE0
7040
6000
6000
7000
7C00
1F80
07C0
00E0
0060
0060
0060
40E0
FFC0
3F80
ENDCHAR
STARTCHAR 015B
ENCODING 347
SWIDTH 630 0
DWIDTH 14 0
BBX 10 18 2 0
BITMAP
0200
0F00
3800
0000
0000
0000
3F00
7380
E000
E000
7000
3E00
0F80
0180
01C0
0180
F780
7F00
ENDCHAR
STARTCHAR 015C
ENCODING 348
SWIDTH 630 0
DWIDTH 14 0
BBX 11 21 1 0
BITMAP
0600
0F00
39C0
0000
0000
1F80
3FE0
7040
6000
6000
7000
7C00
1F80
07C0
00E0
0060
0060
0060
40E0
FFC0
3F80
ENDCHAR
STARTCHAR 015D
ENCODING 349
SWIDTH 630 0
DWIDTH 14 0
BBX 10 18 2 0
BITMAP
0C00
1F00
7380
2000
0000
0000
3F00
7380
E000
E000
7000
3E00
0F80
0180
01C0
0180
F780
7F00
ENDCHAR
STARTCHAR 015E
ENCODING 350
SWIDTH 630 0
DWIDTH 14 0
BBX 11 22 1 -6
BITMAP
1F80
3FE0
7040
6000
6000
7000
7C00
1F80
07C0
00E0
0060
0060
0060
40E0
FFC0
3F80
0400
0600
0300
0100
1F00
0400
ENDCHAR
STARTCHAR 015F
ENCODING 351
SWIDTH 630 0
DWIDTH 14 0
BBX 10 18 2 -6
BITMAP
3F00
7380
E000
E000
7000
3E00
0F80
0180
01C0
0180
F780
7F00
0800
0C00
0600
0200
3E00
0800
ENDCHAR
STARTCHAR 0160
ENCODING 352
SWIDTH 630 0
DWIDTH 14 0
BBX 11 21 1 0
BITMAP
0080
39C0
0F00
0600
0000
1F80
3FE0
7040
6000
6000
7000
7C00
1F80
07C0
00E0
0060
0060
0060
40E0
FFC0
3F80
ENDCHAR
STARTCHAR 0161
ENCODING 353
SWIDTH 630 0
DWIDTH 14 0
BBX 10 18 2 0
BITMAP
2100
3300
1E00
0C00
0000
0000
3F00
7380
E000
E000
7000
3E00
0F80
0180
01C0
0180
F780
7F00
ENDCHAR
STARTCHAR 0162
ENCODING 354
SWIDTH 630 0
DWIDTH 14 0
BBX 12 22 1 -6
BITMAP
FFF0
FFF0
0600
0600
0600
0600
0600
0600
0600
0600
0600
0600
0600
0600
0600
0600
0600
0700
0380
0180
0F00
0400
ENDCHAR
STARTCHAR 0163
ENCODING 355
SWIDTH 630 0
DWIDTH 14 0
BBX 10 21 2 -6
BITMAP
3800
3800
3800
FF80
FF80
3800
3800
3800
3800
3800
3800
3800
1800
1F80
0FC0
0600
0700
0180
0180
0F80
0200
ENDCHAR
STARTCHAR 0164
ENCODING 356
SWIDTH 630 0
DWIDTH 14 0
BBX 12 21 1 0
BITMAP
0080
3980
1F00
0600
0000
FFF0
FFF0
0600
0600
0600
0600
0600
0600
0600
0600
0600
0600
0600
0600
0600
0600
ENDCHAR
STARTCHAR 0165
ENCODING 357
SWIDTH 630 0
DWIDTH 14 0
BBX 10 18 2 0
BITMAP
0200
0300
0300
3A00
3A00
3800
FF80
FF80
3800
3800
3800
3800
3800
3800
3800
1800
1F80
0FC0
ENDCHAR
STARTCHAR 0166
ENCODING 358
SWIDTH 630 0
DWIDTH 14 0
BBX 12 16 1 0
BITMAP
FFF0
FFF0
0600
0600
0600
0600
0600
3FC0
0600
0600
0600
0600
0600
0600
0600
0600
ENDCHAR
STARTCHAR 0167
ENCODING 359
SWIDTH 630 0
DWIDTH 14 0
BBX 10 15 2 0
BITMAP
3800
3800
3800
FF80
FF80
3800
3800
FF80
FF80
3800
3800
3800
1800
1F80
0FC0
ENDCHAR
STARTCHAR 0168
ENCODING 360
SWIDTH 630 0
DWIDTH 14 0
BBX 10 20 2 0
BITMAP
3D80
6F00
0000
0000
C0C0
C0C0
C0C0
C0C0
C0C0
C0C0
C0C0
C0C0
C0C0
C0C0
C0C0
C0C0
C0C0
E1C0
7F80
3F00
ENDCHAR
STARTCHAR 0169
ENCODING 361
SWIDTH 630 0
DWIDTH 14 0
BBX 10 18 2 0
BITMAP
1000
7F00
6700
0000
0000
0000
C1C0
C1C0
C1C0
C1C0
C1C0
C1C0
C1C0
C1C0
C1C0
C1C0
F7C0
7CC0
ENDCHAR
STARTCHAR 016A
ENCODING 362
SWIDTH 630 0
DWIDTH 14 0
BBX 10 20 2 0
BITMAP
3F00
3F00
0000
0000
C0C0
C0C0
C0C0
C0C0
C0C0
C0C0
C0C0
C0C0
C0C0
C0C0
C0C0
C0C0
C0C0
E1C0
7F80
3F00
ENDCHAR
STARTCHAR 016B
ENCODING 363
SWIDTH 630 0
DWIDTH 14 0
BBX 10 17 2 0
BITMAP
3F00
3F00
0000
0000
0000
C1C0
C1C0
C1C0
C1C0
C1C0
C1C0
C1C0
C1C0
C1C0
C1C0
F7C0
7CC0
ENDCHAR
STARTCHAR 016C
ENCODING 364
SWIDTH 630 0
DWIDTH 14 0
BBX 10 20 2 0
BITMAP
6300
3F00
1C00
0000
C0C0
C0C0
C0C0
C0C0
C0C0
C0C0
C0C0
C0C0
C0C0
C0C0
C0C0
C0C0
C0C0
E1C0
7F80
3F00
ENDCHAR
STARTCHAR 016D
ENCODING 365
SWIDTH 630 0
DWIDTH 14 0
BBX 10 18 2 0
BITMAP
6100
2300
3E00
0C00
0000
0000
C1C0
C1C0
C1C0
C1C0
C1C0
C1C0
C1C0
C1C0
C1C0
C1C0
F7C0
7CC0
ENDCHAR
STARTCHAR 016E
ENCODING 366
SWIDTH 630 0
DWIDTH 14 0
BBX 10 22 2 0
BITMAP
0C00
1E00
3200
3200
1E00
0000
C0C0
C0C0
C0C0
C0C0
C0C0
C0C0
C0C0
C0C0
C0C0
C0C0
C0C0
C0C0
C0C0
E1C0
7F80
3F00
ENDCHAR
STARTCHAR 016F
ENCODING 367
SWIDTH 630 0
DWIDTH 14 0
BBX 10 19 2 0
BITMAP
1C00
3200
3200
3200
1C00
0000
0000
C1C0
C1C0
C1C0
C1C0
C1C0
C1C0
C1C0
C1C0
C1C0
C1C0
F7C0
7CC0
ENDCHAR
STARTCHAR 0170
ENCODING 368
SWIDTH 630 0
DWIDTH 14 0
BBX 10 22 2 0
BITMAP
0880
1980
1980
3300
1200
0000
C0C0
C0C0
C0C0
C0C0
C0C0
C0C0
C0C0
C0C0
C0C0
C0C0
C0C0
C0C0
C0C0
E1C0
7F80
3F00
ENDCHAR
STARTCHAR 0171
ENCODING 369
SWIDTH 630 0
DWIDTH 14 0
BBX 10 19 2 0
BITMAP
0980
1980
1B00
3300
0000
0000
0000
C1C0
C1C0
C1C0
C1C0
C1C0
C1C0
C1C0
C1C0
C1C0
C1C0
F7C0
7CC0
ENDCHAR
STARTCHAR 0172
ENCODING 370
SWIDTH 630 0
DWIDTH 14 0
BBX 10 21 2 -5
BITMAP
C0C0
C0C0
C0C0
C0C0
C0C0
C0C0
C0C0
C0C0
C0C0
C0C0
C0C0
C0C0
C0C0
E1C0
7F80
3F00
1C00
3000
3000
3000
1C00
ENDCHAR
STARTCHAR 0173
ENCODING 371
SWIDTH 630 0
DWIDTH 14 0
BBX 10 17 2 -5
BITMAP
C1C0
C1C0
C1C0
C1C0
C1C0
C1C0
C1C0
C1C0
C1C0
C1C0
F7C0
7CC0
0300
0600
0600
0600
0780
ENDCHAR
STARTCHAR 0174
ENCODING 372
SWIDTH 630 0
DWIDTH 14 0
BBX 14 21 0 0
BITMAP
0300
0F80
1CC0
0040
0000
C00C
C018
E318
6718
6718
6798
6598
6598
65B0
6CB0
6CB0
3CF0
3CF0
38F0
38F0
38E0
ENDCHAR
STARTCHAR 0175
ENCODING 373
SWIDTH 630 0
DWIDTH 14 0
BBX 13 18 0 0
BITMAP
0700
0F80
1CC0
0040
0000
0000
E018
6018
6318
6718
6798
6790
65B0
34B0
3CB0
3CF0
3CF0
38E0
ENDCHAR
STARTCHAR 0176
ENCODING 374
SWIDTH 630 0
DWIDTH 14 0
BBX 12 21 1 0
BITMAP
0600
0F00
39C0
0080
0000
C030
E070
6060
70E0
30C0
3980
1980
1F00
0F00
0E00
0600
0600
0600
0600
0600
0600
ENDCHAR
STARTCHAR 0177
ENCODING 375
SWIDTH 630 0
DWIDTH 14 0
BBX 11 23 1 -5
BITMAP
0E00
1F00
3980
0080
0000
0000
E060
6060
60E0
70C0
30C0
3180
1980
1980
1B00
0F00
0F00
0E00
0600
0E00
1C00
7800
2000
ENDCHAR
STARTCHAR 0178
ENCODING 376
SWIDTH 630 0
DWIDTH 14 0
BBX 12 20 1 0
BITMAP
3980
39C0
1000
0000
C030
E070
6060
70E0
30C0
3980
1980
1F00
0F00
0E00
0600
0600
0600
0600
0600
0600
ENDCHAR
STARTCHAR 0179
ENCODING 377
SWIDTH 630 0
DWIDTH 14 0
BBX 11 20 1 1
BITMAP
0380
0F00
0800
0000
7FE0
7FE0
00E0
00C0
01C0
0380
0300
0600
0E00
0C00
1800
3800
3000
6000
FFE0
FFE0
ENDCHAR
STARTCHAR 017A
ENCODING 378
SWIDTH 630 0
DWIDTH 14 0
BBX 9 18 2 0
BITMAP
0200
0F00
3800
0000
0000
0000
7F80
7F80
0380
0700
0600
0C00
1C00
3800
3000
6000
FF80
FF80
ENDCHAR
STARTCHAR 017B
ENCODING 379
SWIDTH 630 0
DWIDTH 14 0
BBX 11 20 1 1
BITMAP
0700
0700
0000
0000
7FE0
7FE0
00E0
00C0
01C0
0380
0300
0600
0E00
0C00
1800
3800
3000
6000
FFE0
FFE0
ENDCHAR
STARTCHAR 017C
ENCODING 380
SWIDTH 630 0
DWIDTH 14 0
BBX 9 18 2 0
BITMAP
0C00
0E00
0C00
0000
0000
0000
7F80
7F80
0380
0700
0600
0C00
1C00
3800
3000
6000
FF80
FF80
ENDCHAR
STARTCHAR 017D
ENCODING 381
SWIDTH 630 0
DWIDTH 14 0
BBX 11 21 1 0
BITMAP
1000
19C0
0F80
0600
0000
7FE0
7FE0
00E0
00C0
01C0
0380
0300
0600
0E00
0C00
1800
3800
3000
6000
FFE0
FFE0
ENDCHAR
STARTCHAR 017E
ENCODING 382
SWIDTH 630 0
DWIDTH 14 0
BBX 9 18 2 0
BITMAP
2100
3300
1E00
0C00
0000
0000
7F80
7F80
0380
0700
0600
0C00
1C00
3800
3000
6000
FF80
FF80
ENDCHAR
STARTCHAR 0192
ENCODING 402
SWIDTH 630 0
DWIDTH 14 0
BBX 9 22 2 -5
BITMAP
0F80
1F80
1800
1800
1800
7F00
7E00
1800
1800
1800
1800
1800
1800
1800
1800
1800
1800
1800
3800
3000
E000
4000
ENDCHAR
STARTCHAR 01FC
ENCODING 508
SWIDTH 630 0
DWIDTH 14 0
BBX 14 21 0 0
BITMAP
0040
00E0
03C0
0200
0000
0FF8
0FF8
0B00
1B00
1B00
1B00
3300
31F8
31F8
3180
7F80
7F80
60C0
E0C0
C0FC
C0FC
ENDCHAR
STARTCHAR 01FD
ENCODING 509
SWIDTH 630 0
DWIDTH 14 0
BBX 14 18 0 0
BITMAP
0080
03C0
0E00
0000
0000
0000
7CF0
6FB8
0318
030C
030C
7FFC
E3FC
C300
C300
C700
EDD8
7CF8
ENDCHAR
STARTCHAR 01FE
ENCODING 510
SWIDTH 630 0
DWIDTH 14 0
BBX 12 23 1 -3
BITMAP
0100
0700
1E00
00C0
0180
0F80
3FC0
71C0
6360
E360
E260
C270
C670
C470
C470
CC70
EC60
6860
68E0
3FC0
1F80
3000
3000
ENDCHAR
STARTCHAR 01FF
ENCODING 511
SWIDTH 630 0
DWIDTH 14 0
BBX 10 21 2 -3
BITMAP
0600
0F00
3800
0100
0300
0300
3F00
7780
E780
C4C0
C4C0
CCC0
C8C0
C8C0
D9C0
F180
7780
3F00
3000
6000
6000
ENDCHAR
STARTCHAR 0218
ENCODING 536
SWIDTH 630 0
DWIDTH 14 0
BBX 11 23 1 -7
BITMAP
1F80
3FE0
7040
6000
6000
7000
7C00
1F80
07C0
00E0
0060
0060
0060
40E0
FFC0
3F80
0000
0000
0600
0600
0600
0400
0C00
ENDCHAR
STARTCHAR 0219
ENCODING 537
SWIDTH 630 0
DWIDTH 14 0
BBX 10 19 2 -7
BITMAP
3F00
7380
E000
E000
7000
3E00
0F80
0180
01C0
0180
F780
7F00
0000
0000
0C00
0C00
0C00
0800
1800
ENDCHAR
STARTCHAR 021A
ENCODING 538
SWIDTH 630 0
DWIDTH 14 0
BBX 12 23 1 -7
BITMAP
FFF0
FFF0
0600
0600
0600
0600
0600
0600
0600
0600
0600
0600
0600
0600
0600
0600
0000
0000
0600
0600
0600
0400
0C00
ENDCHAR
STARTCHAR 021B
ENCODING 539
SWIDTH 630 0
DWIDTH 14 0
BBX 10 22 2 -7
BITMAP
3800
3800
3800
FF80
FF80
3800
3800
3800
3800
3800
3800
3800
1800
1F80
0FC0
0000
0000
0700
0700
0200
0600
0400
ENDCHAR
STARTCHAR 0237
ENCODING 567
SWIDTH 630 0
DWIDTH 14 0
BBX 8 17 2 -5
BITMAP
7F
7F
03
03
03
03
03
03
03
03
03
03
07
0E
1C
F8
C0
ENDCHAR
STARTCHAR 02B9
ENCODING 697
SWIDTH 630 0
DWIDTH 14 0
BBX 4 6 5 10
BITMAP
30
60
60
60
C0
C0
ENDCHAR
STARTCHAR 02BA
ENCODING 698
SWIDTH 630 0
DWIDTH 14 0
BBX 8 6 3 10
BITMAP
37
36
66
6C
4C
C8
ENDCHAR
STARTCHAR 02BC
ENCODING 700
SWIDTH 630 0
DWIDTH 14 0
BBX 3 5 5 12
BITMAP
60
E0
60
40
C0
ENDCHAR
STARTCHAR 02C6
ENCODING 710
SWIDTH 630 0
DWIDTH 14 0
BBX 7 4 3 14
BITMAP
38
7C
E6
02
ENDCHAR
STARTCHAR 02C7
ENCODING 711
SWIDTH 630 0
DWIDTH 14 0
BBX 7 4 3 14
BITMAP
C2
66
3C
18
ENDCHAR
STARTCHAR 02C9
ENCODING 713
SWIDTH 630 0
DWIDTH 14 0
BBX 6 1 4 16
BITMAP
FC
ENDCHAR
STARTCHAR 02D8
ENCODING 728
SWIDTH 630 0
DWIDTH 14 0
BBX 7 4 3 14
BITMAP
C2
46
7C
18
ENDCHAR
STARTCHAR 02D9
ENCODING 729
SWIDTH 630 0
DWIDTH 14 0
BBX 3 3 5 15
BITMAP
60
E0
60
ENDCHAR
STARTCHAR 02DA
ENCODING 730
SWIDTH 630 0
DWIDTH 14 0
BBX 5 5 4 14
BITMAP
70
C8
C8
C8
70
ENDCHAR
STARTCHAR 02DB
ENCODING 731
SWIDTH 630 0
DWIDTH 14 0
BBX 4 6 5 -5
BITMAP
10
60
C0
80
C0
F0
ENDCHAR
STARTCHAR 02DC
ENCODING 732
SWIDTH 630 0
DWIDTH 14 0
BBX 7 3 3 15
BITMAP
20
FE
CE
ENDCHAR
STARTCHAR 02DD
ENCODING 733
SWIDTH 630 0
DWIDTH 14 0
BBX 7 4 3 14
BITMAP
22
66
64
CC
ENDCHAR
STARTCHAR 0300
ENCODING 768
SWIDTH 630 0
DWIDTH 14 0
BBX 6 3 -10 15
BITMAP
60
F0
1C
ENDCHAR
STARTCHAR 0301
ENCODING 769
SWIDTH 630 0
DWIDTH 14 0
BBX 5 3 -9 15
BITMAP
10
78
E0
ENDCHAR
STARTCHAR 0302
ENCODING 770
SWIDTH 630 0
DWIDTH 14 0
BBX 8 3 -11 14
BITMAP
1C
7E
E3
ENDCHAR
STARTCHAR 0303
ENCODING 771
SWIDTH 630 0
DWIDTH 14 0
BBX 7 3 -10 15
BITMAP
60
FE
9C
ENDCHAR
STARTCHAR 0304
ENCODING 772
SWIDTH 630 0
DWIDTH 14 0
BBX 6 2 -10 14
BITMAP
FC
FC
ENDCHAR
STARTCHAR 0305
ENCODING 773
SWIDTH 630 0
DWIDTH 14 0
BBX 10 2 -12 14
BITMAP
FFC0
FFC0
ENDCHAR
STARTCHAR 0306
ENCODING 774
SWIDTH 630 0
DWIDTH 14 0
BBX 6 3 -10 14
BITMAP
C4
FC
30
ENDCHAR
STARTCHAR 0307
ENCODING 775
SWIDTH 630 0
DWIDTH 14 0
BBX 3 3 -8 14
BITMAP
40
E0
E0
ENDCHAR
STARTCHAR 0308
ENCODING 776
SWIDTH 630 0
DWIDTH 14 0
BBX 8 2 -11 15
BITMAP
E7
67
ENDCHAR
STARTCHAR 030A
ENCODING 778
SWIDTH 630 0
DWIDTH 14 0
BBX 5 5 -9 13
BITMAP
60
D0
98
98
F0
ENDCHAR
STARTCHAR 030B
ENCODING 779
SWIDTH 630 0
DWIDTH 14 0
BBX 7 5 -10 13
BITMAP
44
6E
CC
98
88
ENDCHAR
STARTCHAR 030C
ENCODING 780
SWIDTH 630 0
DWIDTH 14 0
BBX 7 4 -10 13
BITMAP
80
CE
78
30
ENDCHAR
STARTCHAR 030F
ENCODING 783
SWIDTH 630 0
DWIDTH 14 0
BBX 7 4 -10 14
BITMAP
88
CC
4C
66
ENDCHAR
STARTCHAR 0313
ENCODING 787
SWIDTH 630 0
DWIDTH 14 0
BBX 2 5 -8 13
BITMAP
C0
C0
C0
80
80
ENDCHAR
STARTCHAR 0314
ENCODING 788
SWIDTH 630 0
DWIDTH 14 0
BBX 2 5 -8 13
BITMAP
40
40
C0
C0
C0
ENDCHAR
STARTCHAR 0326
ENCODING 806
SWIDTH 630 0
DWIDTH 14 0
BBX 2 5 -8 -7
BITMAP
C0
C0
C0
C0
80
ENDCHAR
STARTCHAR 0327
ENCODING 807
SWIDTH 630 0
DWIDTH 14 0
BBX 5 6 -9 -6
BITMAP
60
60
78
18
F8
E0
ENDCHAR
STARTCHAR 0335
ENCODING 821
SWIDTH 630 0
DWIDTH 14 0
BBX 8 2 -11 6
BITMAP
FF
FF
ENDCHAR
STARTCHAR 0336
ENCODING 822
SWIDTH 630 0
DWIDTH 14 0
BBX 15 2 -14 6
BITMAP
FFFE
FFFE
ENDCHAR
STARTCHAR 0342
ENCODING 834
SWIDTH 630 0
DWIDTH 14 0
BBX 7 3 -10 15
BITMAP
60
FE
9C
ENDCHAR
STARTCHAR 0345
ENCODING 837
SWIDTH 630 0
DWIDTH 14 0
BBX 5 3 -9 -4
BITMAP
C0
C0
F8
ENDCHAR
STARTCHAR 0370
ENCODING 880
SWIDTH 630 0
DWIDTH 14 0
BBX 8 16 3 0
BITMAP
C0
C0
C0
C0
C0
C0
C0
FF
FF
C0
C0
C0
C0
C0
C0
C0
ENDCHAR
STARTCHAR 0371
ENCODING 881
SWIDTH 630 0
DWIDTH 14 0
BBX 9 12 3 0
BITMAP
C000
C000
C000
C000
C000
FF80
FF80
C000
C000
C000
C000
C000
ENDCHAR
STARTCHAR 0372
ENCODING 882
SWIDTH 630 0
DWIDTH 14 0
BBX 12 16 1 0
BITMAP
FFF0
FFF0
C630
C630
C630
C630
0600
0600
0600
0600
0600
0600
0600
0600
0600
0600
ENDCHAR
STARTCHAR 0373
ENCODING 883
SWIDTH 630 0
DWIDTH 14 0
BBX 13 17 0 -5
BITMAP
FFF8
7FF8
0300
0300
0300
0300
0300
0300
0300
0300
0300
0300
0300
0300
0300
0300
0300
ENDCHAR
STARTCHAR 0374
ENCODING 884
SWIDTH 630 0
DWIDTH 14 0
BBX 4 6 5 10
BITMAP
30
60
60
60
C0
C0
ENDCHAR
STARTCHAR 0375
ENCODING 885
SWIDTH 630 0
DWIDTH 14 0
BBX 4 6 5 -3
BITMAP
30
20
60
60
E0
C0
ENDCHAR
STARTCHAR 0376
ENCODING 886
SWIDTH 630 0
DWIDTH 14 0
BBX 10 16 2 0
BITMAP
C1C0
C1C0
C3C0
C3C0
C6C0
C6C0
C4C0
CCC0
CCC0
D8C0
D8C0
D0C0
F0C0
F0C0
E0C0
E0C0
ENDCHAR
STARTCHAR 0377
ENCODING 887
SWIDTH 630 0
DWIDTH 14 0
BBX 10 12 2 0
BITMAP
C180
C380
C380
C780
C780
CD80
C980
D980
F180
F180
E1C0
E0C0
ENDCHAR
STARTCHAR 037A
ENCODING 890
SWIDTH 630 0
DWIDTH 14 0
BBX 5 3 4 -4
BITMAP
C0
C8
78
ENDCHAR
STARTCHAR 037B
ENCODING 891
SWIDTH 630 0
DWIDTH 14 0
BBX 10 12 2 0
BITMAP
7E00
FF00
0380
0180
01C0
01C0
01C0
01C0
0180
0380
FF00
7E00
ENDCHAR
STARTCHAR 037C
ENCODING 892
SWIDTH 630 0
DWIDTH 14 0
BBX 10 12 2 0
BITMAP
1F80
3FC0
6000
E000
C000
C600
C600
C000
E000
6000
7FC0
1F80
ENDCHAR
STARTCHAR 037D
ENCODING 893
SWIDTH 630 0
DWIDTH 14 0
BBX 10 12 2 0
BITMAP
7E00
FF00
0380
0180
11C0
39C0
39C0
01C0
0180
0380
FF00
7E00
ENDCHAR
STARTCHAR 037E
ENCODING 894
SWIDTH 630 0
DWIDTH 14 0
BBX 4 16 5 -4
BITMAP
60
F0
F0
60
00
00
00
00
60
F0
F0
70
60
E0
C0
C0
ENDCHAR
STARTCHAR 037F
ENCODING 895
SWIDTH 630 0
DWIDTH 14 0
BBX 9 16 2 0
BITMAP
3F80
3F80
0180
0180
0180
0180
0180
0180
0180
0180
0180
0180
0180
8380
FF00
7E00
ENDCHAR
STARTCHAR 0384
ENCODING 900
SWIDTH 630 0
DWIDTH 14 0
BBX 3 4 5 15
BITMAP
60
60
40
C0
ENDCHAR
STARTCHAR 0385
ENCODING 901
SWIDTH 630 0
DWIDTH 14 0
BBX 8 7 3 14
BITMAP
0C
1C
18
18
C6
E7
46
ENDCHAR
STARTCHAR 0386
ENCODING 902
SWIDTH 630 0
DWIDTH 14 0
BBX 12 16 1 0
BITMAP
6E00
EF00
CF00
DB00
DB80
1980
3180
31C0
30C0
70C0
7FE0
7FE0
E060
C070
C070
C030
ENDCHAR
STARTCHAR 0387
ENCODING 903
SWIDTH 630 0
DWIDTH 14 0
BBX 4 4 5 6
BITMAP
60
F0
F0
F0
ENDCHAR
STARTCHAR 0388
ENCODING 904
SWIDTH 630 0
DWIDTH 14 0
BBX 13 16 -1 0
BITMAP
6FF8
6FF8
CC00
CC00
CC00
0C00
0C00
0FF0
0FF0
0C00
0C00
0C00
0C00
0C00
0FF8
0FF8
ENDCHAR
STARTCHAR 0389
ENCODING 905
SWIDTH 630 0
DWIDTH 14 0
BBX 14 16 -2 0
BITMAP
6C0C
6C0C
EC0C
CC0C
CC0C
0C0C
0C0C
0FFC
0FFC
0C0C
0C0C
0C0C
0C0C
0C0C
0C0C
0C0C
ENDCHAR
STARTCHAR 038A
ENCODING 906
SWIDTH 630 0
DWIDTH 14 0
BBX 13 16 -2 0
BITMAP
7FF8
6FF8
60C0
60C0
C0C0
00C0
00C0
00C0
00C0
00C0
00C0
00C0
00C0
00C0
0FF8
0FF8
ENDCHAR
STARTCHAR 038C
ENCODING 908
SWIDTH 630 0
DWIDTH 14 0
BBX 14 16 -1 0
BITMAP
63C0
EFF0
DC30
D818
F818
3818
301C
301C
301C
301C
301C
3818
1818
1C38
0FF0
07E0
ENDCHAR
STARTCHAR 038E
ENCODING 910
SWIDTH 630 0
DWIDTH 14 0
BBX 16 16 -3 0
BITMAP
6C03
EE07
C606
C70E
C30C
0398
0198
01F0
00F0
00E0
0060
0060
0060
0060
0060
0060
ENDCHAR
STARTCHAR 038F
ENCODING 911
SWIDTH 630 0
DWIDTH 14 0
BBX 14 16 -1 0
BITMAP
63C0
EFF0
DC30
D818
F818
3018
301C
301C
301C
301C
3818
1818
1838
0C30
3E78
3E78
ENDCHAR
STARTCHAR 0390
ENCODING 912
SWIDTH 630 0
DWIDTH 14 0
BBX 11 21 1 0
BITMAP
0700
0600
0600
0400
3180
3180
3180
0000
0000
FE00
FE00
0E00
0E00
0E00
0E00
0E00
0E00
0E00
0E00
07E0
07E0
ENDCHAR
STARTCHAR 0391
ENCODING 913
SWIDTH 630 0
DWIDTH 14 0
BBX 12 16 1 0
BITMAP
0E00
0F00
0F00
1B00
1B80
1980
3180
31C0
30C0
70C0
7FE0
7FE0
E060
C070
C070
C030
ENDCHAR
STARTCHAR 0392
ENCODING 914
SWIDTH 630 0
DWIDTH 14 0
BBX 10 16 2 0
BITMAP
FC00
FF80
C380
C1C0
C1C0
C1C0
C380
FE00
FF80
C1C0
C0C0
C0C0
C0C0
C1C0
FF80
FF00
ENDCHAR
STARTCHAR 0393
ENCODING 915
SWIDTH 630 0
DWIDTH 14 0
BBX 9 16 3 0
BITMAP
FF80
FF80
C000
C000
C000
C000
C000
C000
C000
C000
C000
C000
C000
C000
C000
C000
ENDCHAR
STARTCHAR 0394
ENCODING 916
SWIDTH 630 0
DWIDTH 14 0
BBX 12 16 1 0
BITMAP
0E00
0F00
0F00
1B00
1B80
1980
3180
31C0
30C0
70C0
60E0
6060
E060
C070
FFF0
FFF0
ENDCHAR
STARTCHAR 0395
ENCODING 917
SWIDTH 630 0
DWIDTH 14 0
BBX 9 16 3 0
BITMAP
FF80
FF80
C000
C000
C000
C000
C000
FF00
FF00
C000
C000
C000
C000
C000
FF80
FF80
ENDCHAR
STARTCHAR 0396
ENCODING 918
SWIDTH 630 0
DWIDTH 14 0
BBX 11 16 1 0
BITMAP
7FE0
7FE0
00E0
00C0
01C0
0380
0300
0600
0E00
0C00
1800
3800
3000
6000
FFE0
FFE0
ENDCHAR
STARTCHAR 0397
ENCODING 919
SWIDTH 630 0
DWIDTH 14 0
BBX 10 16 2 0
BITMAP
C0C0
C0C0
C0C0
C0C0
C0C0
C0C0
C0C0
FFC0
FFC0
C0C0
C0C0
C0C0
C0C0
C0C0
C0C0
C0C0
ENDCHAR
STARTCHAR 0398
ENCODING 920
SWIDTH 630 0
DWIDTH 14 0
BBX 12 16 1 0
BITMAP
0F00
3FC0
70C0
6060
E060
E060
C070
CF70
CF70
C070
C070
E060
6060
70E0
3FC0
1F80
ENDCHAR
STARTCHAR 0399
ENCODING 921
SWIDTH 630 0
DWIDTH 14 0
BBX 9 16 2 0
BITMAP
FF80
FF80
0C00
0C00
0C00
0C00
0C00
0C00
0C00
0C00
0C00
0C00
0C00
0C00
FF80
FF80
ENDCHAR
STARTCHAR 039A
ENCODING 922
SWIDTH 630 0
DWIDTH 14 0
BBX 11 16 2 0
BITMAP
C0E0
C0C0
C180
C300
C700
CE00
DC00
D800
DC00
CE00
C600
C700
C380
C1C0
C0C0
C0E0
ENDCHAR
STARTCHAR 039B
ENCODING 923
SWIDTH 630 0
DWIDTH 14 0
BBX 12 16 1 0
BITMAP
0E00
0F00
0F00
1B00
1B80
1980
3980
31C0
30C0
70C0
60C0
6060
6060
C060
C070
C030
ENDCHAR
STARTCHAR 039C
ENCODING 924
SWIDTH 630 0
DWIDTH 14 0
BBX 12 16 1 0
BITMAP
60E0
F0E0
F0E0
F1E0
D1E0
D9E0
D960
D970
CB70
CF30
CF30
CE30
C630
C030
C030
C030
ENDCHAR
STARTCHAR 039D
ENCODING 925
SWIDTH 630 0
DWIDTH 14 0
BBX 10 16 2 0
BITMAP
E0C0
E0C0
F0C0
F0C0
F0C0
D8C0
D8C0
CCC0
CCC0
CCC0
C6C0
C6C0
C7C0
C3C0
C3C0
C1C0
ENDCHAR
STARTCHAR 039E
ENCODING 926
SWIDTH 630 0
DWIDTH 14 0
BBX 10 16 2 0
BITMAP
FFC0
FFC0
0000
0000
0000
0000
0000
7F80
7F80
0000
0000
0000
0000
0000
FFC0
FFC0
ENDCHAR
STARTCHAR 039F
ENCODING 927
SWIDTH 630 0
DWIDTH 14 0
BBX 12 16 1 0
BITMAP
0F00
3FC0
70C0
6060
E060
E060
C070
C070
C070
C070
C070
E060
6060
70E0
3FC0
1F80
ENDCHAR
STARTCHAR 03A0
ENCODING 928
SWIDTH 630 0
DWIDTH 14 0
BBX 10 16 2 0
BITMAP
FFC0
FFC0
C0C0
C0C0
C0C0
C0C0
C0C0
C0C0
C0C0
C0C0
C0C0
C0C0
C0C0
C0C0
C0C0
C0C0
ENDCHAR
STARTCHAR 03A1
ENCODING 929
SWIDTH 630 0
DWIDTH 14 0
BBX 11 16 2 0
BITMAP
FE00
FF80
E1C0
E0E0
E0E0
E0E0
E0E0
E0C0
E7C0
FF00
E000
E000
E000
E000
E000
E000
ENDCHAR
STARTCHAR 03A3
ENCODING 931
SWIDTH 630 0
DWIDTH 14 0
BBX 10 16 2 0
BITMAP
FFC0
FFC0
E000
6000
3000
1800
0C00
0600
0600
0E00
1C00
3800
7000
E000
FFC0
FFC0
ENDCHAR
STARTCHAR 03A4
ENCODING 932
SWIDTH 630 0
DWIDTH 14 0
BBX 12 16 1 0
BITMAP
FFF0
FFF0
0600
0600
0600
0600
0600
0600
0600
0600
0600
0600
0600
0600
0600
0600
ENDCHAR
STARTCHAR 03A5
ENCODING 933
SWIDTH 630 0
DWIDTH 14 0
BBX 12 16 1 0
BITMAP
C030
E070
6060
70E0
30C0
3980
1980
1F00
0F00
0E00
0600
0600
0600
0600
0600
0600
ENDCHAR
STARTCHAR 03A6
ENCODING 934
SWIDTH 630 0
DWIDTH 14 0
BBX 13 16 0 0
BITMAP
0300
0300
0FC0
3FF0
6338
6318
E318
C318
C318
E318
6318
6338
3B70
1FE0
0300
0300
ENDCHAR
STARTCHAR 03A7
ENCODING 935
SWIDTH 630 0
DWIDTH 14 0
BBX 12 16 1 0
BITMAP
E060
60E0
70C0
31C0
1980
1B00
0F00
0E00
0F00
1F00
1980
3180
30C0
60E0
E060
C070
ENDCHAR
STARTCHAR 03A8
ENCODING 936
SWIDTH 630 0
DWIDTH 14 0
BBX 13 16 0 0
BITMAP
C318
C318
C318
C318
C318
C318
C318
E318
6318
7370
3FE0
0780
0300
0300
0300
0300
ENDCHAR
STARTCHAR 03A9
ENCODING 937
SWIDTH 630 0
DWIDTH 14 0
BBX 12 16 1 0
BITMAP
0F00
3FC0
70C0
6060
E060
C060
C070
C070
C070
C070
E060
6060
60E0
30C0
F9E0
F9E0
ENDCHAR
STARTCHAR 03AA
ENCODING 938
SWIDTH 630 0
DWIDTH 14 0
BBX 9 20 2 0
BITMAP
7300
7380
2000
0000
FF80
FF80
0C00
0C00
0C00
0C00
0C00
0C00
0C00
0C00
0C00
0C00
0C00
0C00
FF80
FF80
ENDCHAR
STARTCHAR 03AB
ENCODING 939
SWIDTH 630 0
DWIDTH 14 0
BBX 12 20 1 0
BITMAP
3980
39C0
1000
0000
C030
E070
6060
70E0
30C0
3980
1980
1F00
0F00
0E00
0600
0600
0600
0600
0600
0600
ENDCHAR
STARTCHAR 03AC
ENCODING 940
SWIDTH 630 0
DWIDTH 14 0
BBX 11 19 1 0
BITMAP
0400
0600
0600
0600
0400
0000
0000
3E60
7360
6160
61C0
E0C0
E0C0
E0C0
E0C0
E1C0
61C0
7760
3E60
ENDCHAR
STARTCHAR 03AD
ENCODING 941
SWIDTH 630 0
DWIDTH 14 0
BBX 10 19 2 0
BITMAP
0400
0600
0600
0600
0400
0000
0000
3F80
7180
E000
E000
6000
1E00
7E00
C000
C000
C040
FBC0
3F80
ENDCHAR
STARTCHAR 03AE
ENCODING 942
SWIDTH 630 0
DWIDTH 14 0
BBX 10 23 2 -4
BITMAP
0600
0600
0C00
0C00
0000
0000
DF80
FB80
E180
C1C0
C1C0
C1C0
C1C0
C1C0
C1C0
C1C0
C1C0
C1C0
01C0
01C0
01C0
01C0
01C0
ENDCHAR
STARTCHAR 03AF
ENCODING 943
SWIDTH 630 0
DWIDTH 14 0
BBX 11 18 1 1
BITMAP
0700
0600
0600
0600
0000
0000
FE00
FE00
0E00
0E00
0E00
0E00
0E00
0E00
0E00
0E00
07E0
07E0
ENDCHAR
STARTCHAR 03B0
ENCODING 944
SWIDTH 630 0
DWIDTH 14 0
BBX 10 21 2 0
BITMAP
0600
0E00
0C00
0C00
6300
7380
2300
0000
0000
C1C0
C0C0
C0C0
C0C0
C0C0
C0C0
C0C0
C0C0
C1C0
E180
7780
3E00
ENDCHAR
STARTCHAR 03B1
ENCODING 945
SWIDTH 630 0
DWIDTH 14 0
BBX 11 12 1 0
BITMAP
3E60
7360
6160
61C0
E0C0
E0C0
E0C0
E0C0
E1C0
61C0
7760
3E60
ENDCHAR
STARTCHAR 03B2
ENCODING 946
SWIDTH 630 0
DWIDTH 14 0
BBX 11 22 2 -5
BITMAP
3E00
7F00
E180
C180
C180
C180
C300
DE00
DF00
C1C0
C0C0
C0C0
C0E0
C0C0
C0C0
F380
DF00
C000
C000
C000
C000
C000
ENDCHAR
STARTCHAR 03B3
ENCODING 947
SWIDTH 630 0
DWIDTH 14 0
BBX 12 17 1 -5
BITMAP
E070
6060
7060
30C0
38C0
19C0
1980
0980
0F00
0F00
0E00
0600
0E00
0C00
0C00
0C00
0600
ENDCHAR
STARTCHAR 03B4
ENCODING 948
SWIDTH 630 0
DWIDTH 14 0
BBX 11 17 1 0
BITMAP
1F80
3FC0
3000
3000
3800
1E00
1F80
31C0
70E0
6060
6060
E060
6060
6060
70E0
3BC0
1F80
ENDCHAR
STARTCHAR 03B5
ENCODING 949
SWIDTH 630 0
DWIDTH 14 0
BBX 10 12 2 0
BITMAP
3F80
7180
E000
E000
6000
1E00
7E00
C000
C000
C040
FBC0
3F80
ENDCHAR
STARTCHAR 03B6
ENCODING 950
SWIDTH 630 0
DWIDTH 14 0
BBX 10 22 2 -5
BITMAP
3FC0
7FC0
0180
0300
0E00
1C00
3800
3000
7000
6000
E000
E000
6000
7000
3800
1F00
07C0
01C0
00C0
01C0
0380
0300
ENDCHAR
STARTCHAR 03B7
ENCODING 951
SWIDTH 630 0
DWIDTH 14 0
BBX 10 17 2 -5
BITMAP
DF80
FB80
E180
C1C0
C1C0
C1C0
C1C0
C1C0
C1C0
C1C0
C1C0
C1C0
01C0
01C0
01C0
01C0
01C0
ENDCHAR
STARTCHAR 03B8
ENCODING 952
SWIDTH 630 0
DWIDTH 14 0
BBX 10 17 2 0
BITMAP
1E00
7F00
6180
C180
C0C0
C0C0
C0C0
C0C0
FFC0
C0C0
C0C0
C0C0
C0C0
C180
6180
7700
3E00
ENDCHAR
STARTCHAR 03B9
ENCODING 953
SWIDTH 630 0
DWIDTH 14 0
BBX 11 12 1 0
BITMAP
FE00
FE00
0E00
0E00
0E00
0E00
0E00
0E00
0E00
0E00
07E0
07E0
ENDCHAR
STARTCHAR 03BA
ENCODING 954
SWIDTH 630 0
DWIDTH 14 0
BBX 11 12 2 0
BITMAP
C0C0
C180
C300
E600
EC00
F800
EC00
EE00
E700
E380
E1E0
E0C0
ENDCHAR
STARTCHAR 03BB
ENCODING 955
SWIDTH 630 0
DWIDTH 14 0
BBX 12 17 1 0
BITMAP
7000
7C00
0C00
0600
0600
0F00
0F00
1B00
1B00
1B80
3180
3180
31C0
60C0
60C0
60E0
C070
ENDCHAR
STARTCHAR 03BC
ENCODING 956
SWIDTH 630 0
DWIDTH 14 0
BBX 10 17 2 -5
BITMAP
C180
C180
C180
C180
C180
C180
C180
C180
C180
C380
FF80
FDC0
C000
C000
C000
C000
C000
ENDCHAR
STARTCHAR 03BD
ENCODING 957
SWIDTH 630 0
DWIDTH 14 0
BBX 11 12 1 0
BITMAP
C060
E060
60E0
30C0
30C0
3980
1980
1980
1B00
0F00
0E00
0E00
ENDCHAR
STARTCHAR 03BE
ENCODING 958
SWIDTH 630 0
DWIDTH 14 0
BBX 10 22 2 -5
BITMAP
1F80
3FC0
7000
6000
6000
3000
1F80
3F00
7000
E000
E000
E000
E000
7000
3C00
1F80
03C0
00C0
00C0
00C0
0380
0300
ENDCHAR
STARTCHAR 03BF
ENCODING 959
SWIDTH 630 0
DWIDTH 14 0
BBX 10 12 2 0
BITMAP
3F00
7780
E180
C1C0
C0C0
C0C0
C0C0
C0C0
C1C0
E180
7780
3F00
ENDCHAR
STARTCHAR 03C0
ENCODING 960
SWIDTH 630 0
DWIDTH 14 0
BBX 13 12 0 0
BITMAP
FFF8
FFF8
1860
1860
1860
1860
1860
1860
1860
1860
1870
1830
ENDCHAR
STARTCHAR 03C1
ENCODING 961
SWIDTH 630 0
DWIDTH 14 0
BBX 10 17 2 -5
BITMAP
3F00
7380
61C0
C1C0
C0C0
C0C0
C0C0
C0C0
C1C0
E180
F780
DF00
C000
C000
C000
C000
C000
ENDCHAR
STARTCHAR 03C2
ENCODING 962
SWIDTH 630 0
DWIDTH 14 0
BBX 10 17 2 -5
BITMAP
1F80
3FC0
7000
6000
E000
E000
E000
E000
7000
7C00
1F00
0780
01C0
01C0
0180
0780
0200
ENDCHAR
STARTCHAR 03C3
ENCODING 963
SWIDTH 630 0
DWIDTH 14 0
BBX 11 12 2 0
BITMAP
3FE0
7BE0
E180
C1C0
C0C0
C0C0
C0C0
C0C0
C1C0
E180
7780
3F00
ENDCHAR
STARTCHAR 03C4
ENCODING 964
SWIDTH 630 0
DWIDTH 14 0
BBX 11 12 1 0
BITMAP
FFE0
FFE0
0C00
0C00
0C00
0C00
0C00
0C00
0C00
0C00
0FC0
07E0
ENDCHAR
STARTCHAR 03C5
ENCODING 965
SWIDTH 630 0
DWIDTH 14 0
BBX 10 12 2 0
BITMAP
C1C0
C0C0
C0C0
C0C0
C0C0
C0C0
C0C0
C0C0
C1C0
E180
7780
3E00
ENDCHAR
STARTCHAR 03C6
ENCODING 966
SWIDTH 630 0
DWIDTH 14 0
BBX 12 17 1 -5
BITMAP
63C0
E660
C630
C630
C630
C630
C630
C630
C670
E660
77E0
3F80
0600
0600
0600
0600
0600
ENDCHAR
STARTCHAR 03C7
ENCODING 967
SWIDTH 630 0
DWIDTH 14 0
BBX 11 17 1 -5
BITMAP
E060
70E0
30C0
3980
1980
0F00
0F00
0600
0F00
0F00
1B80
1980
31C0
30C0
70E0
6060
E060
ENDCHAR
STARTCHAR 03C8
ENCODING 968
SWIDTH 630 0
DWIDTH 14 0
BBX 12 17 1 -5
BITMAP
C660
C630
C630
C630
C630
C630
C630
C630
C630
E660
7FE0
3F80
0600
0600
0600
0600
0600
ENDCHAR
STARTCHAR 03C9
ENCODING 969
SWIDTH 630 0
DWIDTH 14 0
BBX 12 12 1 0
BITMAP
4060
C060
C030
C030
C630
C630
C630
C630
C630
C630
EF60
79E0
ENDCHAR
STARTCHAR 03CA
ENCODING 970
SWIDTH 630 0
DWIDTH 14 0
BBX 11 17 1 0
BITMAP
3180
3180
0000
0000
0000
FE00
FE00
0E00
0E00
0E00
0E00
0E00
0E00
0E00
0E00
07E0
07E0
ENDCHAR
STARTCHAR 03CB
ENCODING 971
SWIDTH 630 0
DWIDTH 14 0
BBX 10 17 2 0
BITMAP
7300
7300
0000
0000
0000
C1C0
C0C0
C0C0
C0C0
C0C0
C0C0
C0C0
C0C0
C1C0
E180
7780
3E00
ENDCHAR
STARTCHAR 03CC
ENCODING 972
SWIDTH 630 0
DWIDTH 14 0
BBX 10 18 2 1
BITMAP
0600
0600
0C00
0C00
0000
0000
3F00
7780
E180
C1C0
C0C0
C0C0
C0C0
C0C0
C1C0
E180
7780
3F00
ENDCHAR
STARTCHAR 03CD
ENCODING 973
SWIDTH 630 0
DWIDTH 14 0
BBX 10 18 2 1
BITMAP
0600
0600
0C00
0C00
0000
0000
C1C0
C0C0
C0C0
C0C0
C0C0
C0C0
C0C0
C0C0
C1C0
E180
7780
3E00
ENDCHAR
STARTCHAR 03CE
ENCODING 974
SWIDTH 630 0
DWIDTH 14 0
BBX 12 18 1 1
BITMAP
0300
0300
0600
0600
0000
0000
4060
C060
C030
C030
C630
C630
C630
C630
C630
C630
EF60
79E0
ENDCHAR
STARTCHAR 03CF
ENCODING 975
SWIDTH 630 0
DWIDTH 14 0
BBX 11 21 2 -5
BITMAP
C0C0
C1C0
C380
C700
C600
CE00
DC00
D800
DC00
CC00
CE00
C700
C300
C380
C1E0
C0E0
0060
0060
0060
07E0
0380
ENDCHAR
STARTCHAR 03D0
ENCODING 976
SWIDTH 630 0
DWIDTH 14 0
BBX 10 17 2 0
BITMAP
1F00
3F80
7180
6180
E180
C300
CE00
FF00
F380
C1C0
C0C0
C0C0
C0C0
C1C0
6180
7780
3F00
ENDCHAR
STARTCHAR 03D1
ENCODING 977
SWIDTH 630 0
DWIDTH 14 0
BBX 10 17 2 0
BITMAP
3C00
FF00
C300
C380
C180
E180
7FC0
3FC0
0180
C180
C180
C180
C180
C380
E300
7700
3E00
ENDCHAR
STARTCHAR 03D2
ENCODING 978
SWIDTH 630 0
DWIDTH 14 0
BBX 13 16 1 0
BITMAP
C038
E070
60C0
70C0
3180
3980
1B00
1F00
0F00
0E00
0600
0600
0600
0600
0600
0600
ENDCHAR
STARTCHAR 03D3
ENCODING 979
SWIDTH 630 0
DWIDTH 14 0
BBX 17 16 -3 0
BITMAP
6C0380
6E0700
E60C00
C70C00
C31800
039800
01B000
01F000
00F000
00E000
006000
006000
006000
006000
006000
006000
ENDCHAR
STARTCHAR 03D4
ENCODING 980
SWIDTH 630 0
DWIDTH 14 0
BBX 13 20 1 0
BITMAP
3980
39C0
1000
0000
C038
E070
60C0
70C0
3180
3980
1B00
1F00
0F00
0E00
0600
0600
0600
0600
0600
0600
ENDCHAR
STARTCHAR 03D5
ENCODING 981
SWIDTH 630 0
DWIDTH 14 0
BBX 12 22 1 -5
BITMAP
0600
0600
0600
0600
0600
1F80
7FC0
6660
C660
C670
C630
C630
C670
C660
6660
7FC0
1F80
0600
0600
0600
0600
0600
ENDCHAR
STARTCHAR 03D6
ENCODING 982
SWIDTH 630 0
DWIDTH 14 0
BBX 13 12 0 0
BITMAP
FFF8
FFF8
2010
6018
6318
6318
6318
6318
6318
6318
37B0
3CF0
ENDCHAR
STARTCHAR 03D7
ENCODING 983
SWIDTH 630 0
DWIDTH 14 0
BBX 10 17 2 -5
BITMAP
C180
C380
E380
E680
E780
CD80
CD80
D980
D980
F180
F1C0
E0C0
00C0
00C0
00C0
0FC0
0780
ENDCHAR
STARTCHAR 03D8
ENCODING 984
SWIDTH 630 0
DWIDTH 14 0
BBX 12 21 1 -5
BITMAP
0F00
3FC0
70C0
6060
E060
E060
C070
C070
C070
C070
C070
E060
6060
70E0
3FC0
1F80
0600
0600
0600
0600
0600
ENDCHAR
STARTCHAR 03D9
ENCODING 985
SWIDTH 630 0
DWIDTH 14 0
BBX 10 17 2 -5
BITMAP
3F00
7780
E180
C1C0
C0C0
C0C0
C0C0
C0C0
C1C0
E180
7780
3F00
0C00
0C00
0C00
0C00
0C00
ENDCHAR
STARTCHAR 03DA
ENCODING 986
SWIDTH 630 0
DWIDTH 14 0
BBX 11 21 2 -5
BITMAP
07E0
1FC0
7800
6000
E000
C000
C000
C000
C000
C000
C000
E000
7000
3C00
0F00
0380
01C0
00C0
0180
0780
0200
ENDCHAR
STARTCHAR 03DB
ENCODING 987
SWIDTH 630 0
DWIDTH 14 0
BBX 9 18 2 -5
BITMAP
0180
0380
1F80
7E00
E000
C000
C000
C000
C000
E000
7800
3E00
0F80
0180
0180
0180
0700
0200
ENDCHAR
STARTCHAR 03DC
ENCODING 988
SWIDTH 630 0
DWIDTH 14 0
BBX 9 16 3 0
BITMAP
FF80
FF80
C000
C000
C000
C000
C000
FE00
FE00
C000
C000
C000
C000
C000
C000
C000
ENDCHAR
STARTCHAR 03DD
ENCODING 989
SWIDTH 630 0
DWIDTH 14 0
BBX 9 17 3 -5
BITMAP
7F80
FF80
C000
C000
C000
C000
C000
FF00
C100
C000
C000
C000
C000
C000
C000
C000
C000
ENDCHAR
STARTCHAR 03DE
ENCODING 990
SWIDTH 630 0
DWIDTH 14 0
BBX 10 16 2 0
BITMAP
0E00
0C00
1800
3800
7000
6000
C000
FFC0
FFC0
01C0
0180
0300
0700
0E00
0C00
1800
ENDCHAR
STARTCHAR 03DF
ENCODING 991
SWIDTH 630 0
DWIDTH 14 0
BBX 10 17 2 0
BITMAP
0C00
1C00
1800
1800
3000
3000
6080
67C0
FFC0
F980
8380
0300
0700
0600
0E00
0C00
0C00
ENDCHAR
STARTCHAR 03E0
ENCODING 992
SWIDTH 630 0
DWIDTH 14 0
BBX 12 16 1 0
BITMAP
0C00
0600
0600
0E00
0F00
0F00
1980
1980
3380
33C0
32C0
66C0
6660
E460
CC70
CC30
ENDCHAR
STARTCHAR 03E1
ENCODING 993
SWIDTH 630 0
DWIDTH 14 0
BBX 11 22 1 -5
BITMAP
4000
7000
3800
0E00
0700
0700
0780
0D80
0CC0
18C0
19C0
31E0
3360
6360
6660
C660
C460
0060
0060
00C0
00C0
00C0
ENDCHAR
STARTCHAR 03F0
ENCODING 1008
SWIDTH 630 0
DWIDTH 14 0
BBX 10 12 2 0
BITMAP
C180
C380
E380
E680
E780
CD80
CD80
D980
D980
F180
E1C0
E0C0
ENDCHAR
STARTCHAR 03F1
ENCODING 1009
SWIDTH 630 0
DWIDTH 14 0
BBX 10 17 2 -5
BITMAP
3F00
7380
61C0
C1C0
C0C0
C0C0
C0C0
C1C0
C180
F380
DF00
C000
C000
E000
7E00
1F00
0300
ENDCHAR
STARTCHAR 03F2
ENCODING 1010
SWIDTH 630 0
DWIDTH 14 0
BBX 10 12 2 0
BITMAP
1F80
3FC0
6000
E000
C000
C000
C000
C000
E000
6000
7FC0
1F80
ENDCHAR
STARTCHAR 03F3
ENCODING 1011
SWIDTH 630 0
DWIDTH 14 0
BBX 8 23 2 -5
BITMAP
06
07
07
00
00
00
7F
7F
03
03
03
03
03
03
03
03
03
03
07
0E
1C
F8
C0
ENDCHAR
STARTCHAR 03F4
ENCODING 1012
SWIDTH 630 0
DWIDTH 14 0
BBX 12 16 1 0
BITMAP
0F00
3FC0
70C0
6060
E060
E060
C070
CF70
CF70
C070
C070
E060
6060
70E0
3FC0
1F80
ENDCHAR
STARTCHAR 03F5
ENCODING 1013
SWIDTH 630 0
DWIDTH 14 0
BBX 10 12 2 0
BITMAP
1F80
39C0
6000
E000
C000
FF00
FF00
C000
E000
6000
7BC0
1F80
ENDCHAR
STARTCHAR 03F6
ENCODING 1014
SWIDTH 630 0
DWIDTH 14 0
BBX 10 12 2 0
BITMAP
7E00
E780
0180
01C0
00C0
3FC0
3FC0
01C0
0180
0180
F700
7E00
ENDCHAR
STARTCHAR 03F7
ENCODING 1015
SWIDTH 630 0
DWIDTH 14 0
BBX 11 16 2 0
BITMAP
E000
E000
E000
FF00
FFC0
E1C0
E0E0
E0E0
E0E0
E0E0
E0C0
FF80
FF00
E000
E000
E000
ENDCHAR
STARTCHAR 03F8
ENCODING 1016
SWIDTH 630 0
DWIDTH 14 0
BBX 10 22 2 -5
BITMAP
C000
C000
C000
C000
C000
DF00
FB80
E1C0
C0C0
C0C0
C0C0
C0C0
C0C0
C1C0
E180
FF80
DF00
C000
C000
C000
C000
C000
ENDCHAR
STARTCHAR 03F9
ENCODING 1017
SWIDTH 630 0
DWIDTH 14 0
BBX 12 16 1 0
BITMAP
07C0
1FF0
3820
7000
6000
6000
E000
E000
E000
E000
6000
6000
7000
3820
1FF0
0FE0
ENDCHAR
STARTCHAR 03FA
ENCODING 1018
SWIDTH 630 0
DWIDTH 14 0
BBX 12 16 1 0
BITMAP
60E0
F0E0
F0E0
F1E0
D1E0
D9E0
D960
D970
CB70
CF30
CF30
CE30
C630
C030
C030
C030
ENDCHAR
STARTCHAR 03FB
ENCODING 1019
SWIDTH 630 0
DWIDTH 14 0
BBX 13 17 0 -5
BITMAP
3870
3870
28F0
28F0
6CB0
6CB0
65B0
65B0
6738
6718
6318
6018
6000
6000
6000
E000
C000
ENDCHAR
STARTCHAR 03FC
ENCODING 1020
SWIDTH 630 0
DWIDTH 14 0
BBX 12 17 1 -5
BITMAP
0FC0
1DE0
3860
3070
3070
3070
3070
3070
3060
3060
3DE0
37C0
3000
FF00
FF00
3000
3000
ENDCHAR
STARTCHAR 03FD
ENCODING 1021
SWIDTH 630 0
DWIDTH 14 0
BBX 11 16 1 0
BITMAP
3E00
FF80
41C0
00C0
00E0
0060
0060
0060
0060
0060
0060
00E0
00C0
81C0
FF80
7F00
ENDCHAR
STARTCHAR 03FE
ENCODING 1022
SWIDTH 630 0
DWIDTH 14 0
BBX 12 16 1 0
BITMAP
07C0
1FF0
3820
7000
6000
6000
E000
E380
E380
E100
6000
6000
7000
3820
1FF0
0FE0
ENDCHAR
STARTCHAR 03FF
ENCODING 1023
SWIDTH 630 0
DWIDTH 14 0
BBX 11 16 1 0
BITMAP
3E00
FF80
41C0
00C0
00E0
0060
0060
1C60
1C60
0860
0060
00E0
00C0
81C0
FF80
7F00
ENDCHAR
STARTCHAR 0400
ENCODING 1024
SWIDTH 630 0
DWIDTH 14 0
BBX 9 21 3 0
BITMAP
2000
3800
1E00
0200
0000
FF80
FF80
C000
C000
C000
C000
C000
FF00
FF00
C000
C000
C000
C000
C000
FF80
FF80
ENDCHAR
STARTCHAR 0401
ENCODING 1025
SWIDTH 630 0
DWIDTH 14 0
BBX 9 20 3 0
BITMAP
6300
6700
0000
0000
FF80
FF80
C000
C000
C000
C000
C000
FF00
FF00
C000
C000
C000
C000
C000
FF80
FF80
ENDCHAR
STARTCHAR 0402
ENCODING 1026
SWIDTH 630 0
DWIDTH 14 0
BBX 13 19 0 -3
BITMAP
FF80
FF80
1C00
1C00
1C00
1C00
1FF0
1FF0
1C38
1C18
1C18
1C18
1C18
1C18
1C18
1C18
0030
00F0
0060
ENDCHAR
STARTCHAR 0403
ENCODING 1027
SWIDTH 630 0
DWIDTH 14 0
BBX 9 21 3 0
BITMAP
0200
0E00
3C00
1000
0000
FF80
FF80
C000
C000
C000
C000
C000
C000
C000
C000
C000
C000
C000
C000
C000
C000
ENDCHAR
STARTCHAR 0404
ENCODING 1028
SWIDTH 630 0
DWIDTH 14 0
BBX 12 16 1 0
BITMAP
07C0
1FF0
3820
7000
6000
6000
E000
FF80
FF80
E000
E000
6000
7000
3020
3FF0
0FE0
ENDCHAR
STARTCHAR 0405
ENCODING 1029
SWIDTH 630 0
DWIDTH 14 0
BBX 11 16 1 0
BITMAP
1F80
3FE0
7040
6000
6000
7000
7C00
1F80
07C0
00E0
0060
0060
0060
40E0
FFC0
3F80
ENDCHAR
STARTCHAR 0406
ENCODING 1030
SWIDTH 630 0
DWIDTH 14 0
BBX 9 16 2 0
BITMAP
FF80
FF80
0C00
0C00
0C00
0C00
0C00
0C00
0C00
0C00
0C00
0C00
0C00
0C00
FF80
FF80
ENDCHAR
STARTCHAR 0407
ENCODING 1031
SWIDTH 630 0
DWIDTH 14 0
BBX 9 20 2 0
BITMAP
7300
7380
2000
0000
FF80
FF80
0C00
0C00
0C00
0C00
0C00
0C00
0C00
0C00
0C00
0C00
0C00
0C00
FF80
FF80
ENDCHAR
STARTCHAR 0408
ENCODING 1032
SWIDTH 630 0
DWIDTH 14 0
BBX 9 16 2 0
BITMAP
3F80
3F80
0180
0180
0180
0180
0180
0180
0180
0180
0180
0180
0180
8380
FF00
7E00
ENDCHAR
STARTCHAR 0409
ENCODING 1033
SWIDTH 630 0
DWIDTH 14 0
BBX 14 16 0 0
BITMAP
3F00
3F00
3300
3300
3300
3300
33E0
33F8
7318
631C
631C
631C
631C
6318
E3F8
C3E0
ENDCHAR
STARTCHAR 040A
ENCODING 1034
SWIDTH 630 0
DWIDTH 14 0
BBX 13 16 1 0
BITMAP
C600
C600
C600
C600
C600
C600
C600
FFE0
C670
C630
C638
C638
C638
C630
C7F0
C7C0
ENDCHAR
STARTCHAR 040B
ENCODING 1035
SWIDTH 630 0
DWIDTH 14 0
BBX 13 16 0 0
BITMAP
FF80
FF80
1C00
1C00
1C00
1C00
1FF0
1FF0
1C38
1C18
1C18
1C18
1C18
1C18
1C18
1C18
ENDCHAR
STARTCHAR 040C
ENCODING 1036
SWIDTH 630 0
DWIDTH 14 0
BBX 11 20 2 1
BITMAP
0700
1E00
1000
0000
C0E0
C0C0
C180
C380
C300
C600
CE00
FC00
FC00
C600
C700
C300
C180
C1C0
C0C0
C0E0
ENDCHAR
STARTCHAR 040D
ENCODING 1037
SWIDTH 630 0
DWIDTH 14 0
BBX 10 21 2 0
BITMAP
1000
3C00
0E00
0200
0000
C1C0
C1C0
C3C0
C3C0
C6C0
C6C0
C4C0
CCC0
CCC0
D8C0
D8C0
D0C0
F0C0
F0C0
E0C0
E0C0
ENDCHAR
STARTCHAR 040E
ENCODING 1038
SWIDTH 630 0
DWIDTH 14 0
BBX 12 20 1 0
BITMAP
1880
1F80
0600
0000
C030
C030
E060
6060
70E0
30C0
30C0
1980
1980
0F80
0F00
0700
0600
0E00
3C00
3800
ENDCHAR
STARTCHAR 040F
ENCODING 1039
SWIDTH 630 0
DWIDTH 14 0
BBX 10 19 2 -3
BITMAP
C0C0
C0C0
C0C0
C0C0
C0C0
C0C0
C0C0
C0C0
C0C0
C0C0
C0C0
C0C0
C0C0
C0C0
FFC0
FFC0
0C00
0C00
0C00
ENDCHAR
STARTCHAR 0410
ENCODING 1040
SWIDTH 630 0
DWIDTH 14 0
BBX 12 16 1 0
BITMAP
0E00
0F00
0F00
1B00
1B80
1980
3180
31C0
30C0
70C0
7FE0
7FE0
E060
C070
C070
C030
ENDCHAR
STARTCHAR 0411
ENCODING 1041
SWIDTH 630 0
DWIDTH 14 0
BBX 10 16 2 0
BITMAP
FF80
FF80
C000
C000
C000
C000
FC00
FF80
C1C0
C0C0
C0C0
C0C0
C0C0
C1C0
FF80
FF00
ENDCHAR
STARTCHAR 0412
ENCODING 1042
SWIDTH 630 0
DWIDTH 14 0
BBX 10 16 2 0
BITMAP
FC00
FF80
C380
C1C0
C1C0
C1C0
C380
FE00
FF80
C1C0
C0C0
C0C0
C0C0
C1C0
FF80
FF00
ENDCHAR
STARTCHAR 0413
ENCODING 1043
SWIDTH 630 0
DWIDTH 14 0
BBX 9 16 3 0
BITMAP
FF80
FF80
C000
C000
C000
C000
C000
C000
C000
C000
C000
C000
C000
C000
C000
C000
ENDCHAR
STARTCHAR 0414
ENCODING 1044
SWIDTH 630 0
DWIDTH 14 0
BBX 13 19 0 -3
BITMAP
0FF0
0FF0
1C70
1C70
1870
1870
1870
1870
1870
1870
3870
3070
3070
7070
FFF8
FFF8
C018
C018
C018
ENDCHAR
STARTCHAR 0415
ENCODING 1045
SWIDTH 630 0
DWIDTH 14 0
BBX 9 16 3 0
BITMAP
FF80
FF80
C000
C000
C000
C000
C000
FF00
FF00
C000
C000
C000
C000
C000
FF80
FF80
ENDCHAR
STARTCHAR 0416
ENCODING 1046
SWIDTH 630 0
DWIDTH 14 0
BBX 13 16 0 0
BITMAP
6318
6318
6330
3330
3330
3360
1B60
1FE0
1FE0
3360
3330
3330
6330
6318
6318
E318
ENDCHAR
STARTCHAR 0417
ENCODING 1047
SWIDTH 630 0
DWIDTH 14 0
BBX 11 16 1 0
BITMAP
1F00
7FC0
C0E0
00E0
0060
00E0
01C0
1F00
1FC0
00E0
0060
0060
0060
C0E0
FFC0
3F80
ENDCHAR
STARTCHAR 0418
ENCODING 1048
SWIDTH 630 0
DWIDTH 14 0
BBX 10 16 2 0
BITMAP
C1C0
C1C0
C3C0
C3C0
C6C0
C6C0
C4C0
CCC0
CCC0
D8C0
D8C0
D0C0
F0C0
F0C0
E0C0
E0C0
ENDCHAR
STARTCHAR 0419
ENCODING 1049
SWIDTH 630 0
DWIDTH 14 0
BBX 10 20 2 1
BITMAP
6300
3F00
0000
0000
C1C0
C1C0
C3C0
C3C0
C6C0
C6C0
C4C0
CCC0
CCC0
D8C0
D8C0
D0C0
F0C0
F0C0
E0C0
E0C0
ENDCHAR
STARTCHAR 041A
ENCODING 1050
SWIDTH 630 0
DWIDTH 14 0
BBX 11 16 2 0
BITMAP
C0E0
C0C0
C180
C380
C300
C600
CE00
FC00
FC00
C600
C700
C300
C180
C1C0
C0C0
C0E0
ENDCHAR
STARTCHAR 041B
ENCODING 1051
SWIDTH 630 0
DWIDTH 14 0
BBX 12 16 0 0
BITMAP
0FF0
0FF0
1C30
1C30
1830
1830
1830
1830
1830
1830
3830
3030
3030
7030
E030
4030
ENDCHAR
STARTCHAR 041C
ENCODING 1052
SWIDTH 630 0
DWIDTH 14 0
BBX 12 16 1 0
BITMAP
60E0
F0E0
F0E0
F1E0
D1E0
D9E0
D960
D970
CB70
CF30
CF30
CE30
C630
C030
C030
C030
ENDCHAR
STARTCHAR 041D
ENCODING 1053
SWIDTH 630 0
DWIDTH 14 0
BBX 10 16 2 0
BITMAP
C0C0
C0C0
C0C0
C0C0
C0C0
C0C0
C0C0
FFC0
FFC0
C0C0
C0C0
C0C0
C0C0
C0C0
C0C0
C0C0
ENDCHAR
STARTCHAR 041E
ENCODING 1054
SWIDTH 630 0
DWIDTH 14 0
BBX 12 16 1 0
BITMAP
0F00
3FC0
70C0
6060
E060
E060
C070
C070
C070
C070
C070
E060
6060
70E0
3FC0
1F80
ENDCHAR
STARTCHAR 041F
ENCODING 1055
SWIDTH 630 0
DWIDTH 14 0
BBX 10 16 2 0
BITMAP
FFC0
FFC0
C0C0
C0C0
C0C0
C0C0
C0C0
C0C0
C0C0
C0C0
C0C0
C0C0
C0C0
C0C0
C0C0
C0C0
ENDCHAR
STARTCHAR 0420
ENCODING 1056
SWIDTH 630 0
DWIDTH 14 0
BBX 11 16 2 0
BITMAP
FE00
FF80
E1C0
E0E0
E0E0
E0E0
E0E0
E0C0
E7C0
FF00
E000
E000
E000
E000
E000
E000
ENDCHAR
STARTCHAR 0421
ENCODING 1057
SWIDTH 630 0
DWIDTH 14 0
BBX 12 16 1 0
BITMAP
07C0
1FF0
3820
7000
6000
6000
E000
E000
E000
E000
6000
6000
7000
3820
1FF0
0FE0
ENDCHAR
STARTCHAR 0422
ENCODING 1058
SWIDTH 630 0
DWIDTH 14 0
BBX 12 16 1 0
BITMAP
FFF0
FFF0
0600
0600
0600
0600
0600
0600
0600
0600
0600
0600
0600
0600
0600
0600
ENDCHAR
STARTCHAR 0423
ENCODING 1059
SWIDTH 630 0
DWIDTH 14 0
BBX 12 16 1 0
BITMAP
C030
C030
E060
6060
70E0
30C0
30C0
1980
1980
0F80
0F00
0700
0600
0E00
3C00
3800
ENDCHAR
STARTCHAR 0424
ENCODING 1060
SWIDTH 630 0
DWIDTH 14 0
BBX 13 17 0 -1
BITMAP
0300
0FC0
3FF0
7330
6318
E318
E318
E318
E318
E318
E318
6318
6338
3B70
1FE0
0300
0300
ENDCHAR
STARTCHAR 0425
ENCODING 1061
SWIDTH 630 0
DWIDTH 14 0
BBX 12 16 1 0
BITMAP
E060
60E0
70C0
31C0
1980
1B00
0F00
0E00
0F00
1F00
1980
3180
30C0
60E0
E060
C070
ENDCHAR
STARTCHAR 0426
ENCODING 1062
SWIDTH 630 0
DWIDTH 14 0
BBX 11 19 2 -3
BITMAP
C0C0
C0C0
C0C0
C0C0
C0C0
C0C0
C0C0
C0C0
C0C0
C0C0
C0C0
C0C0
C0C0
C0C0
FFE0
FFE0
0060
0060
0060
ENDCHAR
STARTCHAR 0427
ENCODING 1063
SWIDTH 630 0
DWIDTH 14 0
BBX 11 16 1 0
BITMAP
C060
C060
C060
C060
C060
C060
C060
E060
E0E0
7FE0
3E60
0060
0060
0060
0060
0060
ENDCHAR
STARTCHAR 0428
ENCODING 1064
SWIDTH 630 0
DWIDTH 14 0
BBX 12 16 1 0
BITMAP
C630
C630
C630
C630
C630
C630
C630
C630
C630
C630
C630
C630
C630
C630
FFF0
FFF0
ENDCHAR
STARTCHAR 0429
ENCODING 1065
SWIDTH 630 0
DWIDTH 14 0
BBX 13 19 1 -3
BITMAP
C630
C630
C630
C630
C630
C630
C630
C630
C630
C630
C630
C630
C630
C630
FFF8
FFF8
0018
0018
0018
ENDCHAR
STARTCHAR 042A
ENCODING 1066
SWIDTH 630 0
DWIDTH 14 0
BBX 13 16 0 0
BITMAP
F800
F800
1800
1800
1800
1800
1FC0
1FF0
1838
1818
1818
1818
1818
1838
1FF0
1FC0
ENDCHAR
STARTCHAR 042B
ENCODING 1067
SWIDTH 630 0
DWIDTH 14 0
BBX 12 16 1 0
BITMAP
C030
C030
C030
C030
C030
C030
FC30
FF30
C330
C3B0
C3B0
C3B0
C3B0
C330
FF30
FC30
ENDCHAR
STARTCHAR 042C
ENCODING 1068
SWIDTH 630 0
DWIDTH 14 0
BBX 11 16 2 0
BITMAP
C000
C000
C000
C000
C000
C000
FF00
FF80
C1C0
C0C0
C0E0
C0E0
C0C0
C1C0
FF80
FF00
ENDCHAR
STARTCHAR 042D
ENCODING 1069
SWIDTH 630 0
DWIDTH 14 0
BBX 11 16 1 0
BITMAP
3F00
7F80
41C0
00E0
0060
0060
0060
3FE0
3FE0
0060
0060
0060
00E0
41C0
FF80
3F00
ENDCHAR
STARTCHAR 042E
ENCODING 1070
SWIDTH 630 0
DWIDTH 14 0
BBX 12 16 1 0
BITMAP
C3C0
C7E0
CC60
CC30
CC30
CC30
CC30
FC30
FC30
CC30
CC30
CC30
CC30
CC70
C7E0
C7C0
ENDCHAR
STARTCHAR 042F
ENCODING 1071
SWIDTH 630 0
DWIDTH 14 0
BBX 11 16 1 0
BITMAP
0FE0
3FE0
7060
6060
6060
6060
6060
7060
3FE0
1FE0
1860
3060
3060
6060
E060
C060
ENDCHAR
STARTCHAR 0430
ENCODING 1072
SWIDTH 630 0
DWIDTH 14 0
BBX 11 12 1 0
BITMAP
7F80
3380
00C0
00C0
00C0
3FC0
70C0
60C0
E0C0
61C0
73C0
3E60
ENDCHAR
STARTCHAR 0431
ENCODING 1073
SWIDTH 630 0
DWIDTH 14 0
BBX 10 17 2 0
BITMAP
0100
0F80
3E00
7000
6000
C000
DF00
FF80
E1C0
C0C0
C0C0
C0C0
C0C0
C1C0
E180
7780
3F00
ENDCHAR
STARTCHAR 0432
ENCODING 1074
SWIDTH 630 0
DWIDTH 14 0
BBX 10 12 2 0
BITMAP
FF00
E380
E1C0
E1C0
E180
FE00
E3C0
E0C0
E0C0
E0C0
FFC0
FF00
ENDCHAR
STARTCHAR 0433
ENCODING 1075
SWIDTH 630 0
DWIDTH 14 0
BBX 9 12 3 0
BITMAP
FF80
FF80
E000
E000
E000
E000
E000
E000
E000
E000
E000
E000
ENDCHAR
STARTCHAR 0434
ENCODING 1076
SWIDTH 630 0
DWIDTH 14 0
BBX 11 15 1 -3
BITMAP
3FC0
3FC0
30C0
30C0
30C0
30C0
30C0
30C0
70C0
60C0
FFE0
FFE0
C060
C060
8060
ENDCHAR
STARTCHAR 0435
ENCODING 1077
SWIDTH 630 0
DWIDTH 14 0
BBX 10 12 2 0
BITMAP
3F00
7380
E180
C0C0
C0C0
FFC0
FFC0
C000
C000
E080
7B80
3F80
ENDCHAR
STARTCHAR 0436
ENCODING 1078
SWIDTH 630 0
DWIDTH 14 0
BBX 12 12 1 0
BITMAP
C630
C660
6660
6640
36C0
3FC0
36C0
66C0
6660
C660
C630
C630
ENDCHAR
STARTCHAR 0437
ENCODING 1079
SWIDTH 630 0
DWIDTH 14 0
BBX 11 12 1 0
BITMAP
3F80
73C0
00C0
00C0
01C0
1F00
1FC0
00E0
00E0
00E0
F3C0
3F80
ENDCHAR
STARTCHAR 0438
ENCODING 1080
SWIDTH 630 0
DWIDTH 14 0
BBX 10 12 2 0
BITMAP
C1C0
C3C0
C3C0
C7C0
C7C0
CDC0
CDC0
D9C0
D9C0
F1C0
E1C0
E1C0
ENDCHAR
STARTCHAR 0439
ENCODING 1081
SWIDTH 630 0
DWIDTH 14 0
BBX 10 18 2 0
BITMAP
2000
3300
3E00
0000
0000
0000
C1C0
C3C0
C3C0
C7C0
C7C0
CDC0
CDC0
D9C0
D9C0
F1C0
E1C0
E1C0
ENDCHAR
STARTCHAR 043A
ENCODING 1082
SWIDTH 630 0
DWIDTH 14 0
BBX 11 12 2 0
BITMAP
C0C0
C180
C380
C300
C600
FE00
C600
C700
C380
C180
C1C0
C0E0
ENDCHAR
STARTCHAR 043B
ENCODING 1083
SWIDTH 630 0
DWIDTH 14 0
BBX 11 12 1 0
BITMAP
3FE0
3FE0
30E0
30E0
30E0
30E0
30E0
30E0
70E0
60E0
E0E0
C0E0
ENDCHAR
STARTCHAR 043C
ENCODING 1084
SWIDTH 630 0
DWIDTH 14 0
BBX 12 12 1 0
BITMAP
70E0
70E0
71E0
D9E0
D960
D960
CB60
CF60
CE70
C630
C030
C030
ENDCHAR
STARTCHAR 043D
ENCODING 1085
SWIDTH 630 0
DWIDTH 14 0
BBX 10 12 2 0
BITMAP
C1C0
C1C0
C1C0
C1C0
C1C0
FFC0
FFC0
C1C0
C1C0
C1C0
C1C0
C1C0
ENDCHAR
STARTCHAR 043E
ENCODING 1086
SWIDTH 630 0
DWIDTH 14 0
BBX 10 12 2 0
BITMAP
3F00
7780
E180
C1C0
C0C0
C0C0
C0C0
C0C0
C1C0
E180
7780
3F00
ENDCHAR
STARTCHAR 043F
ENCODING 1087
SWIDTH 630 0
DWIDTH 14 0
BBX 10 12 2 0
BITMAP
FFC0
FFC0
C1C0
C1C0
C1C0
C1C0
C1C0
C1C0
C1C0
C1C0
C1C0
C1C0
ENDCHAR
STARTCHAR 0440
ENCODING 1088
SWIDTH 630 0
DWIDTH 14 0
BBX 10 17 2 -5
BITMAP
DF00
FB80
E1C0
C0C0
C0C0
C0C0
C0C0
C0C0
C1C0
E180
FF80
DF00
C000
C000
C000
C000
C000
ENDCHAR
STARTCHAR 0441
ENCODING 1089
SWIDTH 630 0
DWIDTH 14 0
BBX 10 12 2 0
BITMAP
1F80
3FC0
6000
E000
C000
C000
C000
C000
E000
6000
7FC0
1F80
ENDCHAR
STARTCHAR 0442
ENCODING 1090
SWIDTH 630 0
DWIDTH 14 0
BBX 11 12 1 0
BITMAP
FFE0
FFE0
0600
0600
0600
0600
0600
0600
0600
0600
0600
0600
ENDCHAR
STARTCHAR 0443
ENCODING 1091
SWIDTH 630 0
DWIDTH 14 0
BBX 11 17 1 -5
BITMAP
E060
6060
60E0
70C0
30C0
3180
1980
1980
1B00
0F00
0F00
0E00
0600
0E00
1C00
7800
2000
ENDCHAR
STARTCHAR 0444
ENCODING 1092
SWIDTH 630 0
DWIDTH 14 0
BBX 12 22 1 -5
BITMAP
0600
0600
0600
0600
0600
7FE0
EF60
C630
C630
C630
C630
C630
C630
C630
C630
EF60
7FE0
0600
0600
0600
0600
0600
ENDCHAR
STARTCHAR 0445
ENCODING 1093
SWIDTH 630 0
DWIDTH 14 0
BBX 11 12 1 0
BITMAP
70E0
30C0
3980
1B80
0F00
0E00
0F00
1B00
1980
31C0
70E0
E060
ENDCHAR
STARTCHAR 0446
ENCODING 1094
SWIDTH 630 0
DWIDTH 14 0
BBX 11 15 2 -3
BITMAP
C180
C180
C180
C180
C180
C180
C180
C180
C180
C180
FFE0
FFE0
0060
0060
0060
ENDCHAR
STARTCHAR 0447
ENCODING 1095
SWIDTH 630 0
DWIDTH 14 0
BBX 9 12 2 0
BITMAP
C180
C180
C180
C180
C180
C180
E780
7D80
0180
0180
0180
0180
ENDCHAR
STARTCHAR 0448
ENCODING 1096
SWIDTH 630 0
DWIDTH 14 0
BBX 12 12 1 0
BITMAP
C630
C630
C630
C630
C630
C630
C630
C630
C630
C630
FFF0
FFF0
ENDCHAR
STARTCHAR 0449
ENCODING 1097
SWIDTH 630 0
DWIDTH 14 0
BBX 13 15 1 -3
BITMAP
C630
C630
C630
C630
C630
C630
C630
C630
C630
C630
FFF8
FFF8
0018
0018
0018
ENDCHAR
STARTCHAR 044A
ENCODING 1098
SWIDTH 630 0
DWIDTH 14 0
BBX 12 12 1 0
BITMAP
F800
F800
3800
3800
3FC0
39E0
3860
3870
3860
3860
3FE0
3F80
ENDCHAR
STARTCHAR 044B
ENCODING 1099
SWIDTH 630 0
DWIDTH 14 0
BBX 11 12 1 0
BITMAP
C060
C060
C060
C060
FC60
CE60
C360
C360
C360
C360
FE60
FC60
ENDCHAR
STARTCHAR 044C
ENCODING 1100
SWIDTH 630 0
DWIDTH 14 0
BBX 9 12 3 0
BITMAP
C000
C000
C000
C000
FF00
C780
C180
C180
C180
C380
FF00
FE00
ENDCHAR
STARTCHAR 044D
ENCODING 1101
SWIDTH 630 0
DWIDTH 14 0
BBX 10 12 2 0
BITMAP
7E00
E780
0180
01C0
00C0
3FC0
3FC0
01C0
0180
0180
F700
7E00
ENDCHAR
STARTCHAR 044E
ENCODING 1102
SWIDTH 630 0
DWIDTH 14 0
BBX 12 12 1 0
BITMAP
C7C0
C6E0
CC70
CC30
CC30
FC30
FC30
CC30
CC30
CC70
C6E0
C7C0
ENDCHAR
STARTCHAR 044F
ENCODING 1103
SWIDTH 630 0
DWIDTH 14 0
BBX 10 12 1 0
BITMAP
1FC0
3FC0
60C0
60C0
60C0
70C0
3FC0
18C0
30C0
70C0
60C0
E0C0
ENDCHAR
STARTCHAR 0450
ENCODING 1104
SWIDTH 630 0
DWIDTH 14 0
BBX 10 18 2 0
BITMAP
1000
3C00
0F00
0200
0000
0000
3F00
7380
E180
C0C0
C0C0
FFC0
FFC0
C000
C000
E080
7B80
3F80
ENDCHAR
STARTCHAR 0451
ENCODING 1105
SWIDTH 630 0
DWIDTH 14 0
BBX 10 17 2 0
BITMAP
7380
7380
0000
0000
0000
3F00
7380
E180
C0C0
C0C0
FFC0
FFC0
C000
C000
E080
7B80
3F80
ENDCHAR
STARTCHAR 0452
ENCODING 1106
SWIDTH 630 0
DWIDTH 14 0
BBX 12 22 0 -5
BITMAP
3000
3000
FF00
3000
3000
37E0
3EE0
3860
3070
3070
3070
3070
3070
3070
3070
3070
3070
0060
0060
00E0
01C0
0080
ENDCHAR
STARTCHAR 0453
ENCODING 1107
SWIDTH 630 0
DWIDTH 14 0
BBX 9 18 3 0
BITMAP
0600
0F00
3800
0000
0000
0000
FF80
FF80
E000
E000
E000
E000
E000
E000
E000
E000
E000
E000
ENDCHAR
STARTCHAR 0454
ENCODING 1108
SWIDTH 630 0
DWIDTH 14 0
BBX 10 12 2 0
BITMAP
1F80
39C0
6000
E000
C000
FF00
FF00
C000
E000
6000
7BC0
1F80
ENDCHAR
STARTCHAR 0455
ENCODING 1109
SWIDTH 630 0
DWIDTH 14 0
BBX 10 12 2 0
BITMAP
3F00
7380
E000
E000
7000
3E00
0F80
0180
01C0
0180
F780
7F00
ENDCHAR
STARTCHAR 0456
ENCODING 1110
SWIDTH 630 0
DWIDTH 14 0
BBX 9 18 3 0
BITMAP
1800
3800
1800
0000
0000
0000
F800
F800
1800
1800
1800
1800
1800
1800
1800
1800
FF80
FF80
ENDCHAR
STARTCHAR 0457
ENCODING 1111
SWIDTH 630 0
DWIDTH 14 0
BBX 9 17 3 0
BITMAP
E700
E600
0000
0000
0000
F800
F800
1800
1800
1800
1800
1800
1800
1800
1800
FF80
FF80
ENDCHAR
STARTCHAR 0458
ENCODING 1112
SWIDTH 630 0
DWIDTH 14 0
BBX 8 23 2 -5
BITMAP
06
07
07
00
00
00
7F
7F
03
03
03
03
03
03
03
03
03
03
07
0E
1C
F8
C0
ENDCHAR
STARTCHAR 0459
ENCODING 1113
SWIDTH 630 0
DWIDTH 14 0
BBX 14 12 0 0
BITMAP
3F00
3F00
3300
3300
33F0
3338
3318
331C
7318
6318
E3F8
C3E0
ENDCHAR
STARTCHAR 045A
ENCODING 1114
SWIDTH 630 0
DWIDTH 14 0
BBX 13 12 1 0
BITMAP
E600
E600
E600
E600
FF00
FFF0
E630
E638
E638
E630
E7F0
E7E0
ENDCHAR
STARTCHAR 045B
ENCODING 1115
SWIDTH 630 0
DWIDTH 14 0
BBX 12 17 0 0
BITMAP
3000
3000
FF00
3000
3000
37E0
3EE0
3860
3070
3070
3070
3070
3070
3070
3070
3070
3070
ENDCHAR
STARTCHAR 045C
ENCODING 1116
SWIDTH 630 0
DWIDTH 14 0
BBX 11 18 2 0
BITMAP
0300
0F00
1C00
0000
0000
0000
C0C0
C180
C380
C300
C600
FE00
C600
C700
C380
C180
C1C0
C0E0
ENDCHAR
STARTCHAR 045D
ENCODING 1117
SWIDTH 630 0
DWIDTH 14 0
BBX 10 18 2 0
BITMAP
1000
3C00
0E00
0200
0000
0000
C1C0
C3C0
C3C0
C7C0
C7C0
CDC0
CDC0
D9C0
D9C0
F1C0
E1C0
E1C0
ENDCHAR
STARTCHAR 045E
ENCODING 1118
SWIDTH 630 0
DWIDTH 14 0
BBX 11 23 1 -5
BITMAP
1000
1980
1F00
0000
0000
0000
E060
6060
60E0
70C0
30C0
3180
1980
1980
1B00
0F00
0F00
0E00
0600
0E00
1C00
7800
2000
ENDCHAR
STARTCHAR 045F
ENCODING 1119
SWIDTH 630 0
DWIDTH 14 0
BBX 10 15 2 -3
BITMAP
C1C0
C1C0
C1C0
C1C0
C1C0
C1C0
C1C0
C1C0
C1C0
C1C0
FFC0
FFC0
0C00
0C00
0C00
ENDCHAR
STARTCHAR 0460
ENCODING 1120
SWIDTH 630 0
DWIDTH 14 0
BBX 13 16 0 0
BITMAP
3030
3030
6030
6018
6018
6018
E018
E318
E318
E318
E318
E318
6318
6318
7FF0
3CF0
ENDCHAR
STARTCHAR 0461
ENCODING 1121
SWIDTH 630 0
DWIDTH 14 0
BBX 12 12 1 0
BITMAP
4060
C060
C030
C030
C630
C630
C630
C630
C630
C630
EF60
79E0
ENDCHAR
STARTCHAR 0462
ENCODING 1122
SWIDTH 630 0
DWIDTH 14 0
BBX 13 16 0 0
BITMAP
1C00
1C00
FF80
FF80
1C00
1C00
1FC0
1FF0
1C30
1C38
1C18
1C18
1C38
1C30
1FF0
1FC0
ENDCHAR
STARTCHAR 0463
ENCODING 1123
SWIDTH 630 0
DWIDTH 14 0
BBX 11 15 1 0
BITMAP
3000
3000
3000
FE00
3000
3000
3000
3F80
33E0
3060
3060
3060
3060
3FE0
3F80
ENDCHAR
STARTCHAR 0464
ENCODING 1124
SWIDTH 630 0
DWIDTH 14 0
BBX 12 16 1 0
BITMAP
C1F0
C3F0
C600
CE00
CC00
CC00
CC00
FFE0
FFE0
CC00
CC00
CC00
CE00
C600
C7F0
C3F0
ENDCHAR
STARTCHAR 0465
ENCODING 1125
SWIDTH 630 0
DWIDTH 14 0
BBX 11 12 2 0
BITMAP
C7E0
CE60
CC00
DC00
D800
FFC0
FFC0
D800
D800
CC00
CFE0
C7C0
ENDCHAR
STARTCHAR 0466
ENCODING 1126
SWIDTH 630 0
DWIDTH 14 0
BBX 12 16 1 0
BITMAP
0E00
0F00
0F00
1B00
1980
1980
3180
31C0
3FC0
7FC0
66E0
6660
E660
C670
C630
C630
ENDCHAR
STARTCHAR 0467
ENCODING 1127
SWIDTH 630 0
DWIDTH 14 0
BBX 12 12 1 0
BITMAP
0E00
0F00
0B00
1980
1980
3180
3FC0
36C0
66E0
6660
C660
C630
ENDCHAR
STARTCHAR 0468
ENCODING 1128
SWIDTH 630 0
DWIDTH 14 0
BBX 13 16 1 0
BITMAP
C380
C380
C2C0
C6C0
C6C0
C6C0
C660
C460
FFE0
CD60
CD60
CD30
D930
D930
D930
D918
ENDCHAR
STARTCHAR 0469
ENCODING 1129
SWIDTH 630 0
DWIDTH 14 0
BBX 12 12 1 0
BITMAP
C380
C3C0
C2C0
C6C0
C640
C660
FFE0
CDE0
CDB0
CDB0
D9B0
D990
ENDCHAR
STARTCHAR 046A
ENCODING 1130
SWIDTH 630 0
DWIDTH 14 0
BBX 12 16 1 0
BITMAP
7FE0
7FE0
70C0
30C0
3980
1980
0F00
3FC0
3FC0
26C0
66C0
6660
6660
C660
C630
C630
ENDCHAR
STARTCHAR 046B
ENCODING 1131
SWIDTH 630 0
DWIDTH 14 0
BBX 12 12 1 0
BITMAP
7FC0
7FC0
3180
1980
1B00
3FC0
7FC0
6660
6660
C660
C630
C630
ENDCHAR
STARTCHAR 046C
ENCODING 1132
SWIDTH 630 0
DWIDTH 14 0
BBX 14 16 0 0
BITMAP
CFF8
CFF8
C618
C630
C330
C360
C360
FFF0
FFF0
C6D8
C4D8
CCD8
CCD8
CCCC
D8CC
D8CC
ENDCHAR
STARTCHAR 046D
ENCODING 1133
SWIDTH 630 0
DWIDTH 14 0
BBX 13 12 1 0
BITMAP
CFF0
CC30
CC60
C640
C2C0
FFE0
FFE0
CDB0
C9B0
D9B0
D998
D998
ENDCHAR
STARTCHAR 046E
ENCODING 1134
SWIDTH 630 0
DWIDTH 14 0
BBX 10 26 2 -5
BITMAP
4100
7700
3E00
1C00
0000
FF80
FF80
0380
0700
0E00
1C00
1800
3C00
3F00
0380
01C0
00C0
01C0
01C0
0380
3F00
FC00
C000
E000
7000
2000
ENDCHAR
STARTCHAR 046F
ENCODING 1135
SWIDTH 630 0
DWIDTH 14 0
BBX 10 23 2 -5
BITMAP
4100
7700
3E00
0C00
0000
0000
FF80
FF80
0700
0E00
1C00
3000
3F80
01C0
01C0
01C0
0380
3F80
FC00
C000
C000
7000
2000
ENDCHAR
STARTCHAR 0470
ENCODING 1136
SWIDTH 630 0
DWIDTH 14 0
BBX 13 16 0 0
BITMAP
C318
C318
C318
C318
C318
C318
C318
E318
6318
7370
3FE0
0780
0300
0300
0300
0300
ENDCHAR
STARTCHAR 0471
ENCODING 1137
SWIDTH 630 0
DWIDTH 14 0
BBX 12 17 1 -5
BITMAP
C660
C630
C630
C630
C630
C630
C630
C630
C630
E660
7FE0
3F80
0600
0600
0600
0600
0600
ENDCHAR
STARTCHAR 0472
ENCODING 1138
SWIDTH 630 0
DWIDTH 14 0
BBX 12 16 1 0
BITMAP
0F00
3FC0
70C0
6060
E060
E060
C070
FFF0
FFF0
C070
C070
E060
6060
70E0
3FC0
1F80
ENDCHAR
STARTCHAR 0473
ENCODING 1139
SWIDTH 630 0
DWIDTH 14 0
BBX 10 12 2 0
BITMAP
3F00
7780
E180
C0C0
C0C0
FFC0
FFC0
C0C0
C1C0
E180
7780
3F00
ENDCHAR
STARTCHAR 0474
ENCODING 1140
SWIDTH 630 0
DWIDTH 14 0
BBX 12 16 1 0
BITMAP
C070
C0F0
E0C0
E0C0
60C0
6180
7180
3180
3180
3300
1B00
1B00
1B00
1E00
0E00
0E00
ENDCHAR
STARTCHAR 0475
ENCODING 1141
SWIDTH 630 0
DWIDTH 14 0
BBX 12 13 1 0
BITMAP
0070
E070
60C0
60C0
70C0
3180
3180
3980
1B00
1B00
1B00
0E00
0E00
ENDCHAR
STARTCHAR 0476
ENCODING 1142
SWIDTH 630 0
DWIDTH 14 0
BBX 12 23 1 0
BITMAP
2200
6600
3600
3300
1100
0000
0000
C070
C0F0
E0C0
E0C0
60C0
6180
7180
3180
3180
3300
1B00
1B00
1B00
1E00
0E00
0E00
ENDCHAR
STARTCHAR 0477
ENCODING 1143
SWIDTH 630 0
DWIDTH 14 0
BBX 12 19 1 0
BITMAP
6600
6600
3300
1300
1000
0000
0070
E070
60C0
60C0
70C0
3180
3180
3980
1B00
1B00
1B00
0E00
0E00
ENDCHAR
STARTCHAR 0478
ENCODING 1144
SWIDTH 630 0
DWIDTH 14 0
BBX 13 21 0 -5
BITMAP
3800
7C00
6600
4600
C788
C688
C698
C6D8
C6D8
C6D8
C6D8
C6D0
C650
6650
6C70
3C70
0030
0020
0060
00C0
0080
ENDCHAR
STARTCHAR 0479
ENCODING 1145
SWIDTH 630 0
DWIDTH 14 0
BBX 14 17 0 -5
BITMAP
3D8C
6D8C
C798
C698
C6D8
C6D8
C6D8
C6D8
C6D0
C650
6C70
7C70
0030
0060
00E0
03C0
0300
ENDCHAR
STARTCHAR 048A
ENCODING 1162
SWIDTH 630 0
DWIDTH 14 0
BBX 12 23 2 -2
BITMAP
6300
3F00
0000
0000
C1C0
C1C0
C3C0
C3C0
C6C0
C6C0
C4C0
CCC0
CCC0
D8C0
D8C0
D0C0
F0C0
F0C0
E0F0
E0E0
0060
0060
0040
ENDCHAR
STARTCHAR 048B
ENCODING 1163
SWIDTH 630 0
DWIDTH 14 0
BBX 11 21 2 -3
BITMAP
2000
6300
3E00
0000
0000
0000
C380
C380
C780
C780
CD80
CD80
D980
D980
F180
F180
E1E0
E1E0
00C0
00C0
00C0
ENDCHAR
STARTCHAR 048C
ENCODING 1164
SWIDTH 630 0
DWIDTH 14 0
BBX 12 16 1 0
BITMAP
3000
3000
FE00
FE00
3000
3000
3F80
3FE0
3060
3070
3030
3030
3070
3060
3FE0
3F80
ENDCHAR
STARTCHAR 048D
ENCODING 1165
SWIDTH 630 0
DWIDTH 14 0
BBX 11 12 1 0
BITMAP
3800
FF00
FE00
3800
3F00
3FC0
38E0
3860
3860
38E0
3FC0
3F80
ENDCHAR
STARTCHAR 048E
ENCODING 1166
SWIDTH 630 0
DWIDTH 14 0
BBX 11 16 2 0
BITMAP
FE00
FF80
E1C0
E0E0
E0E0
E4E0
E6E0
E3C0
E7C0
FF80
E0C0
E0C0
E000
E000
E000
E000
ENDCHAR
STARTCHAR 048F
ENCODING 1167
SWIDTH 630 0
DWIDTH 14 0
BBX 10 17 2 -5
BITMAP
DF00
FB80
E1C0
C0C0
C0C0
C0C0
C0C0
CCC0
C4C0
E780
F780
DF00
C180
C080
C000
C000
C000
ENDCHAR
STARTCHAR 0490
ENCODING 1168
SWIDTH 630 0
DWIDTH 14 0
BBX 9 19 3 0
BITMAP
0180
0180
0180
FF80
FF80
C000
C000
C000
C000
C000
C000
C000
C000
C000
C000
C000
C000
C000
C000
ENDCHAR
STARTCHAR 0491
ENCODING 1169
SWIDTH 630 0
DWIDTH 14 0
BBX 9 15 3 0
BITMAP
0180
0180
0180
FF80
FF80
E000
E000
E000
E000
E000
E000
E000
E000
E000
E000
ENDCHAR
STARTCHAR 0492
ENCODING 1170
SWIDTH 630 0
DWIDTH 14 0
BBX 12 16 1 0
BITMAP
1FF0
1FF0
1800
1800
1800
1800
FF00
FF00
1800
1800
1800
1800
1800
1800
1800
1800
ENDCHAR
STARTCHAR 0493
ENCODING 1171
SWIDTH 630 0
DWIDTH 14 0
BBX 11 12 2 0
BITMAP
3FE0
3FC0
3000
3000
3000
FE00
FE00
3000
3000
3000
3000
3000
ENDCHAR
STARTCHAR 0494
ENCODING 1172
SWIDTH 630 0
DWIDTH 14 0
BBX 11 21 2 -5
BITMAP
FF80
FF80
C000
C000
C000
C000
DF80
FFC0
E0C0
C0C0
C0E0
C0E0
C0E0
C0E0
C0E0
C0E0
00E0
00E0
00C0
07C0
0780
ENDCHAR
STARTCHAR 0495
ENCODING 1173
SWIDTH 630 0
DWIDTH 14 0
BBX 9 17 2 -5
BITMAP
FF00
FF00
C000
C000
CF00
DF80
E180
C180
C180
C180
C180
C180
0180
0180
0180
0F80
0F00
ENDCHAR
STARTCHAR 0496
ENCODING 1174
SWIDTH 630 0
DWIDTH 14 0
BBX 14 19 0 -3
BITMAP
6318
6318
6330
3330
3330
3360
1B60
1FE0
1FE0
3360
3330
3330
6330
6318
631C
E31C
000C
000C
000C
ENDCHAR
STARTCHAR 0497
ENCODING 1175
SWIDTH 630 0
DWIDTH 14 0
BBX 13 15 1 -3
BITMAP
C630
C660
6660
66C0
36C0
3FC0
36C0
66C0
6660
6660
C678
C638
0018
0018
0018
ENDCHAR
STARTCHAR 0498
ENCODING 1176
SWIDTH 630 0
DWIDTH 14 0
BBX 11 22 1 -6
BITMAP
1F00
7FC0
C0E0
00E0
0060
00E0
01C0
1F00
1FC0
00E0
0060
0060
0060
C0E0
FFC0
3F80
0400
0600
0300
0300
1F00
0400
ENDCHAR
STARTCHAR 0499
ENCODING 1177
SWIDTH 630 0
DWIDTH 14 0
BBX 11 18 1 -6
BITMAP
3F80
73C0
00C0
00C0
01C0
1F00
1FC0
00E0
00E0
00E0
F3C0
3F80
0400
0600
0300
0100
1F00
0400
ENDCHAR
STARTCHAR 049A
ENCODING 1178
SWIDTH 630 0
DWIDTH 14 0
BBX 11 19 2 -3
BITMAP
C0E0
C0C0
C180
C380
C300
C600
CE00
FC00
FC00
C600
C700
C300
C180
C1C0
C0E0
C0E0
0060
0060
0020
ENDCHAR
STARTCHAR 049B
ENCODING 1179
SWIDTH 630 0
DWIDTH 14 0
BBX 11 15 2 -3
BITMAP
C0C0
C180
C380
C300
C600
FE00
C600
C700
C380
C180
C1E0
C0E0
0060
0060
0020
ENDCHAR
STARTCHAR 049C
ENCODING 1180
SWIDTH 630 0
DWIDTH 14 0
BBX 11 16 2 0
BITMAP
C060
C0C0
C1C0
D180
D380
D300
D600
FE00
FE00
D700
D300
D180
D180
C0C0
C0E0
C060
ENDCHAR
STARTCHAR 049D
ENCODING 1181
SWIDTH 630 0
DWIDTH 14 0
BBX 11 12 2 0
BITMAP
C0C0
C180
D980
DB00
DF00
FE00
DF00
DB00
DB80
C180
C0C0
C0E0
ENDCHAR
STARTCHAR 049E
ENCODING 1182
SWIDTH 630 0
DWIDTH 14 0
BBX 12 16 1 0
BITMAP
7070
7060
FCE0
FCC0
7180
7380
7300
7E00
7F00
7300
7380
71C0
70C0
70E0
7060
7070
ENDCHAR
STARTCHAR 049F
ENCODING 1183
SWIDTH 630 0
DWIDTH 14 0
BBX 12 17 1 0
BITMAP
3000
3000
FE00
FE00
3000
3060
30C0
31C0
3180
3300
3E00
3300
3380
3180
30C0
30E0
3070
ENDCHAR
STARTCHAR 04A0
ENCODING 1184
SWIDTH 630 0
DWIDTH 14 0
BBX 13 16 0 0
BITMAP
F818
F830
1870
1860
18E0
18C0
1980
1F80
1F80
19C0
18C0
18E0
1870
1830
1838
1818
ENDCHAR
STARTCHAR 04A1
ENCODING 1185
SWIDTH 630 0
DWIDTH 14 0
BBX 13 12 0 0
BITMAP
F838
F870
1860
18C0
19C0
1F80
19C0
18C0
18E0
1870
1830
1818
ENDCHAR
STARTCHAR 04A2
ENCODING 1186
SWIDTH 630 0
DWIDTH 14 0
BBX 11 19 2 -3
BITMAP
C0C0
C0C0
C0C0
C0C0
C0C0
C0C0
C0C0
FFC0
FFC0
C0C0
C0C0
C0C0
C0C0
C0C0
C0E0
C0E0
0060
0060
0060
ENDCHAR
STARTCHAR 04A3
ENCODING 1187
SWIDTH 630 0
DWIDTH 14 0
BBX 11 15 2 -3
BITMAP
C180
C180
C180
C180
C180
FF80
FF80
C180
C180
C180
C1E0
C1E0
0060
0060
0060
ENDCHAR
STARTCHAR 04A4
ENCODING 1188
SWIDTH 630 0
DWIDTH 14 0
BBX 13 16 1 0
BITMAP
E1F8
E1F8
E1C0
E1C0
E1C0
E1C0
E1C0
FFC0
FFC0
E1C0
E1C0
E1C0
E1C0
E1C0
E1C0
E1C0
ENDCHAR
STARTCHAR 04A5
ENCODING 1189
SWIDTH 630 0
DWIDTH 14 0
BBX 12 12 2 0
BITMAP
C3F0
C3F0
C380
C380
C380
FF80
FF80
C380
C380
C380
C380
C380
ENDCHAR
STARTCHAR 04A6
ENCODING 1190
SWIDTH 630 0
DWIDTH 14 0
BBX 12 21 1 -5
BITMAP
FE00
FE00
C600
C600
C600
C600
C7E0
C7F0
C630
C630
C630
C630
C630
C630
C630
C630
0030
0030
0030
01F0
01E0
ENDCHAR
STARTCHAR 04A7
ENCODING 1191
SWIDTH 630 0
DWIDTH 14 0
BBX 13 17 1 -5
BITMAP
FE00
FE00
C600
C600
C6E0
C7F0
C638
C638
C638
C638
C638
C638
0038
0038
0030
01F0
01E0
ENDCHAR
STARTCHAR 04A8
ENCODING 1192
SWIDTH 630 0
DWIDTH 14 0
BBX 12 19 1 -3
BITMAP
0F80
3FC0
7080
6000
E000
C000
C1C0
C3F0
C630
C630
C630
E630
6630
7360
3FE0
1F80
00C0
0060
0040
ENDCHAR
STARTCHAR 04A9
ENCODING 1193
SWIDTH 630 0
DWIDTH 14 0
BBX 12 15 1 -3
BITMAP
1F00
3F00
7000
6000
E3E0
E760
E630
E630
6660
6360
3BC0
1F80
00C0
00E0
0040
ENDCHAR
STARTCHAR 04AA
ENCODING 1194
SWIDTH 630 0
DWIDTH 14 0
BBX 12 22 1 -6
BITMAP
07C0
1FF0
3820
7000
6000
6000
E000
E000
E000
E000
6000
6000
7000
3820
1FF0
0FE0
0100
0080
00C0
00C0
0780
0200
ENDCHAR
STARTCHAR 04AB
ENCODING 1195
SWIDTH 630 0
DWIDTH 14 0
BBX 10 18 2 -6
BITMAP
1F80
3FC0
6000
E000
C000
C000
C000
C000
E000
6000
7FC0
1F80
0600
0300
0100
0100
1F00
0400
ENDCHAR
STARTCHAR 04AC
ENCODING 1196
SWIDTH 630 0
DWIDTH 14 0
BBX 12 19 1 -3
BITMAP
FFF0
FFF0
0600
0600
0600
0600
0600
0600
0600
0600
0600
0600
0600
0600
0700
0700
0300
0300
0300
ENDCHAR
STARTCHAR 04AD
ENCODING 1197
SWIDTH 630 0
DWIDTH 14 0
BBX 11 15 1 -3
BITMAP
FFE0
FFE0
0600
0600
0600
0600
0600
0600
0600
0600
0780
0780
0180
0180
0180
ENDCHAR
STARTCHAR 04AE
ENCODING 1198
SWIDTH 630 0
DWIDTH 14 0
BBX 12 16 1 0
BITMAP
C030
E070
6060
70E0
30C0
3980
1980
1F00
0F00
0E00
0600
0600
0600
0600
0600
0600
ENDCHAR
STARTCHAR 04AF
ENCODING 1199
SWIDTH 630 0
DWIDTH 14 0
BBX 11 17 1 -5
BITMAP
E060
6060
60E0
30C0
30C0
3180
1980
1980
0B00
0F00
0E00
0600
0600
0600
0600
0600
0600
ENDCHAR
STARTCHAR 04B0
ENCODING 1200
SWIDTH 630 0
DWIDTH 14 0
BBX 12 16 1 0
BITMAP
C030
E070
6060
70E0
30C0
3980
1980
1F00
0F00
3FC0
0600
0600
0600
0600
0600
0600
ENDCHAR
STARTCHAR 04B1
ENCODING 1201
SWIDTH 630 0
DWIDTH 14 0
BBX 11 17 1 -5
BITMAP
E060
6060
60E0
30C0
30C0
3180
1980
1980
0B00
0F00
3F80
3F80
0600
0600
0600
0600
0600
ENDCHAR
STARTCHAR 04B2
ENCODING 1202
SWIDTH 630 0
DWIDTH 14 0
BBX 12 19 1 -3
BITMAP
E060
60E0
70C0
31C0
1980
1B00
0F00
0E00
0F00
1F00
1980
3180
30C0
60E0
E070
C070
0030
0030
0030
ENDCHAR
STARTCHAR 04B3
ENCODING 1203
SWIDTH 630 0
DWIDTH 14 0
BBX 11 15 1 -3
BITMAP
70E0
30C0
3980
1B80
0F00
0E00
0F00
1B00
1980
31C0
7EE0
EE60
0600
0600
0600
ENDCHAR
STARTCHAR 04B4
ENCODING 1204
SWIDTH 630 0
DWIDTH 14 0
BBX 13 19 0 -3
BITMAP
FF70
FF70
1870
1870
1870
1870
1870
1870
1870
1870
1870
1870
1870
1870
1FF8
1FF8
0018
0018
0018
ENDCHAR
STARTCHAR 04B5
ENCODING 1205
SWIDTH 630 0
DWIDTH 14 0
BBX 13 15 0 -3
BITMAP
FF60
FE60
1860
1860
1860
1860
1860
1860
1860
1860
1FF8
1FF8
0018
0018
0018
ENDCHAR
STARTCHAR 04B6
ENCODING 1206
SWIDTH 630 0
DWIDTH 14 0
BBX 12 19 1 -3
BITMAP
C060
C060
C060
C060
C060
C060
C060
E060
E0E0
7FE0
3E60
0060
0060
0060
0070
0070
0030
0030
0030
ENDCHAR
STARTCHAR 04B7
ENCODING 1207
SWIDTH 630 0
DWIDTH 14 0
BBX 11 15 2 -3
BITMAP
C180
C180
C180
C180
C180
C180
E780
7D80
0180
0180
01E0
01E0
0060
0060
0060
ENDCHAR
STARTCHAR 04B8
ENCODING 1208
SWIDTH 630 0
DWIDTH 14 0
BBX 11 16 1 0
BITMAP
C060
C060
C060
C060
C460
C460
C460
E460
E4E0
7FE0
3E60
0460
0460
0060
0060
0060
ENDCHAR
STARTCHAR 04B9
ENCODING 1209
SWIDTH 630 0
DWIDTH 14 0
BBX 9 12 2 0
BITMAP
C180
C180
C180
C980
C980
C980
EF80
7D80
0980
0980
0180
0180
ENDCHAR
STARTCHAR 04BA
ENCODING 1210
SWIDTH 630 0
DWIDTH 14 0
BBX 11 16 2 0
BITMAP
C000
C000
C000
C000
C000
C000
DF80
FFC0
E0C0
C0E0
C0E0
C0E0
C0E0
C0E0
C0E0
C0E0
ENDCHAR
STARTCHAR 04BB
ENCODING 1211
SWIDTH 630 0
DWIDTH 14 0
BBX 10 17 2 0
BITMAP
C000
C000
C000
C000
C000
C000
CF00
DF80
E180
E180
C1C0
C1C0
C1C0
C1C0
C1C0
C1C0
C1C0
ENDCHAR
STARTCHAR 04BC
ENCODING 1212
SWIDTH 630 0
DWIDTH 14 0
BBX 13 16 0 0
BITMAP
03C0
07E0
0E30
0C30
DC18
D818
D818
FFF8
7FF8
1800
1800
1C00
0C00
0C00
0770
03E0
ENDCHAR
STARTCHAR 04BD
ENCODING 1213
SWIDTH 630 0
DWIDTH 14 0
BBX 13 12 0 0
BITMAP
03E0
0670
4C30
CC30
D818
7FF8
3FF8
1800
0C00
0C00
0770
03E0
ENDCHAR
STARTCHAR 04BE
ENCODING 1214
SWIDTH 630 0
DWIDTH 14 0
BBX 13 21 0 -5
BITMAP
03C0
07E0
0E30
0C30
DC18
D818
D818
FFF8
7FF8
1800
1800
1C00
0C00
0C00
0770
03E0
0180
0300
0200
0300
03C0
ENDCHAR
STARTCHAR 04BF
ENCODING 1215
SWIDTH 630 0
DWIDTH 14 0
BBX 13 17 0 -5
BITMAP
03E0
0670
4C30
CC30
D818
7FF8
3FF8
1800
0C00
0C00
0770
03E0
0180
0300
0200
0300
03C0
ENDCHAR
STARTCHAR 04C0
ENCODING 1216
SWIDTH 630 0
DWIDTH 14 0
BBX 9 16 2 0
BITMAP
FF80
FF80
0C00
0C00
0C00
0C00
0C00
0C00
0C00
0C00
0C00
0C00
0C00
0C00
FF80
FF80
ENDCHAR
STARTCHAR 04C1
ENCODING 1217
SWIDTH 630 0
DWIDTH 14 0
BBX 13 20 0 1
BITMAP
18C0
0FC0
0000
0000
6318
6318
6330
3330
3330
3360
1B60
1FE0
1FE0
3360
3330
3330
6330
6318
6318
E318
ENDCHAR
STARTCHAR 04C2
ENCODING 1218
SWIDTH 630 0
DWIDTH 14 0
BBX 12 18 1 0
BITMAP
1000
1980
1F00
0000
0000
0000
C630
C660
6660
6640
36C0
3FC0
36C0
66C0
6660
C660
C630
C630
ENDCHAR
STARTCHAR 04C3
ENCODING 1219
SWIDTH 630 0
DWIDTH 14 0
BBX 10 21 2 -5
BITMAP
C0C0
C1C0
C180
C300
C300
C600
C600
FF00
FF80
C1C0
C0C0
C0C0
C0C0
C0C0
C0C0
C0C0
00C0
00C0
00C0
0FC0
0780
ENDCHAR
STARTCHAR 04C4
ENCODING 1220
SWIDTH 630 0
DWIDTH 14 0
BBX 9 17 2 -5
BITMAP
C180
C300
C300
C600
CE00
FE00
FF80
C180
C180
C180
C180
C180
0180
0180
0180
1F80
0F00
ENDCHAR
STARTCHAR 04C5
ENCODING 1221
SWIDTH 630 0
DWIDTH 14 0
BBX 12 19 1 -3
BITMAP
1FC0
1FC0
18C0
38C0
30C0
30C0
30C0
30C0
30C0
30C0
70C0
60C0
60C0
E0C0
C0F0
80F0
0070
0060
0060
ENDCHAR
STARTCHAR 04C6
ENCODING 1222
SWIDTH 630 0
DWIDTH 14 0
BBX 12 15 1 -3
BITMAP
3FC0
3FC0
30C0
30C0
30C0
30C0
30C0
30C0
70C0
60C0
E0F0
C0E0
0060
0060
0040
ENDCHAR
STARTCHAR 04C7
ENCODING 1223
SWIDTH 630 0
DWIDTH 14 0
BBX 10 21 2 -5
BITMAP
C0C0
C0C0
C0C0
C0C0
C0C0
C0C0
C0C0
FFC0
FFC0
C0C0
C0C0
C0C0
C0C0
C0C0
C0C0
C0C0
00C0
00C0
01C0
0F80
0700
ENDCHAR
STARTCHAR 04C8
ENCODING 1224
SWIDTH 630 0
DWIDTH 14 0
BBX 10 17 2 -5
BITMAP
C1C0
C1C0
C1C0
C1C0
C1C0
FFC0
FFC0
C1C0
C1C0
C1C0
C1C0
C1C0
01C0
0180
0180
0F80
0F00
ENDCHAR
STARTCHAR 04C9
ENCODING 1225
SWIDTH 630 0
DWIDTH 14 0
BBX 11 19 2 -3
BITMAP
C180
C180
C180
C180
C180
C180
C180
FF80
FF80
C180
C180
C180
C180
C180
C1E0
C1E0
00C0
00C0
00C0
ENDCHAR
STARTCHAR 04CA
ENCODING 1226
SWIDTH 630 0
DWIDTH 14 0
BBX 11 15 2 -3
BITMAP
C180
C180
C180
C180
C180
FF80
FF80
C180
C180
C180
C1E0
C1C0
00C0
00C0
00C0
ENDCHAR
STARTCHAR 04CB
ENCODING 1227
SWIDTH 630 0
DWIDTH 14 0
BBX 11 19 1 -3
BITMAP
C060
C060
C060
C060
C060
C060
C060
E060
E0E0
7FE0
3E60
0060
0060
0060
0660
0660
0600
0600
0400
ENDCHAR
STARTCHAR 04CC
ENCODING 1228
SWIDTH 630 0
DWIDTH 14 0
BBX 9 15 2 -3
BITMAP
C180
C180
C180
C180
C180
C180
FF80
7D80
0180
0180
0780
0780
0700
0600
0600
ENDCHAR
STARTCHAR 04CD
ENCODING 1229
SWIDTH 630 0
DWIDTH 14 0
BBX 14 19 0 -3
BITMAP
70E0
70E0
78E0
78E0
78E0
69F0
69F0
6D30
6D30
6D30
6730
6730
6630
6030
603C
E038
0018
0018
0030
ENDCHAR
STARTCHAR 04CE
ENCODING 1230
SWIDTH 630 0
DWIDTH 14 0
BBX 13 15 1 -3
BITMAP
71C0
71C0
51C0
59C0
5BE0
5B60
CA60
CA60
CE60
CE60
C078
C070
0030
0030
0020
ENDCHAR
STARTCHAR 04CF
ENCODING 1231
SWIDTH 630 0
DWIDTH 14 0
BBX 11 17 1 0
BITMAP
FC00
FC00
0C00
0C00
0C00
0C00
0C00
0C00
0C00
0C00
0C00
0C00
0C00
0C00
0C00
0FC0
07E0
ENDCHAR
STARTCHAR 04D0
ENCODING 1232
SWIDTH 630 0
DWIDTH 14 0
BBX 12 20 1 1
BITMAP
3180
1F80
0000
0000
0E00
0F00
0F00
1B00
1B80
1980
3180
31C0
30C0
70C0
7FE0
7FE0
E060
C070
C070
C030
ENDCHAR
STARTCHAR 04D1
ENCODING 1233
SWIDTH 630 0
DWIDTH 14 0
BBX 11 18 1 0
BITMAP
1000
3180
1F00
0000
0000
0000
7F80
3380
00C0
00C0
00C0
3FC0
70C0
60C0
E0C0
61C0
73C0
3E60
ENDCHAR
STARTCHAR 04D2
ENCODING 1234
SWIDTH 630 0
DWIDTH 14 0
BBX 12 20 1 0
BITMAP
3980
39C0
1000
0000
0E00
0F00
0F00
1B00
1B80
1980
3180
31C0
30C0
70C0
7FE0
7FE0
E060
C070
C070
C030
ENDCHAR
STARTCHAR 04D3
ENCODING 1235
SWIDTH 630 0
DWIDTH 14 0
BBX 11 17 1 0
BITMAP
3980
3180
0000
0000
0000
7F80
3380
00C0
00C0
00C0
3FC0
70C0
60C0
E0C0
61C0
73C0
3E60
ENDCHAR
STARTCHAR 04D4
ENCODING 1236
SWIDTH 630 0
DWIDTH 14 0
BBX 14 16 0 0
BITMAP
0FF8
0FF8
0B00
1B00
1B00
1B00
3300
31F8
31F8
3180
7F80
7F80
60C0
E0C0
C0FC
C0FC
ENDCHAR
STARTCHAR 04D5
ENCODING 1237
SWIDTH 630 0
DWIDTH 14 0
BBX 14 12 0 0
BITMAP
7CF0
6FB8
0318
030C
030C
7FFC
E3FC
C300
C300
C700
EDD8
7CF8
ENDCHAR
STARTCHAR 04D6
ENCODING 1238
SWIDTH 630 0
DWIDTH 14 0
BBX 9 20 3 1
BITMAP
6300
3E00
0000
0000
FF80
FF80
C000
C000
C000
C000
C000
FF00
FF00
C000
C000
C000
C000
C000
FF80
FF80
ENDCHAR
STARTCHAR 04D7
ENCODING 1239
SWIDTH 630 0
DWIDTH 14 0
BBX 10 18 2 0
BITMAP
2100
3300
3F00
0000
0000
0000
3F00
7380
E180
C0C0
C0C0
FFC0
FFC0
C000
C000
E080
7B80
3F80
ENDCHAR
STARTCHAR 04D8
ENCODING 1240
SWIDTH 630 0
DWIDTH 14 0
BBX 12 16 1 0
BITMAP
1F00
7FC0
60C0
0060
0060
0060
0070
FFF0
FFF0
C070
C060
C060
6060
60C0
3FC0
1F80
ENDCHAR
STARTCHAR 04D9
ENCODING 1241
SWIDTH 630 0
DWIDTH 14 0
BBX 10 12 2 0
BITMAP
7F00
7780
4180
01C0
00C0
FFC0
FFC0
C0C0
C0C0
C180
7380
3F00
ENDCHAR
STARTCHAR 04DA
ENCODING 1242
SWIDTH 630 0
DWIDTH 14 0
BBX 12 20 1 0
BITMAP
3180
3980
0000
0000
1F00
7FC0
60C0
0060
0060
0060
0070
FFF0
FFF0
C070
C060
C060
6060
60C0
3FC0
1F80
ENDCHAR
STARTCHAR 04DB
ENCODING 1243
SWIDTH 630 0
DWIDTH 14 0
BBX 10 17 2 0
BITMAP
7380
7300
0000
0000
0000
7F00
7780
4180
01C0
00C0
FFC0
FFC0
C0C0
C0C0
C180
7380
3F00
ENDCHAR
STARTCHAR 04DC
ENCODING 1244
SWIDTH 630 0
DWIDTH 14 0
BBX 13 20 0 0
BITMAP
1CC0
1CE0
0800
0000
6318
6318
6330
3330
3330
3360
1B60
1FE0
1FE0
3360
3330
3330
6330
6318
6318
E318
ENDCHAR
STARTCHAR 04DD
ENCODING 1245
SWIDTH 630 0
DWIDTH 14 0
BBX 12 17 1 0
BITMAP
3980
3980
0000
0000
0000
C630
C660
6660
6640
36C0
3FC0
36C0
66C0
6660
C660
C630
C630
ENDCHAR
STARTCHAR 04DE
ENCODING 1246
SWIDTH 630 0
DWIDTH 14 0
BBX 11 20 1 0
BITMAP
3180
3980
1000
0000
1F00
7FC0
C0E0
00E0
0060
00E0
01C0
1F00
1FC0
00E0
0060
0060
0060
C0E0
FFC0
3F80
ENDCHAR
STARTCHAR 04DF
ENCODING 1247
SWIDTH 630 0
DWIDTH 14 0
BBX 11 17 1 0
BITMAP
3980
3180
0000
0000
0000
3F80
73C0
00C0
00C0
01C0
1F00
1FC0
00E0
00E0
00E0
F3C0
3F80
ENDCHAR
STARTCHAR 04E0
ENCODING 1248
SWIDTH 630 0
DWIDTH 14 0
BBX 10 16 2 0
BITMAP
FF80
FF80
0180
0300
0600
0C00
3800
3F00
3F80
01C0
00C0
00C0
00C0
81C0
FF80
7F00
ENDCHAR
STARTCHAR 04E1
ENCODING 1249
SWIDTH 630 0
DWIDTH 14 0
BBX 10 17 2 -5
BITMAP
FF80
FF80
0380
0700
0E00
0C00
1800
3C00
3F00
0180
01C0
00C0
01C0
01C0
C380
FF00
3E00
ENDCHAR
STARTCHAR 04E2
ENCODING 1250
SWIDTH 630 0
DWIDTH 14 0
BBX 10 20 2 0
BITMAP
3F00
3F00
0000
0000
C1C0
C1C0
C3C0
C3C0
C6C0
C6C0
C4C0
CCC0
CCC0
D8C0
D8C0
D0C0
F0C0
F0C0
E0C0
E0C0
ENDCHAR
STARTCHAR 04E3
ENCODING 1251
SWIDTH 630 0
DWIDTH 14 0
BBX 10 17 2 0
BITMAP
3F00
3F00
0000
0000
0000
C1C0
C3C0
C3C0
C7C0
C7C0
CDC0
CDC0
D9C0
D9C0
F1C0
E1C0
E1C0
ENDCHAR
STARTCHAR 04E4
ENCODING 1252
SWIDTH 630 0
DWIDTH 14 0
BBX 10 20 2 0
BITMAP
7300
7380
2000
0000
C1C0
C1C0
C3C0
C3C0
C6C0
C6C0
C4C0
CCC0
CCC0
D8C0
D8C0
D0C0
F0C0
F0C0
E0C0
E0C0
ENDCHAR
STARTCHAR 04E5
ENCODING 1253
SWIDTH 630 0
DWIDTH 14 0
BBX 10 17 2 0
BITMAP
7300
7300
0000
0000
0000
C1C0
C3C0
C3C0
C7C0
C7C0
CDC0
CDC0
D9C0
D9C0
F1C0
E1C0
E1C0
ENDCHAR
STARTCHAR 04E6
ENCODING 1254
SWIDTH 630 0
DWIDTH 14 0
BBX 12 20 1 0
BITMAP
3980
39C0
1000
0000
0F00
3FC0
70C0
6060
E060
E060
C070
C070
C070
C070
C070
E060
6060
70E0
3FC0
1F80
ENDCHAR
STARTCHAR 04E7
ENCODING 1255
SWIDTH 630 0
DWIDTH 14 0
BBX 10 17 2 0
BITMAP
7300
7300
0000
0000
0000
3F00
7780
E180
C1C0
C0C0
C0C0
C0C0
C0C0
C1C0
E180
7780
3F00
ENDCHAR
STARTCHAR 04E8
ENCODING 1256
SWIDTH 630 0
DWIDTH 14 0
BBX 12 16 1 0
BITMAP
0F00
3FC0
70C0
6060
E060
E060
C070
FFF0
FFF0
C070
C070
E060
6060
70E0
3FC0
1F80
ENDCHAR
STARTCHAR 04E9
ENCODING 1257
SWIDTH 630 0
DWIDTH 14 0
BBX 10 12 2 0
BITMAP
3F00
7780
E180
C0C0
C0C0
FFC0
FFC0
C0C0
C1C0
E180
7780
3F00
ENDCHAR
STARTCHAR 04EA
ENCODING 1258
SWIDTH 630 0
DWIDTH 14 0
BBX 12 20 1 0
BITMAP
3980
39C0
1000
0000
0F00
3FC0
70C0
6060
E060
E060
C070
FFF0
FFF0
C070
C070
E060
6060
70E0
3FC0
1F80
ENDCHAR
STARTCHAR 04EB
ENCODING 1259
SWIDTH 630 0
DWIDTH 14 0
BBX 10 17 2 0
BITMAP
7380
7300
0000
0000
0000
3F00
7780
E180
C0C0
C0C0
FFC0
FFC0
C0C0
C1C0
E180
7780
3F00
ENDCHAR
STARTCHAR 04EC
ENCODING 1260
SWIDTH 630 0
DWIDTH 14 0
BBX 11 20 1 0
BITMAP
3180
3180
0000
0000
3F00
7F80
41C0
00E0
0060
0060
0060
3FE0
3FE0
0060
0060
0060
00E0
41C0
FF80
3F00
ENDCHAR
STARTCHAR 04ED
ENCODING 1261
SWIDTH 630 0
DWIDTH 14 0
BBX 10 17 2 0
BITMAP
7300
7300
0000
0000
0000
7E00
E780
0180
01C0
00C0
3FC0
3FC0
01C0
0180
0180
F700
7E00
ENDCHAR
STARTCHAR 04EE
ENCODING 1262
SWIDTH 630 0
DWIDTH 14 0
BBX 12 20 1 0
BITMAP
1F80
1F80
0000
0000
C030
C030
E060
6060
70E0
30C0
30C0
1980
1980
0F80
0F00
0700
0600
0E00
3C00
3800
ENDCHAR
STARTCHAR 04EF
ENCODING 1263
SWIDTH 630 0
DWIDTH 14 0
BBX 11 22 1 -5
BITMAP
1F80
1F80
0000
0000
0000
E060
6060
60E0
70C0
30C0
3180
1980
1980
1B00
0F00
0F00
0E00
0600
0E00
1C00
7800
2000
ENDCHAR
STARTCHAR 04F0
ENCODING 1264
SWIDTH 630 0
DWIDTH 14 0
BBX 12 20 1 0
BITMAP
39C0
39C0
1080
0000
C030
C030
E060
6060
70E0
30C0
30C0
1980
1980
0F80
0F00
0700
0600
0E00
3C00
3800
ENDCHAR
STARTCHAR 04F1
ENCODING 1265
SWIDTH 630 0
DWIDTH 14 0
BBX 11 22 1 -5
BITMAP
3980
3980
0000
0000
0000
E060
6060
60E0
70C0
30C0
3180
1980
1980
1B00
0F00
0F00
0E00
0600
0E00
1C00
7800
2000
ENDCHAR
STARTCHAR 04F2
ENCODING 1266
SWIDTH 630 0
DWIDTH 14 0
BBX 12 22 1 0
BITMAP
0440
06E0
0CC0
0980
0880
0000
C030
C030
E060
6060
70E0
30C0
30C0
1980
1980
0F80
0F00
0700
0600
0E00
3C00
3800
ENDCHAR
STARTCHAR 04F3
ENCODING 1267
SWIDTH 630 0
DWIDTH 14 0
BBX 11 24 1 -5
BITMAP
04C0
0CC0
0D80
1980
0000
0000
0000
E060
6060
60E0
70C0
30C0
3180
1980
1980
1B00
0F00
0F00
0E00
0600
0E00
1C00
7800
2000
ENDCHAR
STARTCHAR 04F4
ENCODING 1268
SWIDTH 630 0
DWIDTH 14 0
BBX 11 20 1 0
BITMAP
3180
3180
0000
0000
C060
C060
C060
C060
C060
C060
C060
E060
E0E0
7FE0
3E60
0060
0060
0060
0060
0060
ENDCHAR
STARTCHAR 04F5
ENCODING 1269
SWIDTH 630 0
DWIDTH 14 0
BBX 9 17 2 0
BITMAP
6300
6300
0000
0000
0000
C180
C180
C180
C180
C180
C180
E780
7D80
0180
0180
0180
0180
ENDCHAR
STARTCHAR 04F6
ENCODING 1270
SWIDTH 630 0
DWIDTH 14 0
BBX 9 19 3 -3
BITMAP
FF80
FF80
C000
C000
C000
C000
C000
C000
C000
C000
C000
C000
C000
C000
F000
F000
7000
3000
3000
ENDCHAR
STARTCHAR 04F7
ENCODING 1271
SWIDTH 630 0
DWIDTH 14 0
BBX 9 15 3 -3
BITMAP
FF80
FF80
E000
E000
E000
E000
E000
E000
E000
E000
F000
F000
3000
3000
1000
ENDCHAR
STARTCHAR 04F8
ENCODING 1272
SWIDTH 630 0
DWIDTH 14 0
BBX 12 20 1 0
BITMAP
3980
39C0
1000
0000
C030
C030
C030
C030
C030
C030
FC30
FF30
C330
C3B0
C3B0
C3B0
C3B0
C330
FF30
FC30
ENDCHAR
STARTCHAR 04F9
ENCODING 1273
SWIDTH 630 0
DWIDTH 14 0
BBX 11 17 1 0
BITMAP
3980
3980
0000
0000
0000
C060
C060
C060
C060
FC60
CE60
C360
C360
C360
C360
FE60
FC60
ENDCHAR
STARTCHAR 04FA
ENCODING 1274
SWIDTH 630 0
DWIDTH 14 0
BBX 11 21 2 -5
BITMAP
3FE0
3FE0
3000
3000
3000
3000
FF00
FF00
3000
3000
3000
3000
3000
3000
3C00
3C00
1C00
1C00
1800
F800
F000
ENDCHAR
STARTCHAR 04FB
ENCODING 1275
SWIDTH 630 0
DWIDTH 14 0
BBX 11 17 2 -5
BITMAP
3FE0
3FC0
3000
3000
3000
FE00
FE00
3000
3000
3000
3C00
3C00
1C00
1C00
1C00
F800
F000
ENDCHAR
STARTCHAR 04FC
ENCODING 1276
SWIDTH 630 0
DWIDTH 14 0
BBX 12 21 1 -5
BITMAP
C060
E0C0
60C0
3180
3B80
1B00
1E00
0E00
0E00
1B00
3B80
3180
71C0
60C0
E0F0
C070
0030
0030
0030
03F0
01E0
ENDCHAR
STARTCHAR 04FD
ENCODING 1277
SWIDTH 630 0
DWIDTH 14 0
BBX 12 17 1 -5
BITMAP
60C0
71C0
3180
1B00
1F00
0E00
0F00
1B00
3B80
31C0
60F0
E0F0
0070
0070
0070
03E0
03C0
ENDCHAR
STARTCHAR 04FE
ENCODING 1278
SWIDTH 630 0
DWIDTH 14 0
BBX 12 16 1 0
BITMAP
E060
60E0
70C0
31C0
1980
1B00
0F00
FFF0
0F00
1F00
1980
3180
30C0
60E0
E060
C070
ENDCHAR
STARTCHAR 04FF
ENCODING 1279
SWIDTH 630 0
DWIDTH 14 0
BBX 11 12 1 0
BITMAP
60E0
30C0
3980
1B80
0F00
7FE0
0F00
1B00
1980
31C0
70E0
E060
ENDCHAR
STARTCHAR 0500
ENCODING 1280
SWIDTH 630 0
DWIDTH 14 0
BBX 11 16 1 0
BITMAP
00E0
00E0
00E0
00E0
00E0
00E0
0FE0
3FE0
70E0
E0E0
C0E0
C0E0
E0E0
60E0
7FE0
1FE0
ENDCHAR
STARTCHAR 0501
ENCODING 1281
SWIDTH 630 0
DWIDTH 14 0
BBX 11 17 1 0
BITMAP
00E0
00E0
00E0
00E0
00E0
1FE0
3BE0
70E0
60E0
60E0
E0E0
E0E0
60E0
60E0
70E0
3BE0
3E60
ENDCHAR
STARTCHAR 0502
ENCODING 1282
SWIDTH 630 0
DWIDTH 14 0
BBX 13 16 0 0
BITMAP
0300
0300
0300
0300
0300
0300
1F00
3F18
6318
E318
C318
C318
C318
E318
77B0
3DF0
ENDCHAR
STARTCHAR 0503
ENCODING 1283
SWIDTH 630 0
DWIDTH 14 0
BBX 13 17 0 0
BITMAP
0300
0300
0300
0300
0300
3F00
7700
6300
E318
C318
C318
C318
C318
E318
6318
75B8
3DF0
ENDCHAR
STARTCHAR 0504
ENCODING 1284
SWIDTH 630 0
DWIDTH 14 0
BBX 12 16 1 0
BITMAP
F000
FC00
0E00
0600
0700
0700
0600
1E30
F830
3030
1830
1830
1C30
0C70
07E0
07C0
ENDCHAR
STARTCHAR 0505
ENCODING 1285
SWIDTH 630 0
DWIDTH 14 0
BBX 13 12 0 0
BITMAP
FC00
FE00
0700
0318
0318
0718
7E18
1C18
0C18
0638
0770
03E0
ENDCHAR
STARTCHAR 0506
ENCODING 1286
SWIDTH 630 0
DWIDTH 14 0
BBX 11 19 2 -3
BITMAP
FC00
FF00
0380
0180
0180
0180
0180
0780
FE00
0C00
0E00
0600
0700
0380
01E0
01E0
0060
0060
0060
ENDCHAR
STARTCHAR 0507
ENCODING 1287
SWIDTH 630 0
DWIDTH 14 0
BBX 10 15 2 -3
BITMAP
FE00
FF00
0380
0380
0380
0700
7E00
0C00
0600
0700
03C0
01C0
00C0
00C0
00C0
ENDCHAR
STARTCHAR 0508
ENCODING 1288
SWIDTH 630 0
DWIDTH 14 0
BBX 13 16 0 0
BITMAP
3F00
3F00
3300
3300
3300
3300
3300
3318
3318
3318
3318
7318
6318
6398
E1B8
41F0
ENDCHAR
STARTCHAR 0509
ENCODING 1289
SWIDTH 630 0
DWIDTH 14 0
BBX 13 12 0 0
BITMAP
3F00
3F00
3300
3318
3318
3318
3318
6318
6318
6318
E1B8
C1F0
ENDCHAR
STARTCHAR 050A
ENCODING 1290
SWIDTH 630 0
DWIDTH 14 0
BBX 12 16 1 0
BITMAP
C600
C600
C600
C600
C600
C600
C600
FE30
FE30
C630
C630
C630
C630
C730
C370
C3E0
ENDCHAR
STARTCHAR 050B
ENCODING 1291
SWIDTH 630 0
DWIDTH 14 0
BBX 13 12 1 0
BITMAP
C600
C600
C600
C630
C630
FE38
FE38
C630
C630
C630
C370
C3E0
ENDCHAR
STARTCHAR 050C
ENCODING 1292
SWIDTH 630 0
DWIDTH 14 0
BBX 11 16 1 0
BITMAP
0F80
1FE0
3060
6000
6000
E000
C000
C3E0
C3E0
C060
E060
E060
6060
7060
3FE0
1FC0
ENDCHAR
STARTCHAR 050D
ENCODING 1293
SWIDTH 630 0
DWIDTH 14 0
BBX 9 12 2 0
BITMAP
3F00
7F80
E000
C000
C000
C780
C780
C180
C180
E180
7380
3F80
ENDCHAR
STARTCHAR 050E
ENCODING 1294
SWIDTH 630 0
DWIDTH 14 0
BBX 13 16 0 0
BITMAP
FFE0
FFE0
0E00
0E00
0E00
0E00
0E00
0E18
0E18
0E18
0E18
0E18
0E18
0E30
0770
03E0
ENDCHAR
STARTCHAR 050F
ENCODING 1295
SWIDTH 630 0
DWIDTH 14 0
BBX 12 12 0 0
BITMAP
FFC0
FFC0
0C00
0C00
0C30
0C30
0C30
0C30
0C30
0C30
0EE0
07C0
ENDCHAR
STARTCHAR 0510
ENCODING 1296
SWIDTH 630 0
DWIDTH 14 0
BBX 11 16 1 0
BITMAP
0F80
3FE0
7060
6000
6000
6000
3800
0F80
3F80
6000
E000
E000
E000
6020
7FE0
1FC0
ENDCHAR
STARTCHAR 0511
ENCODING 1297
SWIDTH 630 0
DWIDTH 14 0
BBX 10 12 2 0
BITMAP
3F80
71C0
6000
6000
7000
1F00
7E00
C000
C000
C040
FBC0
3F80
ENDCHAR
STARTCHAR 0512
ENCODING 1298
SWIDTH 630 0
DWIDTH 14 0
BBX 12 21 0 -5
BITMAP
0FF0
0FF0
1C30
1C30
1830
1830
1830
1830
1830
1830
3830
3030
3030
7030
E030
4030
0030
0030
0070
03E0
01C0
ENDCHAR
STARTCHAR 0513
ENCODING 1299
SWIDTH 630 0
DWIDTH 14 0
BBX 11 17 1 -5
BITMAP
3FE0
3FE0
30E0
30E0
30E0
30E0
30E0
30E0
70E0
60E0
E0E0
C0E0
00E0
00E0
00E0
07C0
0780
ENDCHAR
STARTCHAR 0514
ENCODING 1300
SWIDTH 630 0
DWIDTH 14 0
BBX 14 16 0 0
BITMAP
3E18
3E18
3318
3330
31B0
31E0
31E0
30C0
31E0
31E0
71B0
6330
6330
6618
E618
461C
ENDCHAR
STARTCHAR 0515
ENCODING 1301
SWIDTH 630 0
DWIDTH 14 0
BBX 12 12 1 0
BITMAP
7E30
7E30
6360
6360
63C0
61C0
61C0
63C0
6360
C660
C630
8C30
ENDCHAR
STARTCHAR 0516
ENCODING 1302
SWIDTH 630 0
DWIDTH 14 0
BBX 12 16 1 0
BITMAP
F830
FE30
C660
C360
C3C0
C3C0
C380
C780
DF80
FD80
C1C0
C0C0
C0E0
C060
C070
C030
ENDCHAR
STARTCHAR 0517
ENCODING 1303
SWIDTH 630 0
DWIDTH 14 0
BBX 12 17 1 -5
BITMAP
DE30
F630
C360
C360
C3C0
C3C0
C3C0
C3C0
C360
C660
FE30
FC30
C000
C000
C000
C000
C000
ENDCHAR
STARTCHAR 0518
ENCODING 1304
SWIDTH 630 0
DWIDTH 14 0
BBX 14 16 0 0
BITMAP
0FF8
3FF8
7180
6180
E180
E180
6180
71F0
3FF0
1F80
1980
3180
3180
7180
61FC
E1FC
ENDCHAR
STARTCHAR 0519
ENCODING 1305
SWIDTH 630 0
DWIDTH 14 0
BBX 14 12 0 0
BITMAP
1FF0
7FB8
6318
C318
E60C
67FC
3FFC
3600
3300
6300
6398
C1F8
ENDCHAR
STARTCHAR 051A
ENCODING 1306
SWIDTH 630 0
DWIDTH 14 0
BBX 12 20 1 -4
BITMAP
0F00
3FC0
70C0
6060
E060
E060
C070
C070
C070
C070
C070
E060
6060
70C0
3FC0
1F80
01E0
0070
0030
0030
ENDCHAR
STARTCHAR 051B
ENCODING 1307
SWIDTH 630 0
DWIDTH 14 0
BBX 10 17 2 -5
BITMAP
3EC0
77C0
E1C0
C1C0
C1C0
C1C0
C1C0
C1C0
C1C0
E1C0
77C0
7DC0
01C0
01C0
01C0
01C0
01C0
ENDCHAR
STARTCHAR 051C
ENCODING 1308
SWIDTH 630 0
DWIDTH 14 0
BBX 14 16 0 0
BITMAP
C00C
C018
E318
6718
6718
6798
6598
6598
65B0
6CB0
6CB0
3CF0
3CF0
38F0
38F0
38E0
ENDCHAR
STARTCHAR 051D
ENCODING 1309
SWIDTH 630 0
DWIDTH 14 0
BBX 13 12 0 0
BITMAP
E018
6018
6318
6718
6798
6790
65B0
34B0
3CB0
3CF0
3CF0
38E0
ENDCHAR
STARTCHAR 051E
ENCODING 1310
SWIDTH 630 0
DWIDTH 14 0
BBX 11 16 2 0
BITMAP
C0E0
C8C0
DD80
C780
C3C0
C6E0
CE00
FC00
FC00
CE00
C700
C300
C380
C1C0
C0C0
C0E0
ENDCHAR
STARTCHAR 051F
ENCODING 1311
SWIDTH 630 0
DWIDTH 14 0
BBX 11 12 2 0
BITMAP
C0C0
CD80
C780
C380
C6C0
FE00
C600
C700
C380
C180
C1C0
C0E0
ENDCHAR
STARTCHAR 0520
ENCODING 1312
SWIDTH 630 0
DWIDTH 14 0
BBX 13 21 0 -5
BITMAP
3F00
3F00
3300
3300
3300
3300
33F0
33F8
7318
6318
6318
6318
6318
6318
C318
C318
0018
0018
0018
00F8
00F0
ENDCHAR
STARTCHAR 0521
ENCODING 1313
SWIDTH 630 0
DWIDTH 14 0
BBX 14 17 0 -5
BITMAP
3F00
3F00
3300
3300
6370
63F8
631C
631C
631C
631C
C31C
C31C
001C
001C
0018
00F8
00F0
ENDCHAR
STARTCHAR 0522
ENCODING 1314
SWIDTH 630 0
DWIDTH 14 0
BBX 12 21 1 -5
BITMAP
C600
C600
C600
C600
C600
C600
C7E0
FFF0
FE30
C630
C630
C630
C630
C630
C630
C630
0030
0030
0030
01F0
01E0
ENDCHAR
STARTCHAR 0523
ENCODING 1315
SWIDTH 630 0
DWIDTH 14 0
BBX 13 17 1 -5
BITMAP
C600
C600
C600
C600
C6E0
FFF0
FE38
C638
C638
C638
C638
C638
0038
0038
0030
01F0
01E0
ENDCHAR
STARTCHAR 0524
ENCODING 1316
SWIDTH 630 0
DWIDTH 14 0
BBX 11 19 2 -3
BITMAP
FFC0
FFC0
C0C0
C0C0
C0C0
C0C0
C0C0
C0C0
C0C0
C0C0
C0C0
C0C0
C0C0
C0C0
C0E0
C0E0
0060
0060
0060
ENDCHAR
STARTCHAR 0525
ENCODING 1317
SWIDTH 630 0
DWIDTH 14 0
BBX 11 15 2 -3
BITMAP
FF80
FF80
C180
C180
C180
C180
C180
C180
C180
C180
C1E0
C1E0
0060
0060
0060
ENDCHAR
STARTCHAR 0526
ENCODING 1318
SWIDTH 630 0
DWIDTH 14 0
BBX 12 19 2 -3
BITMAP
C000
C000
C000
C000
C000
C000
DF80
FFC0
E0C0
C0C0
C0C0
C0C0
C0C0
C0C0
C0F0
C0F0
0030
0030
0030
ENDCHAR
STARTCHAR 0527
ENCODING 1319
SWIDTH 630 0
DWIDTH 14 0
BBX 11 20 2 -3
BITMAP
C000
C000
C000
C000
C000
C000
CF00
DF80
E180
C180
C180
C180
C180
C180
C180
C1E0
C1E0
0060
0060
0060
ENDCHAR
STARTCHAR 0528
ENCODING 1320
SWIDTH 630 0
DWIDTH 14 0
BBX 14 21 -2 -5
BITMAP
0C0C
0C0C
0C0C
0C0C
0C0C
0C0C
0C0C
0FFC
0FFC
0C0C
0C0C
0C0C
0C0C
0C0C
0C0C
0C0C
0C00
0C00
0C00
F800
7000
ENDCHAR
STARTCHAR 0529
ENCODING 1321
SWIDTH 630 0
DWIDTH 14 0
BBX 13 17 -1 -5
BITMAP
1838
1838
1838
1838
1838
1FF8
1FF8
1838
1838
1838
1838
1838
1800
1800
1800
F800
F000
ENDCHAR
STARTCHAR 052A
ENCODING 1322
SWIDTH 630 0
DWIDTH 14 0
BBX 14 19 0 -3
BITMAP
3EC8
3EC8
36D8
36D8
36D8
36D0
36F0
37F0
37F0
26F0
66D8
66D8
66D8
66D8
FFCC
FFCC
8100
8100
8100
ENDCHAR
STARTCHAR 052B
ENCODING 1323
SWIDTH 630 0
DWIDTH 14 0
BBX 14 15 0 -3
BITMAP
3E88
3E98
3698
26B0
26B0
67F0
66B0
66B0
6698
6698
FF98
FF8C
C300
8300
8300
ENDCHAR
STARTCHAR 052C
ENCODING 1324
SWIDTH 630 0
DWIDTH 14 0
BBX 12 19 1 -3
BITMAP
C7E0
CFE0
CE60
CC60
CC60
EC60
7C60
3FE0
1FE0
1860
1860
1860
3060
3060
FFF0
FFF0
C030
C030
C030
ENDCHAR
STARTCHAR 052D
ENCODING 1325
SWIDTH 630 0
DWIDTH 14 0
BBX 12 15 1 -3
BITMAP
CFC0
CFC0
CCC0
DCC0
78C0
7FC0
18C0
18C0
18C0
30C0
FFF0
FFF0
C030
C030
C030
ENDCHAR
STARTCHAR 052E
ENCODING 1326
SWIDTH 630 0
DWIDTH 14 0
BBX 13 19 0 -3
BITMAP
1FE0
1FE0
1860
1860
1860
1860
1860
1860
3860
3860
3060
3060
3060
7060
E078
4078
0038
0018
0018
ENDCHAR
STARTCHAR 052F
ENCODING 1327
SWIDTH 630 0
DWIDTH 14 0
BBX 12 15 1 -3
BITMAP
3FC0
3FC0
30C0
30C0
30C0
30C0
30C0
30C0
60C0
60C0
E0F0
C0F0
0030
0030
0030
ENDCHAR
STARTCHAR 1405
ENCODING 5125
SWIDTH 630 0
DWIDTH 14 0
BBX 11 13 1 2
BITMAP
C000
F000
BC00
8E00
8380
81E0
80E0
83C0
8F00
9C00
F000
E000
8000
ENDCHAR
STARTCHAR 140A
ENCODING 5130
SWIDTH 630 0
DWIDTH 14 0
BBX 12 14 1 1
BITMAP
0010
0070
00F0
03F0
0F30
3C30
7030
F030
3C30
0E30
03B0
01F0
0070
0010
ENDCHAR
STARTCHAR 1E80
ENCODING 7808
SWIDTH 630 0
DWIDTH 14 0
BBX 14 21 0 0
BITMAP
0400
0F00
0380
0080
0000
C00C
C018
E318
6718
6718
6798
6598
6598
65B0
6CB0
6CB0
3CF0
3CF0
38F0
38F0
38E0
ENDCHAR
STARTCHAR 1E81
ENCODING 7809
SWIDTH 630 0
DWIDTH 14 0
BBX 13 18 0 0
BITMAP
0400
0F00
0380
0080
0000
0000
E018
6018
6318
6718
6798
6790
65B0
34B0
3CB0
3CF0
3CF0
38E0
ENDCHAR
STARTCHAR 1E82
ENCODING 7810
SWIDTH 630 0
DWIDTH 14 0
BBX 14 21 0 0
BITMAP
0080
0380
0F00
0000
0000
C00C
C018
E318
6718
6718
6798
6598
6598
65B0
6CB0
6CB0
3CF0
3CF0
38F0
38F0
38E0
ENDCHAR
STARTCHAR 1E83
ENCODING 7811
SWIDTH 630 0
DWIDTH 14 0
BBX 13 18 0 0
BITMAP
0180
03C0
0E00
0000
0000
0000
E018
6018
6318
6718
6798
6790
65B0
34B0
3CB0
3CF0
3CF0
38E0
ENDCHAR
STARTCHAR 1E84
ENCODING 7812
SWIDTH 630 0
DWIDTH 14 0
BBX 14 20 0 0
BITMAP
1CC0
1CE0
0800
0000
C00C
C018
E318
6718
6718
6798
6598
6598
65B0
6CB0
6CB0
3CF0
3CF0
38F0
38F0
38E0
ENDCHAR
STARTCHAR 1E85
ENCODING 7813
SWIDTH 630 0
DWIDTH 14 0
BBX 13 17 0 0
BITMAP
1CC0
1CC0
0000
0000
0000
E018
6018
6318
6718
6798
6790
65B0
34B0
3CB0
3CF0
3CF0
38E0
ENDCHAR
STARTCHAR 1E9E
ENCODING 7838
SWIDTH 630 0
DWIDTH 14 0
BBX 11 16 2 0
BITMAP
3F00
7FC0
C0C0
C1C0
C380
C300
C600
CF00
C3C0
C0E0
C060
C060
C060
C0E0
CFC0
CF80
ENDCHAR
STARTCHAR 1EF2
ENCODING 7922
SWIDTH 630 0
DWIDTH 14 0
BBX 12 21 1 0
BITMAP
0800
1E00
0700
0100
0000
C030
E070
6060
70E0
30C0
3980
1980
1F00
0F00
0E00
0600
0600
0600
0600
0600
0600
ENDCHAR
STARTCHAR 1EF3
ENCODING 7923
SWIDTH 630 0
DWIDTH 14 0
BBX 11 23 1 -5
BITMAP
0800
1E00
0700
0100
0000
0000
E060
6060
60E0
70C0
30C0
3180
1980
1980
1B00
0F00
0F00
0E00
0600
0E00
1C00
7800
2000
ENDCHAR
STARTCHAR 1F00
ENCODING 7936
SWIDTH 630 0
DWIDTH 14 0
BBX 11 18 1 0
BITMAP
0600
0600
0600
0400
0400
0000
3E60
7360
6160
61C0
E0C0
E0C0
E0C0
E0C0
E1C0
61C0
7760
3E60
ENDCHAR
STARTCHAR 1F01
ENCODING 7937
SWIDTH 630 0
DWIDTH 14 0
BBX 11 18 1 0
BITMAP
1C00
1C00
0800
0C00
0400
0000
3E60
7360
6160
61C0
E0C0
E0C0
E0C0
E0C0
E1C0
61C0
7760
3E60
ENDCHAR
STARTCHAR 1F02
ENCODING 7938
SWIDTH 630 0
DWIDTH 14 0
BBX 11 18 1 0
BITMAP
3E00
3B00
3300
3300
2100
0000
3E60
7360
6160
61C0
E0C0
E0C0
E0C0
E0C0
E1C0
61C0
7760
3E60
ENDCHAR
STARTCHAR 1F03
ENCODING 7939
SWIDTH 630 0
DWIDTH 14 0
BBX 11 18 1 0
BITMAP
3600
7600
3200
3300
1300
0000
3E60
7360
6160
61C0
E0C0
E0C0
E0C0
E0C0
E1C0
61C0
7760
3E60
ENDCHAR
STARTCHAR 1F04
ENCODING 7940
SWIDTH 630 0
DWIDTH 14 0
BBX 11 18 1 0
BITMAP
1D80
1D80
1900
1B00
1300
0000
3E60
7360
6160
61C0
E0C0
E0C0
E0C0
E0C0
E1C0
61C0
7760
3E60
ENDCHAR
STARTCHAR 1F05
ENCODING 7941
SWIDTH 630 0
DWIDTH 14 0
BBX 11 18 1 0
BITMAP
3980
3B00
1B00
1B00
0A00
0000
3E60
7360
6160
61C0
E0C0
E0C0
E0C0
E0C0
E1C0
61C0
7760
3E60
ENDCHAR
STARTCHAR 1F06
ENCODING 7942
SWIDTH 630 0
DWIDTH 14 0
BBX 11 20 1 0
BITMAP
1C80
3F80
0300
0600
0E00
0600
0400
0000
3E60
7360
6160
61C0
E0C0
E0C0
E0C0
E0C0
E1C0
61C0
7760
3E60
ENDCHAR
STARTCHAR 1F07
ENCODING 7943
SWIDTH 630 0
DWIDTH 14 0
BBX 11 20 1 0
BITMAP
1880
3F80
2300
0C00
0E00
0C00
0400
0000
3E60
7360
6160
61C0
E0C0
E0C0
E0C0
E0C0
E1C0
61C0
7760
3E60
ENDCHAR
STARTCHAR 1F08
ENCODING 7944
SWIDTH 630 0
DWIDTH 14 0
BBX 12 16 1 0
BITMAP
EE00
EF00
4F00
DB00
DB80
1980
3180
31C0
30C0
70C0
7FE0
7FE0
E060
C070
C070
C030
ENDCHAR
STARTCHAR 1F09
ENCODING 7945
SWIDTH 630 0
DWIDTH 14 0
BBX 12 16 1 0
BITMAP
CE00
CF00
CF00
DB00
5B80
1980
3180
31C0
30C0
70C0
7FE0
7FE0
E060
C070
C070
C030
ENDCHAR
STARTCHAR 1F0A
ENCODING 7946
SWIDTH 630 0
DWIDTH 14 0
BBX 16 16 -3 0
BITMAP
40E0
ECF0
ECF0
CDB0
C5B8
0198
0318
031C
030C
070C
07FE
07FE
0E06
0C07
0C07
0C03
ENDCHAR
STARTCHAR 1F0B
ENCODING 7947
SWIDTH 630 0
DWIDTH 14 0
BBX 16 16 -3 0
BITMAP
C0E0
ECF0
CCF0
4DB0
45B8
0198
0318
031C
030C
070C
07FE
07FE
0E06
0C07
0C07
0C03
ENDCHAR
STARTCHAR 1F0C
ENCODING 7948
SWIDTH 630 0
DWIDTH 14 0
BBX 15 16 -2 0
BITMAP
C9C0
CDE0
D9E0
DB60
9B70
0330
0630
0638
0618
0E18
0FFC
0FFC
1C0C
180E
180E
1806
ENDCHAR
STARTCHAR 1F0D
ENCODING 7949
SWIDTH 630 0
DWIDTH 14 0
BBX 15 16 -2 0
BITMAP
C9C0
CDE0
C9E0
DB60
5B70
0330
0630
0638
0618
0E18
0FFC
0FFC
1C0C
180E
180E
1806
ENDCHAR
STARTCHAR 1F0E
ENCODING 7950
SWIDTH 630 0
DWIDTH 14 0
BBX 16 16 -3 0
BITMAP
72E0
FEF0
0CF0
19B0
39B8
1998
1318
031C
030C
070C
07FE
07FE
0E06
0C07
0C07
0C03
ENDCHAR
STARTCHAR 1F0F
ENCODING 7951
SWIDTH 630 0
DWIDTH 14 0
BBX 16 16 -3 0
BITMAP
72E0
FEF0
0CF0
19B0
39B8
1198
1B18
031C
030C
070C
07FE
07FE
0E06
0C07
0C07
0C03
ENDCHAR
STARTCHAR 1F10
ENCODING 7952
SWIDTH 630 0
DWIDTH 14 0
BBX 10 18 2 0
BITMAP
0600
0600
0600
0400
0400
0000
3F80
7180
E000
E000
6000
1E00
7E00
C000
C000
C040
FBC0
3F80
ENDCHAR
STARTCHAR 1F11
ENCODING 7953
SWIDTH 630 0
DWIDTH 14 0
BBX 10 18 2 0
BITMAP
1C00
1800
1800
0800
0C00
0000
3F80
7180
E000
E000
6000
1E00
7E00
C000
C000
C040
FBC0
3F80
ENDCHAR
STARTCHAR 1F12
ENCODING 7954
SWIDTH 630 0
DWIDTH 14 0
BBX 10 18 2 0
BITMAP
3600
3300
3300
3300
2100
0000
3F80
7180
E000
E000
6000
1E00
7E00
C000
C000
C040
FBC0
3F80
ENDCHAR
STARTCHAR 1F13
ENCODING 7955
SWIDTH 630 0
DWIDTH 14 0
BBX 10 18 2 0
BITMAP
7600
7600
3200
3300
1300
0000
3F80
7180
E000
E000
6000
1E00
7E00
C000
C000
C040
FBC0
3F80
ENDCHAR
STARTCHAR 1F14
ENCODING 7956
SWIDTH 630 0
DWIDTH 14 0
BBX 10 18 2 0
BITMAP
1980
1980
1900
1B00
1300
0000
3F80
7180
E000
E000
6000
1E00
7E00
C000
C000
C040
FBC0
3F80
ENDCHAR
STARTCHAR 1F15
ENCODING 7957
SWIDTH 630 0
DWIDTH 14 0
BBX 10 18 2 0
BITMAP
3B00
3B00
1300
1A00
0A00
0000
3F80
7180
E000
E000
6000
1E00
7E00
C000
C000
C040
FBC0
3F80
ENDCHAR
STARTCHAR 1F18
ENCODING 7960
SWIDTH 630 0
DWIDTH 14 0
BBX 13 16 -1 0
BITMAP
EFF8
EFF8
6C00
CC00
CC00
0C00
0C00
0FF0
0FF0
0C00
0C00
0C00
0C00
0C00
0FF8
0FF8
ENDCHAR
STARTCHAR 1F19
ENCODING 7961
SWIDTH 630 0
DWIDTH 14 0
BBX 13 16 -1 0
BITMAP
CFF8
CFF8
CC00
4C00
4C00
0C00
0C00
0FF0
0FF0
0C00
0C00
0C00
0C00
0C00
0FF8
0FF8
ENDCHAR
STARTCHAR 1F1A
ENCODING 7962
SWIDTH 630 0
DWIDTH 14 0
BBX 17 16 -5 0
BITMAP
64FF80
ECFF80
6CC000
44C000
46C000
00C000
00C000
00FF00
00FF00
00C000
00C000
00C000
00C000
00C000
00FF80
00FF80
ENDCHAR
STARTCHAR 1F1B
ENCODING 7963
SWIDTH 630 0
DWIDTH 14 0
BBX 17 16 -5 0
BITMAP
64FF80
ECFF80
6CC000
64C000
66C000
00C000
00C000
00FF00
00FF00
00C000
00C000
00C000
00C000
00C000
00FF80
00FF80
ENDCHAR
STARTCHAR 1F1C
ENCODING 7964
SWIDTH 630 0
DWIDTH 14 0
BBX 16 16 -4 0
BITMAP
C9FF
CDFF
C980
D980
9980
0180
0180
01FE
01FE
0180
0180
0180
0180
0180
01FF
01FF
ENDCHAR
STARTCHAR 1F1D
ENCODING 7965
SWIDTH 630 0
DWIDTH 14 0
BBX 16 16 -4 0
BITMAP
C9FF
CDFF
CD80
D980
5980
0180
0180
01FE
01FE
0180
0180
0180
0180
0180
01FF
01FF
ENDCHAR
STARTCHAR 1F20
ENCODING 7968
SWIDTH 630 0
DWIDTH 14 0
BBX 10 23 2 -5
BITMAP
0E00
0E00
0400
0C00
0800
0000
DF80
FB80
E180
C1C0
C1C0
C1C0
C1C0
C1C0
C1C0
C1C0
C1C0
C1C0
01C0
01C0
01C0
01C0
01C0
ENDCHAR
STARTCHAR 1F21
ENCODING 7969
SWIDTH 630 0
DWIDTH 14 0
BBX 10 23 2 -5
BITMAP
1800
1800
1800
0800
0800
0000
DF80
FB80
E180
C1C0
C1C0
C1C0
C1C0
C1C0
C1C0
C1C0
C1C0
C1C0
01C0
01C0
01C0
01C0
01C0
ENDCHAR
STARTCHAR 1F22
ENCODING 7970
SWIDTH 630 0
DWIDTH 14 0
BBX 10 23 2 -5
BITMAP
3600
3600
3200
2300
6300
0000
DF80
FB80
E180
C1C0
C1C0
C1C0
C1C0
C1C0
C1C0
C1C0
C1C0
C1C0
01C0
01C0
01C0
01C0
01C0
ENDCHAR
STARTCHAR 1F23
ENCODING 7971
SWIDTH 630 0
DWIDTH 14 0
BBX 10 23 2 -5
BITMAP
7E00
7600
6600
2200
3200
0000
DF80
FB80
E180
C1C0
C1C0
C1C0
C1C0
C1C0
C1C0
C1C0
C1C0
C1C0
01C0
01C0
01C0
01C0
01C0
ENDCHAR
STARTCHAR 1F24
ENCODING 7972
SWIDTH 630 0
DWIDTH 14 0
BBX 10 23 2 -5
BITMAP
1980
1B00
1B00
1300
3200
0000
DF80
FB80
E180
C1C0
C1C0
C1C0
C1C0
C1C0
C1C0
C1C0
C1C0
C1C0
01C0
01C0
01C0
01C0
01C0
ENDCHAR
STARTCHAR 1F25
ENCODING 7973
SWIDTH 630 0
DWIDTH 14 0
BBX 10 23 2 -5
BITMAP
3300
3300
3200
1600
1E00
0000
DF80
FB80
E180
C1C0
C1C0
C1C0
C1C0
C1C0
C1C0
C1C0
C1C0
C1C0
01C0
01C0
01C0
01C0
01C0
ENDCHAR
STARTCHAR 1F26
ENCODING 7974
SWIDTH 630 0
DWIDTH 14 0
BBX 10 25 2 -5
BITMAP
1800
3F80
2700
0C00
0E00
0400
0C00
0000
DF80
FB80
E180
C1C0
C1C0
C1C0
C1C0
C1C0
C1C0
C1C0
C1C0
C1C0
01C0
01C0
01C0
01C0
01C0
ENDCHAR
STARTCHAR 1F27
ENCODING 7975
SWIDTH 630 0
DWIDTH 14 0
BBX 10 25 2 -5
BITMAP
3900
7F00
2600
0C00
0C00
0800
0C00
0000
DF80
FB80
E180
C1C0
C1C0
C1C0
C1C0
C1C0
C1C0
C1C0
C1C0
C1C0
01C0
01C0
01C0
01C0
01C0
ENDCHAR
STARTCHAR 1F28
ENCODING 7976
SWIDTH 630 0
DWIDTH 14 0
BBX 14 16 -2 0
BITMAP
6C0C
EC0C
6C0C
4C0C
CC0C
0C0C
0C0C
0FFC
0FFC
0C0C
0C0C
0C0C
0C0C
0C0C
0C0C
0C0C
ENDCHAR
STARTCHAR 1F29
ENCODING 7977
SWIDTH 630 0
DWIDTH 14 0
BBX 14 16 -2 0
BITMAP
CC0C
CC0C
CC0C
4C0C
4C0C
0C0C
0C0C
0FFC
0FFC
0C0C
0C0C
0C0C
0C0C
0C0C
0C0C
0C0C
ENDCHAR
STARTCHAR 1F2A
ENCODING 7978
SWIDTH 630 0
DWIDTH 14 0
BBX 17 16 -5 0
BITMAP
C98180
D98180
D98180
898180
8D8180
018180
018180
01FF80
01FF80
018180
018180
018180
018180
018180
018180
018180
ENDCHAR
STARTCHAR 1F2B
ENCODING 7979
SWIDTH 630 0
DWIDTH 14 0
BBX 18 16 -6 0
BITMAP
64C0C0
ECC0C0
6CC0C0
64C0C0
26C0C0
00C0C0
00C0C0
00FFC0
00FFC0
00C0C0
00C0C0
00C0C0
00C0C0
00C0C0
00C0C0
00C0C0
ENDCHAR
STARTCHAR 1F2C
ENCODING 7980
SWIDTH 630 0
DWIDTH 14 0
BBX 17 16 -5 0
BITMAP
C98180
CD8180
C98180
D98180
998180
018180
018180
01FF80
01FF80
018180
018180
018180
018180
018180
018180
018180
ENDCHAR
STARTCHAR 1F2D
ENCODING 7981
SWIDTH 630 0
DWIDTH 14 0
BBX 17 16 -5 0
BITMAP
C98180
CD8180
CD8180
D98180
598180
018180
018180
01FF80
01FF80
018180
018180
018180
018180
018180
018180
018180
ENDCHAR
STARTCHAR 1F2E
ENCODING 7982
SWIDTH 630 0
DWIDTH 14 0
BBX 18 16 -6 0
BITMAP
72C0C0
FEC0C0
0CC0C0
18C0C0
38C0C0
18C0C0
10C0C0
00FFC0
00FFC0
00C0C0
00C0C0
00C0C0
00C0C0
00C0C0
00C0C0
00C0C0
ENDCHAR
STARTCHAR 1F2F
ENCODING 7983
SWIDTH 630 0
DWIDTH 14 0
BBX 18 16 -6 0
BITMAP
72C0C0
FEC0C0
0CC0C0
38C0C0
38C0C0
10C0C0
18C0C0
00FFC0
00FFC0
00C0C0
00C0C0
00C0C0
00C0C0
00C0C0
00C0C0
00C0C0
ENDCHAR
STARTCHAR 1F30
ENCODING 7984
SWIDTH 630 0
DWIDTH 14 0
BBX 11 18 1 0
BITMAP
0700
0700
0600
0600
0400
0000
FE00
FE00
0E00
0E00
0E00
0E00
0E00
0E00
0E00
0E00
07E0
07E0
ENDCHAR
STARTCHAR 1F31
ENCODING 7985
SWIDTH 630 0
DWIDTH 14 0
BBX 11 18 1 0
BITMAP
1C00
1C00
0C00
0C00
0400
0000
FE00
FE00
0E00
0E00
0E00
0E00
0E00
0E00
0E00
0E00
07E0
07E0
ENDCHAR
STARTCHAR 1F32
ENCODING 7986
SWIDTH 630 0
DWIDTH 14 0
BBX 11 18 1 0
BITMAP
3B00
3B00
1300
3100
2180
0000
FE00
FE00
0E00
0E00
0E00
0E00
0E00
0E00
0E00
0E00
07E0
07E0
ENDCHAR
STARTCHAR 1F33
ENCODING 7987
SWIDTH 630 0
DWIDTH 14 0
BBX 11 18 1 0
BITMAP
3600
3600
3300
1300
1100
0000
FE00
FE00
0E00
0E00
0E00
0E00
0E00
0E00
0E00
0E00
07E0
07E0
ENDCHAR
STARTCHAR 1F34
ENCODING 7988
SWIDTH 630 0
DWIDTH 14 0
BBX 11 18 1 0
BITMAP
1D80
1D80
0980
1900
1300
0000
FE00
FE00
0E00
0E00
0E00
0E00
0E00
0E00
0E00
0E00
07E0
07E0
ENDCHAR
STARTCHAR 1F35
ENCODING 7989
SWIDTH 630 0
DWIDTH 14 0
BBX 11 18 1 0
BITMAP
1980
1900
1B00
1B00
0A00
0000
FE00
FE00
0E00
0E00
0E00
0E00
0E00
0E00
0E00
0E00
07E0
07E0
ENDCHAR
STARTCHAR 1F36
ENCODING 7990
SWIDTH 630 0
DWIDTH 14 0
BBX 11 20 1 0
BITMAP
1C80
3F80
0300
0600
0600
0600
0400
0000
FE00
FE00
0E00
0E00
0E00
0E00
0E00
0E00
0E00
0E00
07E0
07E0
ENDCHAR
STARTCHAR 1F37
ENCODING 7991
SWIDTH 630 0
DWIDTH 14 0
BBX 11 20 1 0
BITMAP
1C80
3F80
0300
0E00
0E00
0400
0400
0000
FE00
FE00
0E00
0E00
0E00
0E00
0E00
0E00
0E00
0E00
07E0
07E0
ENDCHAR
STARTCHAR 1F38
ENCODING 7992
SWIDTH 630 0
DWIDTH 14 0
BBX 12 16 -1 0
BITMAP
DFF0
DFF0
C180
C180
8180
0180
0180
0180
0180
0180
0180
0180
0180
0180
1FF0
1FF0
ENDCHAR
STARTCHAR 1F39
ENCODING 7993
SWIDTH 630 0
DWIDTH 14 0
BBX 12 16 -1 0
BITMAP
DFF0
DFF0
C180
4180
4180
0180
0180
0180
0180
0180
0180
0180
0180
0180
1FF0
1FF0
ENDCHAR
STARTCHAR 1F3A
ENCODING 7994
SWIDTH 630 0
DWIDTH 14 0
BBX 15 16 -4 0
BITMAP
C3FE
EFFE
CC30
CC30
8430
0030
0030
0030
0030
0030
0030
0030
0030
0030
03FE
03FE
ENDCHAR
STARTCHAR 1F3B
ENCODING 7995
SWIDTH 630 0
DWIDTH 14 0
BBX 15 16 -4 0
BITMAP
CBFE
DBFE
CC30
CC30
4C30
0030
0030
0030
0030
0030
0030
0030
0030
0030
03FE
03FE
ENDCHAR
STARTCHAR 1F3C
ENCODING 7996
SWIDTH 630 0
DWIDTH 14 0
BBX 16 16 -5 0
BITMAP
49FF
EDFF
6C18
4C18
C818
0018
0018
0018
0018
0018
0018
0018
0018
0018
01FF
01FF
ENDCHAR
STARTCHAR 1F3D
ENCODING 7997
SWIDTH 630 0
DWIDTH 14 0
BBX 16 16 -5 0
BITMAP
41FF
EDFF
CC18
6C18
6818
0018
0018
0018
0018
0018
0018
0018
0018
0018
01FF
01FF
ENDCHAR
STARTCHAR 1F3E
ENCODING 7998
SWIDTH 630 0
DWIDTH 14 0
BBX 16 16 -5 0
BITMAP
65FF
FFFF
9C18
3018
3018
1018
3018
0018
0018
0018
0018
0018
0018
0018
01FF
01FF
ENDCHAR
STARTCHAR 1F3F
ENCODING 7999
SWIDTH 630 0
DWIDTH 14 0
BBX 16 16 -5 0
BITMAP
65FF
FFFF
9C18
3018
3018
3018
1018
0018
0018
0018
0018
0018
0018
0018
01FF
01FF
ENDCHAR
STARTCHAR 1F40
ENCODING 8000
SWIDTH 630 0
DWIDTH 14 0
BBX 10 18 2 0
BITMAP
0E00
0E00
0400
0C00
0800
0000
3F00
7780
E180
C1C0
C0C0
C0C0
C0C0
C0C0
C1C0
E180
7780
3F00
ENDCHAR
STARTCHAR 1F41
ENCODING 8001
SWIDTH 630 0
DWIDTH 14 0
BBX 10 18 2 0
BITMAP
1800
1800
1800
0800
0800
0000
3F00
7780
E180
C1C0
C0C0
C0C0
C0C0
C0C0
C1C0
E180
7780
3F00
ENDCHAR
STARTCHAR 1F42
ENCODING 8002
SWIDTH 630 0
DWIDTH 14 0
BBX 10 18 2 0
BITMAP
3600
3600
3200
2300
6300
0000
3F00
7780
E180
C1C0
C0C0
C0C0
C0C0
C0C0
C1C0
E180
7780
3F00
ENDCHAR
STARTCHAR 1F43
ENCODING 8003
SWIDTH 630 0
DWIDTH 14 0
BBX 10 18 2 0
BITMAP
7E00
7600
6600
2200
3200
0000
3F00
7780
E180
C1C0
C0C0
C0C0
C0C0
C0C0
C1C0
E180
7780
3F00
ENDCHAR
STARTCHAR 1F44
ENCODING 8004
SWIDTH 630 0
DWIDTH 14 0
BBX 10 18 2 0
BITMAP
1980
1B00
1B00
1300
3200
0000
3F00
7780
E180
C1C0
C0C0
C0C0
C0C0
C0C0
C1C0
E180
7780
3F00
ENDCHAR
STARTCHAR 1F45
ENCODING 8005
SWIDTH 630 0
DWIDTH 14 0
BBX 10 18 2 0
BITMAP
3300
3300
3200
1600
1E00
0000
3F00
7780
E180
C1C0
C0C0
C0C0
C0C0
C0C0
C1C0
E180
7780
3F00
ENDCHAR
STARTCHAR 1F48
ENCODING 8008
SWIDTH 630 0
DWIDTH 14 0
BBX 14 16 -1 0
BITMAP
E3C0
EFF0
5C30
D818
B818
3818
301C
301C
301C
301C
301C
3818
1818
1C38
0FF0
07E0
ENDCHAR
STARTCHAR 1F49
ENCODING 8009
SWIDTH 630 0
DWIDTH 14 0
BBX 15 16 -2 0
BITMAP
E1E0
E7F8
CE18
6C0C
7C0C
1C0C
180E
180E
180E
180E
180E
1C0C
0C0C
0E1C
07F8
03F0
ENDCHAR
STARTCHAR 1F4A
ENCODING 8010
SWIDTH 630 0
DWIDTH 14 0
BBX 19 16 -6 0
BITMAP
641E00
EC7F80
6CE180
44C0C0
47C0C0
01C0C0
0180E0
0180E0
0180E0
0180E0
0180E0
01C0C0
00C0C0
00E1C0
007F80
003F00
ENDCHAR
STARTCHAR 1F4B
ENCODING 8011
SWIDTH 630 0
DWIDTH 14 0
BBX 19 16 -6 0
BITMAP
641E00
EC7F80
6CE180
64C0C0
27C0C0
01C0C0
0180E0
0180E0
0180E0
0180E0
0180E0
01C0C0
00C0C0
00E1C0
007F80
003F00
ENDCHAR
STARTCHAR 1F4C
ENCODING 8012
SWIDTH 630 0
DWIDTH 14 0
BBX 18 16 -5 0
BITMAP
483C00
ECFF00
6DC300
C98180
DB8180
038180
0301C0
0301C0
0301C0
0301C0
0301C0
038180
018180
01C380
00FF00
007E00
ENDCHAR
STARTCHAR 1F4D
ENCODING 8013
SWIDTH 630 0
DWIDTH 14 0
BBX 18 16 -5 0
BITMAP
483C00
ECFF00
CDC300
4D8180
6B8180
038180
0301C0
0301C0
0301C0
0301C0
0301C0
038180
018180
01C380
00FF00
007E00
ENDCHAR
STARTCHAR 1F50
ENCODING 8016
SWIDTH 630 0
DWIDTH 14 0
BBX 10 18 2 0
BITMAP
0E00
0E00
0400
0C00
0800
0000
C1C0
C0C0
C0C0
C0C0
C0C0
C0C0
C0C0
C0C0
C1C0
E180
7780
3E00
ENDCHAR
STARTCHAR 1F51
ENCODING 8017
SWIDTH 630 0
DWIDTH 14 0
BBX 10 18 2 0
BITMAP
1800
1800
1800
0800
0800
0000
C1C0
C0C0
C0C0
C0C0
C0C0
C0C0
C0C0
C0C0
C1C0
E180
7780
3E00
ENDCHAR
STARTCHAR 1F52
ENCODING 8018
SWIDTH 630 0
DWIDTH 14 0
BBX 10 18 2 0
BITMAP
3600
3600
3200
2300
6300
0000
C1C0
C0C0
C0C0
C0C0
C0C0
C0C0
C0C0
C0C0
C1C0
E180
7780
3E00
ENDCHAR
STARTCHAR 1F53
ENCODING 8019
SWIDTH 630 0
DWIDTH 14 0
BBX 10 18 2 0
BITMAP
7E00
7600
6600
2200
3200
0000
C1C0
C0C0
C0C0
C0C0
C0C0
C0C0
C0C0
C0C0
C1C0
E180
7780
3E00
ENDCHAR
STARTCHAR 1F54
ENCODING 8020
SWIDTH 630 0
DWIDTH 14 0
BBX 10 18 2 0
BITMAP
1980
1B00
1B00
1300
3200
0000
C1C0
C0C0
C0C0
C0C0
C0C0
C0C0
C0C0
C0C0
C1C0
E180
7780
3E00
ENDCHAR
STARTCHAR 1F55
ENCODING 8021
SWIDTH 630 0
DWIDTH 14 0
BBX 10 18 2 0
BITMAP
3300
3300
3200
1600
1E00
0000
C1C0
C0C0
C0C0
C0C0
C0C0
C0C0
C0C0
C0C0
C1C0
E180
7780
3E00
ENDCHAR
STARTCHAR 1F56
ENCODING 8022
SWIDTH 630 0
DWIDTH 14 0
BBX 10 20 2 0
BITMAP
1900
3F80
2700
0C00
0E00
0400
0C00
0000
C1C0
C0C0
C0C0
C0C0
C0C0
C0C0
C0C0
C0C0
C1C0
E180
7780
3E00
ENDCHAR
STARTCHAR 1F57
ENCODING 8023
SWIDTH 630 0
DWIDTH 14 0
BBX 10 20 2 0
BITMAP
3900
7F00
2600
0C00
0C00
0800
0C00
0000
C1C0
C0C0
C0C0
C0C0
C0C0
C0C0
C0C0
C0C0
C1C0
E180
7780
3E00
ENDCHAR
STARTCHAR 1F59
ENCODING 8025
SWIDTH 630 0
DWIDTH 14 0
BBX 15 16 -2 0
BITMAP
D806
DC0E
CC0C
CE1C
4618
0730
0330
03E0
01E0
01C0
00C0
00C0
00C0
00C0
00C0
00C0
ENDCHAR
STARTCHAR 1F5B
ENCODING 8027
SWIDTH 630 0
DWIDTH 14 0
BBX 19 16 -6 0
BITMAP
458060
EDC0E0
CCC0C0
64E1C0
666180
007300
003300
003E00
001E00
001C00
000C00
000C00
000C00
000C00
000C00
000C00
ENDCHAR
STARTCHAR 1F5D
ENCODING 8029
SWIDTH 630 0
DWIDTH 14 0
BBX 19 16 -6 0
BITMAP
C98060
CDC0E0
C8C0C0
D8E1C0
586180
007300
003300
003E00
001E00
001C00
000C00
000C00
000C00
000C00
000C00
000C00
ENDCHAR
STARTCHAR 1F5F
ENCODING 8031
SWIDTH 630 0
DWIDTH 14 0
BBX 20 16 -7 0
BITMAP
72C030
FEE070
8C6060
3870E0
3830C0
103980
101980
001F00
000F00
000E00
000600
000600
000600
000600
000600
000600
ENDCHAR
STARTCHAR 1F60
ENCODING 8032
SWIDTH 630 0
DWIDTH 14 0
BBX 12 18 1 0
BITMAP
0700
0700
0200
0600
0400
0000
4060
C060
C030
C030
C630
C630
C630
C630
C630
C630
EF60
79E0
ENDCHAR
STARTCHAR 1F61
ENCODING 8033
SWIDTH 630 0
DWIDTH 14 0
BBX 12 18 1 0
BITMAP
0C00
0C00
0C00
0400
0400
0000
4060
C060
C030
C030
C630
C630
C630
C630
C630
C630
EF60
79E0
ENDCHAR
STARTCHAR 1F62
ENCODING 8034
SWIDTH 630 0
DWIDTH 14 0
BBX 12 18 1 0
BITMAP
1B00
1B00
1900
1180
3180
0000
4060
C060
C030
C030
C630
C630
C630
C630
C630
C630
EF60
79E0
ENDCHAR
STARTCHAR 1F63
ENCODING 8035
SWIDTH 630 0
DWIDTH 14 0
BBX 12 18 1 0
BITMAP
3F00
3B00
3300
1100
1900
0000
4060
C060
C030
C030
C630
C630
C630
C630
C630
C630
EF60
79E0
ENDCHAR
STARTCHAR 1F64
ENCODING 8036
SWIDTH 630 0
DWIDTH 14 0
BBX 12 18 1 0
BITMAP
0CC0
0D80
0D80
0980
1900
0000
4060
C060
C030
C030
C630
C630
C630
C630
C630
C630
EF60
79E0
ENDCHAR
STARTCHAR 1F65
ENCODING 8037
SWIDTH 630 0
DWIDTH 14 0
BBX 12 18 1 0
BITMAP
1980
1980
1900
0B00
0F00
0000
4060
C060
C030
C030
C630
C630
C630
C630
C630
C630
EF60
79E0
ENDCHAR
STARTCHAR 1F66
ENCODING 8038
SWIDTH 630 0
DWIDTH 14 0
BBX 12 20 1 0
BITMAP
0C80
1FC0
1380
0600
0700
0200
0600
0000
4060
C060
C030
C030
C630
C630
C630
C630
C630
C630
EF60
79E0
ENDCHAR
STARTCHAR 1F67
ENCODING 8039
SWIDTH 630 0
DWIDTH 14 0
BBX 12 20 1 0
BITMAP
1C80
3F80
1300
0600
0600
0400
0600
0000
4060
C060
C030
C030
C630
C630
C630
C630
C630
C630
EF60
79E0
ENDCHAR
STARTCHAR 1F68
ENCODING 8040
SWIDTH 630 0
DWIDTH 14 0
BBX 14 16 -1 0
BITMAP
E3C0
EFF0
5C30
D818
B818
3018
301C
301C
301C
301C
3818
1818
1838
0C30
3E78
3E78
ENDCHAR
STARTCHAR 1F69
ENCODING 8041
SWIDTH 630 0
DWIDTH 14 0
BBX 15 16 -2 0
BITMAP
E1E0
E7F8
CE18
6C0C
7C0C
180C
180E
180E
180E
180E
1C0C
0C0C
0C1C
0618
1F3C
1F3C
ENDCHAR
STARTCHAR 1F6A
ENCODING 8042
SWIDTH 630 0
DWIDTH 14 0
BBX 19 16 -6 0
BITMAP
641E00
EC7F80
6CE180
44C0C0
47C0C0
0180C0
0180E0
0180E0
0180E0
0180E0
01C0C0
00C0C0
00C1C0
006180
01F3C0
01F3C0
ENDCHAR
STARTCHAR 1F6B
ENCODING 8043
SWIDTH 630 0
DWIDTH 14 0
BBX 19 16 -6 0
BITMAP
641E00
EC7F80
6CE180
64C0C0
27C0C0
0180C0
0180E0
0180E0
0180E0
0180E0
01C0C0
00C0C0
00C1C0
006180
01F3C0
01F3C0
ENDCHAR
STARTCHAR 1F6C
ENCODING 8044
SWIDTH 630 0
DWIDTH 14 0
BBX 18 16 -5 0
BITMAP
483C00
ECFF00
6DC300
C98180
DB8180
030180
0301C0
0301C0
0301C0
0301C0
038180
018180
018380
00C300
03E780
03E780
ENDCHAR
STARTCHAR 1F6D
ENCODING 8045
SWIDTH 630 0
DWIDTH 14 0
BBX 18 16 -5 0
BITMAP
483C00
ECFF00
CDC300
4D8180
6B8180
030180
0301C0
0301C0
0301C0
0301C0
038180
018180
018380
00C300
03E780
03E780
ENDCHAR
STARTCHAR 1F6E
ENCODING 8046
SWIDTH 630 0
DWIDTH 14 0
BBX 18 16 -5 0
BITMAP
623C00
FEFF00
8DC300
398180
3B8180
130180
1301C0
0301C0
0301C0
0301C0
038180
018180
018380
00C300
03E780
03E780
ENDCHAR
STARTCHAR 1F6F
ENCODING 8047
SWIDTH 630 0
DWIDTH 14 0
BBX 18 16 -5 0
BITMAP
623C00
FEFF00
8DC300
398180
3B8180
330180
1301C0
0301C0
0301C0
0301C0
038180
018180
018380
00C300
03E780
03E780
ENDCHAR
STARTCHAR 1F70
ENCODING 8048
SWIDTH 630 0
DWIDTH 14 0
BBX 11 18 1 0
BITMAP
1800
1C00
0F00
0100
0000
0000
3E60
7360
6160
61C0
E0C0
E0C0
E0C0
E0C0
E1C0
61C0
7760
3E60
ENDCHAR
STARTCHAR 1F71
ENCODING 8049
SWIDTH 630 0
DWIDTH 14 0
BBX 11 18 1 0
BITMAP
0300
0F00
1C00
0000
0000
0000
3E60
7360
6160
61C0
E0C0
E0C0
E0C0
E0C0
E1C0
61C0
7760
3E60
ENDCHAR
STARTCHAR 1F72
ENCODING 8050
SWIDTH 630 0
DWIDTH 14 0
BBX 10 18 2 0
BITMAP
1800
1C00
0F00
0200
0000
0000
3F80
7180
E000
E000
6000
1E00
7E00
C000
C000
C040
FBC0
3F80
ENDCHAR
STARTCHAR 1F73
ENCODING 8051
SWIDTH 630 0
DWIDTH 14 0
BBX 10 18 2 0
BITMAP
0300
0F00
1C00
0000
0000
0000
3F80
7180
E000
E000
6000
1E00
7E00
C000
C000
C040
FBC0
3F80
ENDCHAR
STARTCHAR 1F74
ENCODING 8052
SWIDTH 630 0
DWIDTH 14 0
BBX 10 23 2 -5
BITMAP
1000
3C00
0E00
0200
0000
0000
DF80
FB80
E180
C1C0
C1C0
C1C0
C1C0
C1C0
C1C0
C1C0
C1C0
C1C0
01C0
01C0
01C0
01C0
01C0
ENDCHAR
STARTCHAR 1F75
ENCODING 8053
SWIDTH 630 0
DWIDTH 14 0
BBX 10 23 2 -5
BITMAP
0600
0F00
3800
0000
0000
0000
DF80
FB80
E180
C1C0
C1C0
C1C0
C1C0
C1C0
C1C0
C1C0
C1C0
C1C0
01C0
01C0
01C0
01C0
01C0
ENDCHAR
STARTCHAR 1F76
ENCODING 8054
SWIDTH 630 0
DWIDTH 14 0
BBX 11 18 1 0
BITMAP
0800
1C00
0700
0100
0000
0000
FE00
FE00
0E00
0E00
0E00
0E00
0E00
0E00
0E00
0E00
07E0
07E0
ENDCHAR
STARTCHAR 1F77
ENCODING 8055
SWIDTH 630 0
DWIDTH 14 0
BBX 11 18 1 0
BITMAP
0300
0F00
1C00
0000
0000
0000
FE00
FE00
0E00
0E00
0E00
0E00
0E00
0E00
0E00
0E00
07E0
07E0
ENDCHAR
STARTCHAR 1F78
ENCODING 8056
SWIDTH 630 0
DWIDTH 14 0
BBX 10 18 2 0
BITMAP
1000
3C00
0E00
0200
0000
0000
3F00
7780
E180
C1C0
C0C0
C0C0
C0C0
C0C0
C1C0
E180
7780
3F00
ENDCHAR
STARTCHAR 1F79
ENCODING 8057
SWIDTH 630 0
DWIDTH 14 0
BBX 10 18 2 0
BITMAP
0600
0F00
3800
0000
0000
0000
3F00
7780
E180
C1C0
C0C0
C0C0
C0C0
C0C0
C1C0
E180
7780
3F00
ENDCHAR
STARTCHAR 1F7A
ENCODING 8058
SWIDTH 630 0
DWIDTH 14 0
BBX 10 18 2 0
BITMAP
1000
3C00
0E00
0200
0000
0000
C1C0
C0C0
C0C0
C0C0
C0C0
C0C0
C0C0
C0C0
C1C0
E180
7780
3E00
ENDCHAR
STARTCHAR 1F7B
ENCODING 8059
SWIDTH 630 0
DWIDTH 14 0
BBX 10 18 2 0
BITMAP
0600
0F00
3800
0000
0000
0000
C1C0
C0C0
C0C0
C0C0
C0C0
C0C0
C0C0
C0C0
C1C0
E180
7780
3E00
ENDCHAR
STARTCHAR 1F7C
ENCODING 8060
SWIDTH 630 0
DWIDTH 14 0
BBX 12 18 1 0
BITMAP
0800
1E00
0700
0100
0000
0000
4060
C060
C030
C030
C630
C630
C630
C630
C630
C630
EF60
79E0
ENDCHAR
STARTCHAR 1F7D
ENCODING 8061
SWIDTH 630 0
DWIDTH 14 0
BBX 12 18 1 0
BITMAP
0300
0780
1C00
0000
0000
0000
4060
C060
C030
C030
C630
C630
C630
C630
C630
C630
EF60
79E0
ENDCHAR
STARTCHAR 1F80
ENCODING 8064
SWIDTH 630 0
DWIDTH 14 0
BBX 11 22 1 -4
BITMAP
0600
0600
0600
0400
0400
0000
3E60
7360
6160
61C0
E0C0
E0C0
E0C0
E0C0
E1C0
61C0
7760
3E60
0000
0600
0600
07C0
ENDCHAR
STARTCHAR 1F81
ENCODING 8065
SWIDTH 630 0
DWIDTH 14 0
BBX 11 22 1 -4
BITMAP
1C00
1C00
0800
0C00
0400
0000
3E60
7360
6160
61C0
E0C0
E0C0
E0C0
E0C0
E1C0
61C0
7760
3E60
0000
0600
0600
07C0
ENDCHAR
STARTCHAR 1F82
ENCODING 8066
SWIDTH 630 0
DWIDTH 14 0
BBX 11 22 1 -4
BITMAP
3E00
3B00
3300
3300
2100
0000
3E60
7360
6160
61C0
E0C0
E0C0
E0C0
E0C0
E1C0
61C0
7760
3E60
0000
0600
0600
07C0
ENDCHAR
STARTCHAR 1F83
ENCODING 8067
SWIDTH 630 0
DWIDTH 14 0
BBX 11 22 1 -4
BITMAP
3600
7600
3200
3300
1300
0000
3E60
7360
6160
61C0
E0C0
E0C0
E0C0
E0C0
E1C0
61C0
7760
3E60
0000
0600
0600
07C0
ENDCHAR
STARTCHAR 1F84
ENCODING 8068
SWIDTH 630 0
DWIDTH 14 0
BBX 11 22 1 -4
BITMAP
1D80
1D80
1900
1B00
1300
0000
3E60
7360
6160
61C0
E0C0
E0C0
E0C0
E0C0
E1C0
61C0
7760
3E60
0000
0600
0600
07C0
ENDCHAR
STARTCHAR 1F85
ENCODING 8069
SWIDTH 630 0
DWIDTH 14 0
BBX 11 22 1 -4
BITMAP
3980
3B00
1B00
1B00
0A00
0000
3E60
7360
6160
61C0
E0C0
E0C0
E0C0
E0C0
E1C0
61C0
7760
3E60
0000
0600
0600
07C0
ENDCHAR
STARTCHAR 1F86
ENCODING 8070
SWIDTH 630 0
DWIDTH 14 0
BBX 11 24 1 -4
BITMAP
1C80
3F80
0300
0600
0E00
0600
0400
0000
3E60
7360
6160
61C0
E0C0
E0C0
E0C0
E0C0
E1C0
61C0
7760
3E60
0000
0600
0600
07C0
ENDCHAR
STARTCHAR 1F87
ENCODING 8071
SWIDTH 630 0
DWIDTH 14 0
BBX 11 24 1 -4
BITMAP
1880
3F80
2300
0C00
0E00
0C00
0400
0000
3E60
7360
6160
61C0
E0C0
E0C0
E0C0
E0C0
E1C0
61C0
7760
3E60
0000
0600
0600
07C0
ENDCHAR
STARTCHAR 1F88
ENCODING 8072
SWIDTH 630 0
DWIDTH 14 0
BBX 12 20 1 -4
BITMAP
EE00
EF00
4F00
DB00
DB80
1980
3180
31C0
30C0
70C0
7FE0
7FE0
E060
C070
C070
C030
0000
0600
0600
07C0
ENDCHAR
STARTCHAR 1F89
ENCODING 8073
SWIDTH 630 0
DWIDTH 14 0
BBX 12 20 1 -4
BITMAP
CE00
CF00
CF00
DB00
5B80
1980
3180
31C0
30C0
70C0
7FE0
7FE0
E060
C070
C070
C030
0000
0600
0600
07C0
ENDCHAR
STARTCHAR 1F8A
ENCODING 8074
SWIDTH 630 0
DWIDTH 14 0
BBX 16 20 -3 -4
BITMAP
40E0
ECF0
ECF0
CDB0
C5B8
0198
0318
031C
030C
070C
07FE
07FE
0E06
0C07
0C07
0C03
0000
0060
0060
007C
ENDCHAR
STARTCHAR 1F8B
ENCODING 8075
SWIDTH 630 0
DWIDTH 14 0
BBX 16 20 -3 -4
BITMAP
C0E0
ECF0
CCF0
4DB0
45B8
0198
0318
031C
030C
070C
07FE
07FE
0E06
0C07
0C07
0C03
0000
0060
0060
007C
ENDCHAR
STARTCHAR 1F8C
ENCODING 8076
SWIDTH 630 0
DWIDTH 14 0
BBX 15 20 -2 -4
BITMAP
C9C0
CDE0
D9E0
DB60
9B70
0330
0630
0638
0618
0E18
0FFC
0FFC
1C0C
180E
180E
1806
0000
00C0
00C0
00F8
ENDCHAR
STARTCHAR 1F8D
ENCODING 8077
SWIDTH 630 0
DWIDTH 14 0
BBX 15 20 -2 -4
BITMAP
C9C0
CDE0
C9E0
DB60
5B70
0330
0630
0638
0618
0E18
0FFC
0FFC
1C0C
180E
180E
1806
0000
00C0
00C0
00F8
ENDCHAR
STARTCHAR 1F8E
ENCODING 8078
SWIDTH 630 0
DWIDTH 14 0
BBX 16 20 -3 -4
BITMAP
72E0
FEF0
0CF0
19B0
39B8
1998
1318
031C
030C
070C
07FE
07FE
0E06
0C07
0C07
0C03
0000
0060
0060
007C
ENDCHAR
STARTCHAR 1F8F
ENCODING 8079
SWIDTH 630 0
DWIDTH 14 0
BBX 16 20 -3 -4
BITMAP
72E0
FEF0
0CF0
19B0
39B8
1198
1B18
031C
030C
070C
07FE
07FE
0E06
0C07
0C07
0C03
0000
0060
0060
007C
ENDCHAR
STARTCHAR 1F90
ENCODING 8080
SWIDTH 630 0
DWIDTH 14 0
BBX 10 23 2 -5
BITMAP
0E00
0E00
0400
0C00
0800
0000
DF80
FB80
E180
C1C0
C1C0
C1C0
C1C0
C1C0
C1C0
C1C0
C1C0
C1C0
01C0
C1C0
C1C0
79C0
01C0
ENDCHAR
STARTCHAR 1F91
ENCODING 8081
SWIDTH 630 0
DWIDTH 14 0
BBX 10 23 2 -5
BITMAP
1800
1800
1800
0800
0800
0000
DF80
FB80
E180
C1C0
C1C0
C1C0
C1C0
C1C0
C1C0
C1C0
C1C0
C1C0
01C0
C1C0
C1C0
79C0
01C0
ENDCHAR
STARTCHAR 1F92
ENCODING 8082
SWIDTH 630 0
DWIDTH 14 0
BBX 10 23 2 -5
BITMAP
3600
3600
3200
2300
6300
0000
DF80
FB80
E180
C1C0
C1C0
C1C0
C1C0
C1C0
C1C0
C1C0
C1C0
C1C0
01C0
C1C0
C1C0
79C0
01C0
ENDCHAR
STARTCHAR 1F93
ENCODING 8083
SWIDTH 630 0
DWIDTH 14 0
BBX 10 23 2 -5
BITMAP
7E00
7600
6600
2200
3200
0000
DF80
FB80
E180
C1C0
C1C0
C1C0
C1C0
C1C0
C1C0
C1C0
C1C0
C1C0
01C0
C1C0
C1C0
79C0
01C0
ENDCHAR
STARTCHAR 1F94
ENCODING 8084
SWIDTH 630 0
DWIDTH 14 0
BBX 10 23 2 -5
BITMAP
1980
1B00
1B00
1300
3200
0000
DF80
FB80
E180
C1C0
C1C0
C1C0
C1C0
C1C0
C1C0
C1C0
C1C0
C1C0
01C0
C1C0
C1C0
79C0
01C0
ENDCHAR
STARTCHAR 1F95
ENCODING 8085
SWIDTH 630 0
DWIDTH 14 0
BBX 10 23 2 -5
BITMAP
3300
3300
3200
1600
1E00
0000
DF80
FB80
E180
C1C0
C1C0
C1C0
C1C0
C1C0
C1C0
C1C0
C1C0
C1C0
01C0
C1C0
C1C0
79C0
01C0
ENDCHAR
STARTCHAR 1F96
ENCODING 8086
SWIDTH 630 0
DWIDTH 14 0
BBX 10 25 2 -5
BITMAP
1800
3F80
2700
0C00
0E00
0400
0C00
0000
DF80
FB80
E180
C1C0
C1C0
C1C0
C1C0
C1C0
C1C0
C1C0
C1C0
C1C0
01C0
C1C0
C1C0
79C0
01C0
ENDCHAR
STARTCHAR 1F97
ENCODING 8087
SWIDTH 630 0
DWIDTH 14 0
BBX 10 25 2 -5
BITMAP
3900
7F00
2600
0C00
0C00
0800
0C00
0000
DF80
FB80
E180
C1C0
C1C0
C1C0
C1C0
C1C0
C1C0
C1C0
C1C0
C1C0
01C0
C1C0
C1C0
79C0
01C0
ENDCHAR
STARTCHAR 1F98
ENCODING 8088
SWIDTH 630 0
DWIDTH 14 0
BBX 14 20 -2 -4
BITMAP
6C0C
EC0C
6C0C
4C0C
CC0C
0C0C
0C0C
0FFC
0FFC
0C0C
0C0C
0C0C
0C0C
0C0C
0C0C
0C0C
0000
00C0
00C0
00F8
ENDCHAR
STARTCHAR 1F99
ENCODING 8089
SWIDTH 630 0
DWIDTH 14 0
BBX 14 20 -2 -4
BITMAP
CC0C
CC0C
CC0C
4C0C
4C0C
0C0C
0C0C
0FFC
0FFC
0C0C
0C0C
0C0C
0C0C
0C0C
0C0C
0C0C
0000
00C0
00C0
00F8
ENDCHAR
STARTCHAR 1F9A
ENCODING 8090
SWIDTH 630 0
DWIDTH 14 0
BBX 17 20 -5 -4
BITMAP
C98180
D98180
D98180
898180
8D8180
018180
018180
01FF80
01FF80
018180
018180
018180
018180
018180
018180
018180
000000
001800
001800
001F00
ENDCHAR
STARTCHAR 1F9B
ENCODING 8091
SWIDTH 630 0
DWIDTH 14 0
BBX 18 20 -6 -4
BITMAP
64C0C0
ECC0C0
6CC0C0
64C0C0
26C0C0
00C0C0
00C0C0
00FFC0
00FFC0
00C0C0
00C0C0
00C0C0
00C0C0
00C0C0
00C0C0
00C0C0
000000
000C00
000C00
000F80
ENDCHAR
STARTCHAR 1F9C
ENCODING 8092
SWIDTH 630 0
DWIDTH 14 0
BBX 17 20 -5 -4
BITMAP
C98180
CD8180
C98180
D98180
998180
018180
018180
01FF80
01FF80
018180
018180
018180
018180
018180
018180
018180
000000
001800
001800
001F00
ENDCHAR
STARTCHAR 1F9D
ENCODING 8093
SWIDTH 630 0
DWIDTH 14 0
BBX 17 20 -5 -4
BITMAP
C98180
CD8180
CD8180
D98180
598180
018180
018180
01FF80
01FF80
018180
018180
018180
018180
018180
018180
018180
000000
001800
001800
001F00
ENDCHAR
STARTCHAR 1F9E
ENCODING 8094
SWIDTH 630 0
DWIDTH 14 0
BBX 18 20 -6 -4
BITMAP
72C0C0
FEC0C0
0CC0C0
18C0C0
38C0C0
18C0C0
10C0C0
00FFC0
00FFC0
00C0C0
00C0C0
00C0C0
00C0C0
00C0C0
00C0C0
00C0C0
000000
000C00
000C00
000F80
ENDCHAR
STARTCHAR 1F9F
ENCODING 8095
SWIDTH 630 0
DWIDTH 14 0
BBX 18 20 -6 -4
BITMAP
72C0C0
FEC0C0
0CC0C0
38C0C0
38C0C0
10C0C0
18C0C0
00FFC0
00FFC0
00C0C0
00C0C0
00C0C0
00C0C0
00C0C0
00C0C0
00C0C0
000000
000C00
000C00
000F80
ENDCHAR
STARTCHAR 1FA0
ENCODING 8096
SWIDTH 630 0
DWIDTH 14 0
BBX 12 22 1 -4
BITMAP
0700
0700
0200
0600
0400
0000
4060
C060
C030
C030
C630
C630
C630
C630
C630
C630
EF60
79E0
0000
0600
0600
07C0
ENDCHAR
STARTCHAR 1FA1
ENCODING 8097
SWIDTH 630 0
DWIDTH 14 0
BBX 12 22 1 -4
BITMAP
0C00
0C00
0C00
0400
0400
0000
4060
C060
C030
C030
C630
C630
C630
C630
C630
C630
EF60
79E0
0000
0600
0600
07C0
ENDCHAR
STARTCHAR 1FA2
ENCODING 8098
SWIDTH 630 0
DWIDTH 14 0
BBX 12 22 1 -4
BITMAP
1B00
1B00
1900
1180
3180
0000
4060
C060
C030
C030
C630
C630
C630
C630
C630
C630
EF60
79E0
0000
0600
0600
07C0
ENDCHAR
STARTCHAR 1FA3
ENCODING 8099
SWIDTH 630 0
DWIDTH 14 0
BBX 12 22 1 -4
BITMAP
3F00
3B00
3300
1100
1900
0000
4060
C060
C030
C030
C630
C630
C630
C630
C630
C630
EF60
79E0
0000
0600
0600
07C0
ENDCHAR
STARTCHAR 1FA4
ENCODING 8100
SWIDTH 630 0
DWIDTH 14 0
BBX 12 22 1 -4
BITMAP
0CC0
0D80
0D80
0980
1900
0000
4060
C060
C030
C030
C630
C630
C630
C630
C630
C630
EF60
79E0
0000
0600
0600
07C0
ENDCHAR
STARTCHAR 1FA5
ENCODING 8101
SWIDTH 630 0
DWIDTH 14 0
BBX 12 22 1 -4
BITMAP
1980
1980
1900
0B00
0F00
0000
4060
C060
C030
C030
C630
C630
C630
C630
C630
C630
EF60
79E0
0000
0600
0600
07C0
ENDCHAR
STARTCHAR 1FA6
ENCODING 8102
SWIDTH 630 0
DWIDTH 14 0
BBX 12 24 1 -4
BITMAP
0C80
1FC0
1380
0600
0700
0200
0600
0000
4060
C060
C030
C030
C630
C630
C630
C630
C630
C630
EF60
79E0
0000
0600
0600
07C0
ENDCHAR
STARTCHAR 1FA7
ENCODING 8103
SWIDTH 630 0
DWIDTH 14 0
BBX 12 24 1 -4
BITMAP
1C80
3F80
1300
0600
0600
0400
0600
0000
4060
C060
C030
C030
C630
C630
C630
C630
C630
C630
EF60
79E0
0000
0600
0600
07C0
ENDCHAR
STARTCHAR 1FA8
ENCODING 8104
SWIDTH 630 0
DWIDTH 14 0
BBX 14 20 -1 -4
BITMAP
E3C0
EFF0
5C30
D818
B818
3018
301C
301C
301C
301C
3818
1818
1838
0C30
3E78
3E78
0000
0180
0180
01F0
ENDCHAR
STARTCHAR 1FA9
ENCODING 8105
SWIDTH 630 0
DWIDTH 14 0
BBX 15 20 -2 -4
BITMAP
E1E0
E7F8
CE18
6C0C
7C0C
180C
180E
180E
180E
180E
1C0C
0C0C
0C1C
0618
1F3C
1F3C
0000
00C0
00C0
00F8
ENDCHAR
STARTCHAR 1FAA
ENCODING 8106
SWIDTH 630 0
DWIDTH 14 0
BBX 19 20 -6 -4
BITMAP
641E00
EC7F80
6CE180
44C0C0
47C0C0
0180C0
0180E0
0180E0
0180E0
0180E0
01C0C0
00C0C0
00C1C0
006180
01F3C0
01F3C0
000000
000C00
000C00
000F80
ENDCHAR
STARTCHAR 1FAB
ENCODING 8107
SWIDTH 630 0
DWIDTH 14 0
BBX 19 20 -6 -4
BITMAP
641E00
EC7F80
6CE180
64C0C0
27C0C0
0180C0
0180E0
0180E0
0180E0
0180E0
01C0C0
00C0C0
00C1C0
006180
01F3C0
01F3C0
000000
000C00
000C00
000F80
ENDCHAR
STARTCHAR 1FAC
ENCODING 8108
SWIDTH 630 0
DWIDTH 14 0
BBX 18 20 -5 -4
BITMAP
483C00
ECFF00
6DC300
C98180
DB8180
030180
0301C0
0301C0
0301C0
0301C0
038180
018180
018380
00C300
03E780
03E780
000000
001800
001800
001F00
ENDCHAR
STARTCHAR 1FAD
ENCODING 8109
SWIDTH 630 0
DWIDTH 14 0
BBX 18 20 -5 -4
BITMAP
483C00
ECFF00
CDC300
4D8180
6B8180
030180
0301C0
0301C0
0301C0
0301C0
038180
018180
018380
00C300
03E780
03E780
000000
001800
001800
001F00
ENDCHAR
STARTCHAR 1FAE
ENCODING 8110
SWIDTH 630 0
DWIDTH 14 0
BBX 18 20 -5 -4
BITMAP
623C00
FEFF00
8DC300
398180
3B8180
130180
1301C0
0301C0
0301C0
0301C0
038180
018180
018380
00C300
03E780
03E780
000000
001800
001800
001F00
ENDCHAR
STARTCHAR 1FAF
ENCODING 8111
SWIDTH 630 0
DWIDTH 14 0
BBX 18 20 -5 -4
BITMAP
623C00
FEFF00
8DC300
398180
3B8180
330180
1301C0
0301C0
0301C0
0301C0
038180
018180
018380
00C300
03E780
03E780
000000
001800
001800
001F00
ENDCHAR
STARTCHAR 1FB0
ENCODING 8112
SWIDTH 630 0
DWIDTH 14 0
BBX 11 18 1 0
BITMAP
2180
3180
1F00
0E00
0000
0000
3E60
7360
6160
61C0
E0C0
E0C0
E0C0
E0C0
E1C0
61C0
7760
3E60
ENDCHAR
STARTCHAR 1FB1
ENCODING 8113
SWIDTH 630 0
DWIDTH 14 0
BBX 11 17 1 0
BITMAP
3F00
3F00
0000
0000
0000
3E60
7360
6160
61C0
E0C0
E0C0
E0C0
E0C0
E1C0
61C0
7760
3E60
ENDCHAR
STARTCHAR 1FB2
ENCODING 8114
SWIDTH 630 0
DWIDTH 14 0
BBX 11 22 1 -4
BITMAP
1800
1E00
0700
0000
0000
0000
3E60
7360
6160
61C0
E0C0
E0C0
E0C0
E0C0
E1C0
61C0
7760
3E60
0000
0600
0600
07C0
ENDCHAR
STARTCHAR 1FB3
ENCODING 8115
SWIDTH 630 0
DWIDTH 14 0
BBX 11 16 1 -4
BITMAP
3E60
7360
6160
61C0
E0C0
E0C0
E0C0
E0C0
E1C0
61C0
7760
3E60
0000
0600
0600
07C0
ENDCHAR
STARTCHAR 1FB4
ENCODING 8116
SWIDTH 630 0
DWIDTH 14 0
BBX 11 22 1 -4
BITMAP
0300
0F00
1C00
0000
0000
0000
3E60
7360
6160
61C0
E0C0
E0C0
E0C0
E0C0
E1C0
61C0
7760
3E60
0000
0600
0600
07C0
ENDCHAR
STARTCHAR 1FB6
ENCODING 8118
SWIDTH 630 0
DWIDTH 14 0
BBX 11 18 1 0
BITMAP
1800
3F80
2700
0000
0000
0000
3E60
7360
6160
61C0
E0C0
E0C0
E0C0
E0C0
E1C0
61C0
7760
3E60
ENDCHAR
STARTCHAR 1FB7
ENCODING 8119
SWIDTH 630 0
DWIDTH 14 0
BBX 11 22 1 -4
BITMAP
1800
3F80
2700
0000
0000
0000
3E60
7360
6160
61C0
E0C0
E0C0
E0C0
E0C0
E1C0
61C0
7760
3E60
0000
0600
0600
07C0
ENDCHAR
STARTCHAR 1FB8
ENCODING 8120
SWIDTH 630 0
DWIDTH 14 0
BBX 12 20 1 0
BITMAP
3180
1F80
0E00
0000
0E00
0F00
0F00
1B00
1B80
1980
3180
31C0
30C0
70C0
7FE0
7FE0
E060
C070
C070
C030
ENDCHAR
STARTCHAR 1FB9
ENCODING 8121
SWIDTH 630 0
DWIDTH 14 0
BBX 12 20 1 0
BITMAP
1F80
1F80
0000
0000
0E00
0F00
0F00
1B00
1B80
1980
3180
31C0
30C0
70C0
7FE0
7FE0
E060
C070
C070
C030
ENDCHAR
STARTCHAR 1FBA
ENCODING 8122
SWIDTH 630 0
DWIDTH 14 0
BBX 13 16 0 0
BITMAP
E700
E780
6780
6D80
2DC0
0CC0
18C0
18E0
1860
3860
3FF0
3FF0
7030
6038
6038
6018
ENDCHAR
STARTCHAR 1FBB
ENCODING 8123
SWIDTH 630 0
DWIDTH 14 0
BBX 13 16 0 0
BITMAP
7700
6780
6780
6D80
CDC0
0CC0
18C0
18E0
1860
3860
3FF0
3FF0
7030
6038
6038
6018
ENDCHAR
STARTCHAR 1FBC
ENCODING 8124
SWIDTH 630 0
DWIDTH 14 0
BBX 12 20 1 -4
BITMAP
0E00
0F00
0F00
1B00
1B80
1980
3180
31C0
30C0
70C0
7FE0
7FE0
E060
C070
C070
C030
0000
0600
0600
07C0
ENDCHAR
STARTCHAR 1FBD
ENCODING 8125
SWIDTH 630 0
DWIDTH 14 0
BBX 3 5 5 13
BITMAP
60
60
60
40
C0
ENDCHAR
STARTCHAR 1FBE
ENCODING 8126
SWIDTH 630 0
DWIDTH 14 0
BBX 5 3 4 -4
BITMAP
C0
C8
78
ENDCHAR
STARTCHAR 1FBF
ENCODING 8127
SWIDTH 630 0
DWIDTH 14 0
BBX 3 5 5 13
BITMAP
60
60
60
40
C0
ENDCHAR
STARTCHAR 1FC0
ENCODING 8128
SWIDTH 630 0
DWIDTH 14 0
BBX 7 3 3 15
BITMAP
20
FE
CE
ENDCHAR
STARTCHAR 1FC1
ENCODING 8129
SWIDTH 630 0
DWIDTH 14 0
BBX 8 6 3 14
BITMAP
7B
DE
00
42
E7
E6
ENDCHAR
STARTCHAR 1FC2
ENCODING 8130
SWIDTH 630 0
DWIDTH 14 0
BBX 10 23 2 -5
BITMAP
1000
3C00
0E00
0000
0000
0000
DF80
FB80
E180
C1C0
C1C0
C1C0
C1C0
C1C0
C1C0
C1C0
C1C0
C1C0
01C0
C1C0
C1C0
79C0
01C0
ENDCHAR
STARTCHAR 1FC3
ENCODING 8131
SWIDTH 630 0
DWIDTH 14 0
BBX 10 17 2 -5
BITMAP
DF80
FB80
E180
C1C0
C1C0
C1C0
C1C0
C1C0
C1C0
C1C0
C1C0
C1C0
01C0
C1C0
C1C0
79C0
01C0
ENDCHAR
STARTCHAR 1FC4
ENCODING 8132
SWIDTH 630 0
DWIDTH 14 0
BBX 10 23 2 -5
BITMAP
0600
0F00
3800
0000
0000
0000
DF80
FB80
E180
C1C0
C1C0
C1C0
C1C0
C1C0
C1C0
C1C0
C1C0
C1C0
01C0
C1C0
C1C0
79C0
01C0
ENDCHAR
STARTCHAR 1FC6
ENCODING 8134
SWIDTH 630 0
DWIDTH 14 0
BBX 10 23 2 -5
BITMAP
1100
3F00
6700
0000
0000
0000
DF80
FB80
E180
C1C0
C1C0
C1C0
C1C0
C1C0
C1C0
C1C0
C1C0
C1C0
01C0
01C0
01C0
01C0
01C0
ENDCHAR
STARTCHAR 1FC7
ENCODING 8135
SWIDTH 630 0
DWIDTH 14 0
BBX 10 23 2 -5
BITMAP
1100
3F00
6700
0000
0000
0000
DF80
FB80
E180
C1C0
C1C0
C1C0
C1C0
C1C0
C1C0
C1C0
C1C0
C1C0
01C0
C1C0
C1C0
79C0
01C0
ENDCHAR
STARTCHAR 1FC8
ENCODING 8136
SWIDTH 630 0
DWIDTH 14 0
BBX 13 16 -1 0
BITMAP
CFF8
CFF8
6C00
6C00
6C00
0C00
0C00
0FF0
0FF0
0C00
0C00
0C00
0C00
0C00
0FF8
0FF8
ENDCHAR
STARTCHAR 1FC9
ENCODING 8137
SWIDTH 630 0
DWIDTH 14 0
BBX 13 16 -1 0
BITMAP
6FF8
6FF8
CC00
CC00
CC00
0C00
0C00
0FF0
0FF0
0C00
0C00
0C00
0C00
0C00
0FF8
0FF8
ENDCHAR
STARTCHAR 1FCA
ENCODING 8138
SWIDTH 630 0
DWIDTH 14 0
BBX 14 16 -2 0
BITMAP
CC0C
EC0C
6C0C
6C0C
6C0C
0C0C
0C0C
0FFC
0FFC
0C0C
0C0C
0C0C
0C0C
0C0C
0C0C
0C0C
ENDCHAR
STARTCHAR 1FCB
ENCODING 8139
SWIDTH 630 0
DWIDTH 14 0
BBX 14 16 -2 0
BITMAP
6C0C
6C0C
EC0C
CC0C
CC0C
0C0C
0C0C
0FFC
0FFC
0C0C
0C0C
0C0C
0C0C
0C0C
0C0C
0C0C
ENDCHAR
STARTCHAR 1FCC
ENCODING 8140
SWIDTH 630 0
DWIDTH 14 0
BBX 10 20 2 -4
BITMAP
C0C0
C0C0
C0C0
C0C0
C0C0
C0C0
C0C0
FFC0
FFC0
C0C0
C0C0
C0C0
C0C0
C0C0
C0C0
C0C0
0000
0C00
0C00
0F80
ENDCHAR
STARTCHAR 1FCD
ENCODING 8141
SWIDTH 630 0
DWIDTH 14 0
BBX 6 5 4 13
BITMAP
D8
D8
CC
8C
8C
ENDCHAR
STARTCHAR 1FCE
ENCODING 8142
SWIDTH 630 0
DWIDTH 14 0
BBX 6 5 4 13
BITMAP
CC
C8
D8
98
90
ENDCHAR
STARTCHAR 1FCF
ENCODING 8143
SWIDTH 630 0
DWIDTH 14 0
BBX 7 7 3 13
BITMAP
72
FE
0C
18
18
18
10
ENDCHAR
STARTCHAR 1FD0
ENCODING 8144
SWIDTH 630 0
DWIDTH 14 0
BBX 11 18 1 0
BITMAP
3180
3180
1F00
0E00
0000
0000
FE00
FE00
0E00
0E00
0E00
0E00
0E00
0E00
0E00
0E00
07E0
07E0
ENDCHAR
STARTCHAR 1FD1
ENCODING 8145
SWIDTH 630 0
DWIDTH 14 0
BBX 11 17 1 0
BITMAP
3F80
3F80
0000
0000
0000
FE00
FE00
0E00
0E00
0E00
0E00
0E00
0E00
0E00
0E00
07E0
07E0
ENDCHAR
STARTCHAR 1FD2
ENCODING 8146
SWIDTH 630 0
DWIDTH 14 0
BBX 11 20 1 0
BITMAP
1000
1800
0C00
3580
3180
3180
0000
0000
FE00
FE00
0E00
0E00
0E00
0E00
0E00
0E00
0E00
0E00
07E0
07E0
ENDCHAR
STARTCHAR 1FD3
ENCODING 8147
SWIDTH 630 0
DWIDTH 14 0
BBX 11 20 1 0
BITMAP
0100
0300
0600
3580
3180
3180
0000
0000
FE00
FE00
0E00
0E00
0E00
0E00
0E00
0E00
0E00
0E00
07E0
07E0
ENDCHAR
STARTCHAR 1FD6
ENCODING 8150
SWIDTH 630 0
DWIDTH 14 0
BBX 11 18 1 0
BITMAP
1800
3F80
2700
0000
0000
0000
FE00
FE00
0E00
0E00
0E00
0E00
0E00
0E00
0E00
0E00
07E0
07E0
ENDCHAR
STARTCHAR 1FD7
ENCODING 8151
SWIDTH 630 0
DWIDTH 14 0
BBX 11 20 1 0
BITMAP
3D80
3780
0000
3180
3980
3180
0000
0000
FE00
FE00
0E00
0E00
0E00
0E00
0E00
0E00
0E00
0E00
07E0
07E0
ENDCHAR
STARTCHAR 1FD8
ENCODING 8152
SWIDTH 630 0
DWIDTH 14 0
BBX 9 20 2 0
BITMAP
6300
3F00
1C00
0000
FF80
FF80
0C00
0C00
0C00
0C00
0C00
0C00
0C00
0C00
0C00
0C00
0C00
0C00
FF80
FF80
ENDCHAR
STARTCHAR 1FD9
ENCODING 8153
SWIDTH 630 0
DWIDTH 14 0
BBX 9 20 2 0
BITMAP
3F00
3F00
0000
0000
FF80
FF80
0C00
0C00
0C00
0C00
0C00
0C00
0C00
0C00
0C00
0C00
0C00
0C00
FF80
FF80
ENDCHAR
STARTCHAR 1FDA
ENCODING 8154
SWIDTH 630 0
DWIDTH 14 0
BBX 12 16 -1 0
BITMAP
DFF0
DFF0
E180
6180
6180
0180
0180
0180
0180
0180
0180
0180
0180
0180
1FF0
1FF0
ENDCHAR
STARTCHAR 1FDB
ENCODING 8155
SWIDTH 630 0
DWIDTH 14 0
BBX 13 16 -2 0
BITMAP
7FF8
6FF8
60C0
60C0
C0C0
00C0
00C0
00C0
00C0
00C0
00C0
00C0
00C0
00C0
0FF8
0FF8
ENDCHAR
STARTCHAR 1FDD
ENCODING 8157
SWIDTH 630 0
DWIDTH 14 0
BBX 6 5 4 13
BITMAP
D8
D8
CC
CC
4C
ENDCHAR
STARTCHAR 1FDE
ENCODING 8158
SWIDTH 630 0
DWIDTH 14 0
BBX 6 5 4 13
BITMAP
CC
C8
D8
D8
50
ENDCHAR
STARTCHAR 1FDF
ENCODING 8159
SWIDTH 630 0
DWIDTH 14 0
BBX 7 7 3 13
BITMAP
72
FE
0C
18
38
10
18
ENDCHAR
STARTCHAR 1FE0
ENCODING 8160
SWIDTH 630 0
DWIDTH 14 0
BBX 10 18 2 0
BITMAP
6100
2300
3E00
0C00
0000
0000
C1C0
C0C0
C0C0
C0C0
C0C0
C0C0
C0C0
C0C0
C1C0
E180
7780
3E00
ENDCHAR
STARTCHAR 1FE1
ENCODING 8161
SWIDTH 630 0
DWIDTH 14 0
BBX 10 17 2 0
BITMAP
3F00
3F00
0000
0000
0000
C1C0
C0C0
C0C0
C0C0
C0C0
C0C0
C0C0
C0C0
C1C0
E180
7780
3E00
ENDCHAR
STARTCHAR 1FE2
ENCODING 8162
SWIDTH 630 0
DWIDTH 14 0
BBX 10 20 2 0
BITMAP
3000
3800
1800
2300
7380
2300
0000
0000
C1C0
C0C0
C0C0
C0C0
C0C0
C0C0
C0C0
C0C0
C1C0
E180
7780
3E00
ENDCHAR
STARTCHAR 1FE3
ENCODING 8163
SWIDTH 630 0
DWIDTH 14 0
BBX 10 20 2 0
BITMAP
0300
0600
0C00
6300
7380
2300
0000
0000
C1C0
C0C0
C0C0
C0C0
C0C0
C0C0
C0C0
C0C0
C1C0
E180
7780
3E00
ENDCHAR
STARTCHAR 1FE4
ENCODING 8164
SWIDTH 630 0
DWIDTH 14 0
BBX 10 23 2 -5
BITMAP
0E00
0600
0600
0400
0C00
0000
3F00
7380
61C0
C1C0
C0C0
C0C0
C0C0
C0C0
C1C0
E180
F780
DF00
C000
C000
C000
C000
C000
ENDCHAR
STARTCHAR 1FE5
ENCODING 8165
SWIDTH 630 0
DWIDTH 14 0
BBX 10 23 2 -5
BITMAP
1800
1800
1800
0800
0C00
0000
3F00
7380
61C0
C1C0
C0C0
C0C0
C0C0
C0C0
C1C0
E180
F780
DF00
C000
C000
C000
C000
C000
ENDCHAR
STARTCHAR 1FE6
ENCODING 8166
SWIDTH 630 0
DWIDTH 14 0
BBX 10 18 2 0
BITMAP
1000
7F00
6700
0000
0000
0000
C1C0
C0C0
C0C0
C0C0
C0C0
C0C0
C0C0
C0C0
C1C0
E180
7780
3E00
ENDCHAR
STARTCHAR 1FE7
ENCODING 8167
SWIDTH 630 0
DWIDTH 14 0
BBX 10 20 2 0
BITMAP
3D80
6F00
0000
2100
7380
7300
0000
0000
C1C0
C0C0
C0C0
C0C0
C0C0
C0C0
C0C0
C0C0
C1C0
E180
7780
3E00
ENDCHAR
STARTCHAR 1FE8
ENCODING 8168
SWIDTH 630 0
DWIDTH 14 0
BBX 12 20 1 0
BITMAP
1180
1F80
0E00
0000
C030
E070
6060
70E0
30C0
3980
1980
1F00
0F00
0E00
0600
0600
0600
0600
0600
0600
ENDCHAR
STARTCHAR 1FE9
ENCODING 8169
SWIDTH 630 0
DWIDTH 14 0
BBX 12 20 1 0
BITMAP
1F80
1F80
0000
0000
C030
E070
6060
70E0
30C0
3980
1980
1F00
0F00
0E00
0600
0600
0600
0600
0600
0600
ENDCHAR
STARTCHAR 1FEA
ENCODING 8170
SWIDTH 630 0
DWIDTH 14 0
BBX 16 16 -3 0
BITMAP
EC03
6E07
6606
270E
330C
0398
0198
01F0
00F0
00E0
0060
0060
0060
0060
0060
0060
ENDCHAR
STARTCHAR 1FEB
ENCODING 8171
SWIDTH 630 0
DWIDTH 14 0
BBX 16 16 -3 0
BITMAP
6C03
EE07
C606
C70E
C30C
0398
0198
01F0
00F0
00E0
0060
0060
0060
0060
0060
0060
ENDCHAR
STARTCHAR 1FEC
ENCODING 8172
SWIDTH 630 0
DWIDTH 14 0
BBX 15 16 -2 0
BITMAP
6FE0
EFF8
6E1C
6E0E
2E0E
0E0E
0E0E
0E0C
0E7C
0FF0
0E00
0E00
0E00
0E00
0E00
0E00
ENDCHAR
STARTCHAR 1FED
ENCODING 8173
SWIDTH 630 0
DWIDTH 14 0
BBX 8 6 3 14
BITMAP
60
70
30
46
E7
46
ENDCHAR
STARTCHAR 1FEE
ENCODING 8174
SWIDTH 630 0
DWIDTH 14 0
BBX 8 6 3 14
BITMAP
06
0C
18
46
E7
46
ENDCHAR
STARTCHAR 1FEF
ENCODING 8175
SWIDTH 630 0
DWIDTH 14 0
BBX 5 3 4 15
BITMAP
40
F0
38
ENDCHAR
STARTCHAR 1FF2
ENCODING 8178
SWIDTH 630 0
DWIDTH 14 0
BBX 12 22 1 -4
BITMAP
0800
1E00
0700
0000
0000
0000
4060
C060
C030
C030
C630
C630
C630
C630
C630
C630
EF60
79E0
0000
0600
0600
07C0
ENDCHAR
STARTCHAR 1FF3
ENCODING 8179
SWIDTH 630 0
DWIDTH 14 0
BBX 12 16 1 -4
BITMAP
4060
C060
C030
C030
C630
C630
C630
C630
C630
C630
EF60
79E0
0000
0600
0600
07C0
ENDCHAR
STARTCHAR 1FF4
ENCODING 8180
SWIDTH 630 0
DWIDTH 14 0
BBX 12 22 1 -4
BITMAP
0300
0780
1C00
0000
0000
0000
4060
C060
C030
C030
C630
C630
C630
C630
C630
C630
EF60
79E0
0000
0600
0600
07C0
ENDCHAR
STARTCHAR 1FF6
ENCODING 8182
SWIDTH 630 0
DWIDTH 14 0
BBX 12 18 1 0
BITMAP
0800
3F80
3380
0000
0000
0000
4060
C060
C030
C030
C630
C630
C630
C630
C630
C630
EF60
79E0
ENDCHAR
STARTCHAR 1FF7
ENCODING 8183
SWIDTH 630 0
DWIDTH 14 0
BBX 12 22 1 -4
BITMAP
0800
3F80
3380
0000
0000
0000
4060
C060
C030
C030
C630
C630
C630
C630
C630
C630
EF60
79E0
0000
0600
0600
07C0
ENDCHAR
STARTCHAR 1FF8
ENCODING 8184
SWIDTH 630 0
DWIDTH 14 0
BBX 15 16 -2 0
BITMAP
C1E0
C7F8
EE18
6C0C
7C0C
1C0C
180E
180E
180E
180E
180E
1C0C
0C0C
0E1C
07F8
03F0
ENDCHAR
STARTCHAR 1FF9
ENCODING 8185
SWIDTH 630 0
DWIDTH 14 0
BBX 15 16 -2 0
BITMAP
71E0
67F8
6E18
4C0C
DC0C
1C0C
180E
180E
180E
180E
180E
1C0C
0C0C
0E1C
07F8
03F0
ENDCHAR
STARTCHAR 1FFA
ENCODING 8186
SWIDTH 630 0
DWIDTH 14 0
BBX 15 16 -2 0
BITMAP
C1E0
C7F8
EE18
6C0C
7C0C
180C
180E
180E
180E
180E
1C0C
0C0C
0C1C
0618
1F3C
1F3C
ENDCHAR
STARTCHAR 1FFB
ENCODING 8187
SWIDTH 630 0
DWIDTH 14 0
BBX 15 16 -2 0
BITMAP
71E0
67F8
6E18
4C0C
DC0C
180C
180E
180E
180E
180E
1C0C
0C0C
0C1C
0618
1F3C
1F3C
ENDCHAR
STARTCHAR 1FFC
ENCODING 8188
SWIDTH 630 0
DWIDTH 14 0
BBX 12 20 1 -4
BITMAP
0F00
3FC0
70C0
6060
E060
C060
C070
C070
C070
C070
E060
6060
60E0
30C0
F9E0
F9E0
0000
0600
0600
07C0
ENDCHAR
STARTCHAR 1FFD
ENCODING 8189
SWIDTH 630 0
DWIDTH 14 0
BBX 6 3 4 15
BITMAP
18
3C
E0
ENDCHAR
STARTCHAR 1FFE
ENCODING 8190
SWIDTH 630 0
DWIDTH 14 0
BBX 3 5 5 13
BITMAP
E0
60
60
60
20
ENDCHAR
STARTCHAR 2007
ENCODING 8199
SWIDTH 630 0
DWIDTH 14 0
BBX 0 0 0 0
BITMAP
ENDCHAR
STARTCHAR 2008
ENCODING 8200
SWIDTH 630 0
DWIDTH 14 0
BBX 0 0 0 0
BITMAP
ENDCHAR
STARTCHAR 200B
ENCODING 8203
SWIDTH 630 0
DWIDTH 14 0
BBX 0 0 0 0
BITMAP
ENDCHAR
STARTCHAR 2012
ENCODING 8210
SWIDTH 630 0
DWIDTH 14 0
BBX 12 2 1 6
BITMAP
FFF0
FFF0
ENDCHAR
STARTCHAR 2013
ENCODING 8211
SWIDTH 630 0
DWIDTH 14 0
BBX 12 2 1 6
BITMAP
FFF0
FFF0
ENDCHAR
STARTCHAR 2014
ENCODING 8212
SWIDTH 630 0
DWIDTH 14 0
BBX 14 2 0 6
BITMAP
FFFC
FFFC
ENDCHAR
STARTCHAR 2015
ENCODING 8213
SWIDTH 630 0
DWIDTH 14 0
BBX 12 2 1 7
BITMAP
FFF0
FFF0
ENDCHAR
STARTCHAR 2016
ENCODING 8214
SWIDTH 630 0
DWIDTH 14 0
BBX 6 28 4 -7
BITMAP
CC
CC
CC
CC
CC
CC
CC
CC
CC
CC
CC
CC
CC
CC
CC
CC
CC
CC
CC
CC
CC
CC
CC
CC
CC
CC
CC
CC
ENDCHAR
STARTCHAR 2017
ENCODING 8215
SWIDTH 630 0
DWIDTH 14 0
BBX 12 5 1 -5
BITMAP
FFF0
FFF0
0000
FFF0
FFF0
ENDCHAR
STARTCHAR 2018
ENCODING 8216
SWIDTH 630 0
DWIDTH 14 0
BBX 4 7 5 11
BITMAP
30
60
60
60
E0
E0
E0
ENDCHAR
STARTCHAR 2019
ENCODING 8217
SWIDTH 630 0
DWIDTH 14 0
BBX 4 7 5 11
BITMAP
60
F0
F0
60
E0
C0
C0
ENDCHAR
STARTCHAR 201A
ENCODING 8218
SWIDTH 630 0
DWIDTH 14 0
BBX 4 7 5 -4
BITMAP
60
F0
F0
60
E0
C0
C0
ENDCHAR
STARTCHAR 201C
ENCODING 8220
SWIDTH 630 0
DWIDTH 14 0
BBX 9 7 2 11
BITMAP
3180
3180
3380
6300
7380
F780
7380
ENDCHAR
STARTCHAR 201D
ENCODING 8221
SWIDTH 630 0
DWIDTH 14 0
BBX 8 7 3 11
BITMAP
E7
E7
E7
E7
C6
C6
84
ENDCHAR
STARTCHAR 201E
ENCODING 8222
SWIDTH 630 0
DWIDTH 14 0
BBX 8 7 3 -4
BITMAP
E7
E7
E7
E7
C6
C6
84
ENDCHAR
STARTCHAR 2020
ENCODING 8224
SWIDTH 630 0
DWIDTH 14 0
BBX 10 15 2 0
BITMAP
0C00
0C00
0C00
FFC0
FFC0
0C00
0C00
0C00
0C00
0C00
0C00
0C00
0C00
0C00
0C00
ENDCHAR
STARTCHAR 2021
ENCODING 8225
SWIDTH 630 0
DWIDTH 14 0
BBX 10 15 2 0
BITMAP
0C00
0C00
0C00
FFC0
FFC0
0C00
0C00
0C00
0C00
0C00
FFC0
0C00
0C00
0C00
0C00
ENDCHAR
STARTCHAR 2022
ENCODING 8226
SWIDTH 630 0
DWIDTH 14 0
BBX 6 6 4 5
BITMAP
30
78
FC
FC
F8
78
ENDCHAR
STARTCHAR 2026
ENCODING 8230
SWIDTH 630 0
DWIDTH 14 0
BBX 12 3 1 0
BITMAP
C660
EE70
EE70
ENDCHAR
STARTCHAR 2030
ENCODING 8240
SWIDTH 630 0
DWIDTH 14 0
BBX 12 16 1 0
BITMAP
7800
CC00
CC00
CC00
CC30
78F0
0780
3C00
F000
8000
78E0
CDB0
CF10
CF10
CD30
79E0
ENDCHAR
STARTCHAR 2039
ENCODING 8249
SWIDTH 630 0
DWIDTH 14 0
BBX 5 11 4 1
BITMAP
08
18
30
70
E0
E0
E0
70
30
18
08
ENDCHAR
STARTCHAR 203A
ENCODING 8250
SWIDTH 630 0
DWIDTH 14 0
BBX 5 11 4 1
BITMAP
C0
60
70
38
18
18
38
30
60
60
40
ENDCHAR
STARTCHAR 2044
ENCODING 8260
SWIDTH 630 0
DWIDTH 14 0
BBX 12 7 -6 4
BITMAP
0030
00E0
0380
0E00
3800
E000
8000
ENDCHAR
STARTCHAR 204A
ENCODING 8266
SWIDTH 630 0
DWIDTH 14 0
BBX 9 17 2 -5
BITMAP
FF80
FF80
0180
0380
0300
0300
0700
0600
0600
0C00
0C00
1C00
1800
1800
3000
3000
3000
ENDCHAR
STARTCHAR 2070
ENCODING 8304
SWIDTH 630 0
DWIDTH 14 0
BBX 7 8 3 7
BITMAP
18
7C
66
C6
C6
C6
6E
3C
ENDCHAR
STARTCHAR 2074
ENCODING 8308
SWIDTH 630 0
DWIDTH 14 0
BBX 7 8 3 7
BITMAP
10
10
30
64
6C
FE
FE
0C
ENDCHAR
STARTCHAR 2075
ENCODING 8309
SWIDTH 630 0
DWIDTH 14 0
BBX 6 7 4 7
BITMAP
FC
C0
F8
CC
0C
DC
78
ENDCHAR
STARTCHAR 2076
ENCODING 8310
SWIDTH 630 0
DWIDTH 14 0
BBX 7 8 3 7
BITMAP
18
7C
60
DC
E6
46
7E
3C
ENDCHAR
STARTCHAR 2077
ENCODING 8311
SWIDTH 630 0
DWIDTH 14 0
BBX 6 7 4 7
BITMAP
FC
0C
18
30
30
60
60
ENDCHAR
STARTCHAR 2078
ENCODING 8312
SWIDTH 630 0
DWIDTH 14 0
BBX 7 8 3 7
BITMAP
18
7E
46
7C
7E
C2
EE
7C
ENDCHAR
STARTCHAR 2079
ENCODING 8313
SWIDTH 630 0
DWIDTH 14 0
BBX 7 8 3 7
BITMAP
18
7E
C6
C6
7E
06
3C
70
ENDCHAR
STARTCHAR 207A
ENCODING 8314
SWIDTH 630 0
DWIDTH 14 0
BBX 6 6 4 8
BITMAP
30
30
FC
FC
30
30
ENDCHAR
STARTCHAR 207B
ENCODING 8315
SWIDTH 630 0
DWIDTH 14 0
BBX 6 2 4 10
BITMAP
FC
FC
ENDCHAR
STARTCHAR 207C
ENCODING 8316
SWIDTH 630 0
DWIDTH 14 0
BBX 6 4 4 9
BITMAP
FC
00
00
FC
ENDCHAR
STARTCHAR 207D
ENCODING 8317
SWIDTH 630 0
DWIDTH 14 0
BBX 3 12 5 5
BITMAP
20
60
40
C0
C0
C0
C0
C0
C0
40
60
20
ENDCHAR
STARTCHAR 207E
ENCODING 8318
SWIDTH 630 0
DWIDTH 14 0
BBX 4 12 5 5
BITMAP
40
40
60
20
30
30
30
30
20
60
60
C0
ENDCHAR
STARTCHAR 207F
ENCODING 8319
SWIDTH 630 0
DWIDTH 14 0
BBX 6 7 4 9
BITMAP
BC
CC
CC
CC
CC
CC
CC
ENDCHAR
STARTCHAR 2080
ENCODING 8320
SWIDTH 630 0
DWIDTH 14 0
BBX 7 8 3 -5
BITMAP
3C
6E
C6
C6
C6
66
7C
10
ENDCHAR
STARTCHAR 2081
ENCODING 8321
SWIDTH 630 0
DWIDTH 14 0
BBX 4 7 5 -4
BITMAP
30
F0
F0
30
30
30
30
ENDCHAR
STARTCHAR 2082
ENCODING 8322
SWIDTH 630 0
DWIDTH 14 0
BBX 6 7 4 -4
BITMAP
78
DC
0C
0C
38
60
FC
ENDCHAR
STARTCHAR 2083
ENCODING 8323
SWIDTH 630 0
DWIDTH 14 0
BBX 6 8 4 -5
BITMAP
78
CC
0C
30
0C
8C
FC
30
ENDCHAR
STARTCHAR 2084
ENCODING 8324
SWIDTH 630 0
DWIDTH 14 0
BBX 7 7 3 -4
BITMAP
18
30
30
6C
4C
FE
0C
ENDCHAR
STARTCHAR 2085
ENCODING 8325
SWIDTH 630 0
DWIDTH 14 0
BBX 6 8 4 -5
BITMAP
FC
FC
C0
FC
0C
8C
FC
30
ENDCHAR
STARTCHAR 2086
ENCODING 8326
SWIDTH 630 0
DWIDTH 14 0
BBX 7 8 3 -5
BITMAP
3E
64
40
FE
C6
66
7E
18
ENDCHAR
STARTCHAR 2087
ENCODING 8327
SWIDTH 630 0
DWIDTH 14 0
BBX 6 7 4 -5
BITMAP
FC
FC
18
18
30
30
60
ENDCHAR
STARTCHAR 2088
ENCODING 8328
SWIDTH 630 0
DWIDTH 14 0
BBX 7 8 3 -5
BITMAP
3C
66
66
3C
E6
C2
7E
18
ENDCHAR
STARTCHAR 2089
ENCODING 8329
SWIDTH 630 0
DWIDTH 14 0
BBX 7 7 3 -5
BITMAP
3C
66
C6
6E
3E
0E
78
ENDCHAR
STARTCHAR 208A
ENCODING 8330
SWIDTH 630 0
DWIDTH 14 0
BBX 6 5 4 -3
BITMAP
30
30
FC
30
30
ENDCHAR
STARTCHAR 208B
ENCODING 8331
SWIDTH 630 0
DWIDTH 14 0
BBX 6 1 4 -1
BITMAP
FC
ENDCHAR
STARTCHAR 208C
ENCODING 8332
SWIDTH 630 0
DWIDTH 14 0
BBX 6 5 4 -3
BITMAP
FC
FC
00
FC
FC
ENDCHAR
STARTCHAR 208D
ENCODING 8333
SWIDTH 630 0
DWIDTH 14 0
BBX 3 12 5 -7
BITMAP
20
60
C0
C0
C0
C0
C0
C0
C0
60
60
20
ENDCHAR
STARTCHAR 208E
ENCODING 8334
SWIDTH 630 0
DWIDTH 14 0
BBX 4 12 5 -7
BITMAP
C0
60
60
20
30
30
30
30
20
60
40
40
ENDCHAR
STARTCHAR 20AC
ENCODING 8364
SWIDTH 630 0
DWIDTH 14 0
BBX 11 16 1 0
BITMAP
07C0
0FE0
1C20
1800
3000
3000
FF80
3000
3000
FF80
FF80
3000
3800
1800
1FE0
07E0
ENDCHAR
STARTCHAR 20AF
ENCODING 8367
SWIDTH 630 0
DWIDTH 14 0
BBX 8 21 3 -5
BITMAP
18
18
28
2C
64
66
46
C2
FF
00
3C
66
46
46
46
46
7C
58
40
40
40
ENDCHAR
STARTCHAR 20B9
ENCODING 8377
SWIDTH 630 0
DWIDTH 14 0
BBX 10 16 2 0
BITMAP
FFC0
FFC0
0700
0300
FFC0
0300
0300
0700
FE00
F800
1C00
0C00
0E00
0700
0300
0380
ENDCHAR
STARTCHAR 20BA
ENCODING 8378
SWIDTH 630 0
DWIDTH 14 0
BBX 12 16 1 0
BITMAP
3000
3000
3000
3000
3100
3F00
3C00
F100
3700
3C00
7000
7000
3070
30E0
3FC0
3F80
ENDCHAR
STARTCHAR 20BD
ENCODING 8381
SWIDTH 630 0
DWIDTH 14 0
BBX 12 16 1 0
BITMAP
3F00
3FC0
30E0
3070
3070
3070
3070
3060
31E0
FF80
3000
3000
FF00
3000
3000
3000
ENDCHAR
STARTCHAR 2113
ENCODING 8467
SWIDTH 630 0
DWIDTH 14 0
BBX 9 17 2 0
BITMAP
0F00
1B80
1980
3180
3180
3180
3300
3600
3C00
3800
3000
F000
B000
3000
3000
1F00
1F80
ENDCHAR
STARTCHAR 2116
ENCODING 8470
SWIDTH 630 0
DWIDTH 14 0
BBX 12 16 1 0
BITMAP
CCE0
CDF0
ED30
EF30
EF30
EF30
AF30
AD30
BDB0
BCE0
BC00
9C00
9400
9C00
9DF0
9DF0
ENDCHAR
STARTCHAR 2122
ENCODING 8482
SWIDTH 630 0
DWIDTH 14 0
BBX 13 9 0 7
BITMAP
FF98
FFB8
33A8
33A8
33A8
33A8
3368
3268
3208
ENDCHAR
STARTCHAR 212E
ENCODING 8494
SWIDTH 630 0
DWIDTH 14 0
BBX 13 16 0 0
BITMAP
0FC0
3020
2030
6038
6038
E038
E038
FFF8
E000
E000
E000
6000
6000
6010
3030
1FC0
ENDCHAR
STARTCHAR 2153
ENCODING 8531
SWIDTH 630 0
DWIDTH 14 0
BBX 14 16 0 0
BITMAP
1000
7000
D000
1000
1000
1018
1070
13C0
0F00
3CF8
F08C
4018
0038
000C
018C
00F8
ENDCHAR
STARTCHAR 2154
ENCODING 8532
SWIDTH 630 0
DWIDTH 14 0
BBX 16 16 -1 0
BITMAP
3800
FC00
0400
0C00
1C00
300C
FE3C
FEF0
0380
0E7E
3806
2006
001E
0003
0067
007E
ENDCHAR
STARTCHAR 2155
ENCODING 8533
SWIDTH 630 0
DWIDTH 14 0
BBX 14 16 0 0
BITMAP
3000
7000
F000
3000
3000
3030
30F0
3380
0E00
38FC
E0C0
80F8
00CC
000C
008C
00F8
ENDCHAR
STARTCHAR 2156
ENCODING 8534
SWIDTH 630 0
DWIDTH 14 0
BBX 16 16 -1 0
BITMAP
3800
FC00
0C00
0C00
1800
700C
FE38
FCE0
0380
1E3E
7830
203E
0037
0003
0027
003E
ENDCHAR
STARTCHAR 2157
ENCODING 8535
SWIDTH 630 0
DWIDTH 14 0
BBX 15 16 -1 0
BITMAP
3C00
7E00
0600
1C00
0600
0618
FE78
3DE0
0780
1C7E
7060
407C
0066
0006
0066
007C
ENDCHAR
STARTCHAR 2158
ENCODING 8536
SWIDTH 630 0
DWIDTH 14 0
BBX 16 16 -1 0
BITMAP
1000
3000
3000
6C00
4C00
FE0C
0C38
0CE0
0780
1E3E
7820
203C
0036
0003
0066
003E
ENDCHAR
STARTCHAR 2159
ENCODING 8537
SWIDTH 630 0
DWIDTH 14 0
BBX 13 16 0 0
BITMAP
1800
7800
F800
1800
1800
1818
1870
19C0
0700
3CF8
F180
4170
03D8
0108
0198
00F0
ENDCHAR
STARTCHAR 215A
ENCODING 8538
SWIDTH 630 0
DWIDTH 14 0
BBX 14 16 0 0
BITMAP
7C00
7C00
6000
7C00
0600
0618
FC70
39C0
0700
3CF8
F180
4170
01D8
018C
0198
00F0
ENDCHAR
STARTCHAR 215B
ENCODING 8539
SWIDTH 630 0
DWIDTH 14 0
BBX 14 16 0 0
BITMAP
1000
7000
D000
1000
1000
1018
10F0
13C0
0F00
3CF8
F18C
01F8
00F8
018C
018C
00F8
ENDCHAR
STARTCHAR 215C
ENCODING 8540
SWIDTH 630 0
DWIDTH 14 0
BBX 14 16 0 0
BITMAP
7800
FC00
0C00
3800
0C00
0618
FC70
7BC0
0F00
3CF8
F18C
41F8
00F8
018C
018C
00F8
ENDCHAR
STARTCHAR 215D
ENCODING 8541
SWIDTH 630 0
DWIDTH 14 0
BBX 14 16 0 0
BITMAP
7C00
7C00
4000
7C00
0600
0630
FCF0
3BC0
0F00
39F8
E188
81F8
01F8
010C
019C
01F8
ENDCHAR
STARTCHAR 215E
ENCODING 8542
SWIDTH 630 0
DWIDTH 14 0
BBX 14 16 0 0
BITMAP
7F00
7F00
0600
0C00
0C00
1830
38F0
13C0
0F00
39F8
E188
81F8
01F8
010C
019C
01F8
ENDCHAR
STARTCHAR 215F
ENCODING 8543
SWIDTH 630 0
DWIDTH 14 0
BBX 12 12 1 4
BITMAP
3000
7000
F000
3000
3000
3030
30E0
3380
0E00
3800
E000
8000
ENDCHAR
STARTCHAR 218A
ENCODING 8586
SWIDTH 630 0
DWIDTH 14 0
BBX 10 16 1 0
BITMAP
7FC0
FFC0
01C0
0380
0700
0E00
1C00
3800
3000
7000
6000
6000
6000
70C0
3FC0
1F80
ENDCHAR
STARTCHAR 218B
ENCODING 8587
SWIDTH 630 0
DWIDTH 14 0
BBX 10 16 1 0
BITMAP
1F00
3FC0
70C0
E000
C000
E000
6000
7000
1E00
3800
6000
6000
6000
6000
79C0
1F80
ENDCHAR
STARTCHAR 2190
ENCODING 8592
SWIDTH 630 0
DWIDTH 14 0
BBX 13 13 0 1
BITMAP
0300
0700
0E00
1C00
3800
7000
FFF8
7000
3800
1C00
0E00
0700
0300
ENDCHAR
STARTCHAR 2191
ENCODING 8593
SWIDTH 630 0
DWIDTH 14 0
BBX 14 15 0 0
BITMAP
0300
0780
0FC0
1BE0
3370
E338
C30C
0300
0300
0300
0300
0300
0300
0300
0300
ENDCHAR
STARTCHAR 2192
ENCODING 8594
SWIDTH 630 0
DWIDTH 14 0
BBX 13 13 0 1
BITMAP
0300
0380
01C0
00E0
0060
0030
FFF8
0030
0060
00E0
01C0
0380
0300
ENDCHAR
STARTCHAR 2193
ENCODING 8595
SWIDTH 630 0
DWIDTH 14 0
BBX 14 16 0 -1
BITMAP
0300
0300
0300
0300
0300
0300
0300
0300
C308
E31C
7338
3B70
1FC0
0F80
0700
0200
ENDCHAR
STARTCHAR 2194
ENCODING 8596
SWIDTH 630 0
DWIDTH 14 0
BBX 18 13 -2 1
BITMAP
041000
063800
0C1C00
1C0E00
380700
600380
FFFFC0
600380
380700
1C0E00
0C1C00
063800
041000
ENDCHAR
STARTCHAR 2195
ENCODING 8597
SWIDTH 630 0
DWIDTH 14 0
BBX 14 24 0 -4
BITMAP
0200
0700
0F80
1FE0
3B70
7338
E31C
C308
0300
0300
0300
0300
0300
0300
0300
0300
0300
C30C
E318
7370
1BE0
0FC0
0780
0300
ENDCHAR
STARTCHAR 2196
ENCODING 8598
SWIDTH 630 0
DWIDTH 14 0
BBX 11 12 1 2
BITMAP
03C0
FFC0
E000
F000
D800
CC00
C600
C300
C180
C0C0
C060
0020
ENDCHAR
STARTCHAR 2197
ENCODING 8599
SWIDTH 630 0
DWIDTH 14 0
BBX 12 12 1 2
BITMAP
3C00
3FE0
00E0
01F0
03B0
0730
0E30
1C30
3830
7030
E020
C000
ENDCHAR
STARTCHAR 2198
ENCODING 8600
SWIDTH 630 0
DWIDTH 14 0
BBX 12 12 1 1
BITMAP
4000
E000
7030
3830
1C30
0E30
0730
03B0
01F0
00E0
3FE0
3FE0
ENDCHAR
STARTCHAR 2199
ENCODING 8601
SWIDTH 630 0
DWIDTH 14 0
BBX 12 12 1 1
BITMAP
0020
0070
C0E0
C1C0
C380
C700
CE00
DC00
F800
F000
FFC0
FFC0
ENDCHAR
STARTCHAR 21A9
ENCODING 8617
SWIDTH 630 0
DWIDTH 14 0
BBX 12 13 1 -1
BITMAP
03C0
03E0
0030
0430
0C30
1C30
7C70
FFE0
FF80
3C00
1C00
0C00
0400
ENDCHAR
STARTCHAR 21DE
ENCODING 8670
SWIDTH 630 0
DWIDTH 14 0
BBX 9 20 2 -3
BITMAP
0800
0C00
1E00
3F00
7F80
FF80
0C00
0C00
0C00
0C00
FF80
FF80
0C00
0C00
FF80
FF80
0C00
0C00
0C00
0C00
ENDCHAR
STARTCHAR 21DF
ENCODING 8671
SWIDTH 630 0
DWIDTH 14 0
BBX 10 20 2 -3
BITMAP
0C00
0C00
0C00
0C00
FF80
FF80
0C00
0C00
0C00
FF80
0C00
0C00
0C00
0C00
FFC0
7F80
3F00
3E00
1C00
0800
ENDCHAR
STARTCHAR 21E4
ENCODING 8676
SWIDTH 630 0
DWIDTH 14 0
BBX 13 12 0 1
BITMAP
C000
C080
C180
C380
CF80
DFF8
CFF8
C780
C380
C180
C080
C000
ENDCHAR
STARTCHAR 21E5
ENCODING 8677
SWIDTH 630 0
DWIDTH 14 0
BBX 12 12 1 1
BITMAP
0030
0830
0C30
0E30
0F30
FFB0
FFB0
0F30
0E30
0C30
0030
0030
ENDCHAR
STARTCHAR 21E6
ENCODING 8678
SWIDTH 630 0
DWIDTH 14 0
BBX 16 13 -1 0
BITMAP
0200
0600
0E00
1A00
33FE
6001
C001
4001
2001
13FE
0A00
0600
0200
ENDCHAR
STARTCHAR 21E7
ENCODING 8679
SWIDTH 630 0
DWIDTH 14 0
BBX 13 19 0 0
BITMAP
0200
0700
0C80
1840
3020
6010
F878
0840
0840
0840
0840
0840
0840
0840
0840
0840
0840
0840
0FC0
ENDCHAR
STARTCHAR 21E8
ENCODING 8680
SWIDTH 630 0
DWIDTH 14 0
BBX 15 12 -1 1
BITMAP
0040
0060
0050
FFC8
8004
8002
8002
8004
7FC8
0050
0060
0040
ENDCHAR
STARTCHAR 21E9
ENCODING 8681
SWIDTH 630 0
DWIDTH 14 0
BBX 14 19 0 -2
BITMAP
0FC0
0840
0840
0840
0840
0840
0840
0840
0840
0840
0840
0840
F87C
6018
3030
1860
0CC0
0700
0200
ENDCHAR
STARTCHAR 21EA
ENCODING 8682
SWIDTH 630 0
DWIDTH 14 0
BBX 13 19 0 0
BITMAP
0200
0700
0C80
1840
3020
6010
F878
0840
0840
0840
0840
0840
0FC0
0000
0000
0FC0
0840
0840
0FC0
ENDCHAR
STARTCHAR 2202
ENCODING 8706
SWIDTH 630 0
DWIDTH 14 0
BBX 10 16 2 0
BITMAP
6000
7C00
0E00
0700
0380
0180
3D80
7FC0
E1C0
C1C0
C0C0
C1C0
C180
E180
7700
3E00
ENDCHAR
STARTCHAR 2206
ENCODING 8710
SWIDTH 630 0
DWIDTH 14 0
BBX 12 16 1 0
BITMAP
0E00
0F00
0F00
1B00
1B80
1980
3180
31C0
30C0
70C0
60E0
6060
E060
C070
FFF0
FFF0
ENDCHAR
STARTCHAR 220F
ENCODING 8719
SWIDTH 630 0
DWIDTH 14 0
BBX 12 21 1 -5
BITMAP
FFF0
FFF0
30C0
30C0
30C0
30C0
30C0
30C0
30C0
30C0
30C0
30C0
30C0
30C0
30C0
30C0
30C0
30C0
30C0
30C0
30C0
ENDCHAR
STARTCHAR 2211
ENCODING 8721
SWIDTH 630 0
DWIDTH 14 0
BBX 9 16 2 0
BITMAP
FF80
FF80
E000
7000
3800
1C00
0C00
0600
0600
0E00
1C00
3800
3000
6000
FF80
FF80
ENDCHAR
STARTCHAR 2212
ENCODING 8722
SWIDTH 630 0
DWIDTH 14 0
BBX 9 2 2 6
BITMAP
FF80
FF80
ENDCHAR
STARTCHAR 2215
ENCODING 8725
SWIDTH 630 0
DWIDTH 14 0
BBX 13 7 0 4
BITMAP
0018
0070
01C0
0700
1C00
F000
4000
ENDCHAR
STARTCHAR 2219
ENCODING 8729
SWIDTH 630 0
DWIDTH 14 0
BBX 4 4 5 6
BITMAP
60
F0
F0
E0
ENDCHAR
STARTCHAR 221A
ENCODING 8730
SWIDTH 630 0
DWIDTH 14 0
BBX 15 20 1 0
BITMAP
007E
007E
0060
00C0
00C0
00C0
0180
0180
0180
C180
C300
C300
6300
6300
6600
3600
3600
3C00
1C00
1C00
ENDCHAR
STARTCHAR 221E
ENCODING 8734
SWIDTH 630 0
DWIDTH 14 0
BBX 14 9 0 3
BITMAP
3070
7CF8
C598
C70C
C30C
C30C
C70C
EDD8
78F8
ENDCHAR
STARTCHAR 2227
ENCODING 8743
SWIDTH 630 0
DWIDTH 14 0
BBX 10 11 2 1
BITMAP
1C00
1E00
1E00
3200
3300
6300
6180
6180
C180
C0C0
C0C0
ENDCHAR
STARTCHAR 2228
ENCODING 8744
SWIDTH 630 0
DWIDTH 14 0
BBX 10 11 2 1
BITMAP
80C0
C0C0
C180
6180
6180
6300
3300
3300
1600
1E00
1C00
ENDCHAR
STARTCHAR 2229
ENCODING 8745
SWIDTH 630 0
DWIDTH 14 0
BBX 10 12 2 1
BITMAP
3F00
7F80
C180
C0C0
80C0
80C0
80C0
80C0
80C0
80C0
80C0
80C0
ENDCHAR
STARTCHAR 222B
ENCODING 8747
SWIDTH 630 0
DWIDTH 14 0
BBX 10 24 2 -5
BITMAP
07C0
0C00
0C00
0C00
0C00
0C00
0C00
0C00
0C00
0C00
0C00
0C00
0C00
0C00
0C00
0C00
0C00
0C00
0C00
0C00
0C00
1C00
F800
F000
ENDCHAR
STARTCHAR 2234
ENCODING 8756
SWIDTH 630 0
DWIDTH 14 0
BBX 10 10 2 3
BITMAP
0800
1C00
1C00
0C00
0000
0000
0000
E1C0
E1C0
C1C0
ENDCHAR
STARTCHAR 2235
ENCODING 8757
SWIDTH 630 0
DWIDTH 14 0
BBX 10 10 2 3
BITMAP
C080
E1C0
E1C0
4080
0000
0000
0000
1C00
1C00
0C00
ENDCHAR
STARTCHAR 2248
ENCODING 8776
SWIDTH 630 0
DWIDTH 14 0
BBX 10 8 2 3
BITMAP
3880
7F80
CF80
0000
0000
7CC0
CF80
0200
ENDCHAR
STARTCHAR 2260
ENCODING 8800
SWIDTH 630 0
DWIDTH 14 0
BBX 9 12 2 2
BITMAP
0180
0100
0300
FF80
FF80
0C00
0800
FF80
FF80
2000
6000
4000
ENDCHAR
STARTCHAR 2261
ENCODING 8801
SWIDTH 630 0
DWIDTH 14 0
BBX 9 10 2 2
BITMAP
FF80
0000
0000
0000
FF80
FF80
0000
0000
FF80
FF80
ENDCHAR
STARTCHAR 2262
ENCODING 8802
SWIDTH 630 0
DWIDTH 14 0
BBX 9 18 2 -2
BITMAP
0300
0200
0200
0200
FF80
0400
0400
0C00
FF80
FF80
0800
1800
FF80
FF80
1000
3000
2000
2000
ENDCHAR
STARTCHAR 2264
ENCODING 8804
SWIDTH 630 0
DWIDTH 14 0
BBX 9 13 2 0
BITMAP
0080
0380
1F00
7C00
E000
E000
7C00
0F00
0380
0080
0000
FF80
FF80
ENDCHAR
STARTCHAR 2265
ENCODING 8805
SWIDTH 630 0
DWIDTH 14 0
BBX 8 13 3 0
BITMAP
80
E0
78
1F
07
07
1E
F8
E0
00
00
FF
FF
ENDCHAR
STARTCHAR 22A2
ENCODING 8866
SWIDTH 630 0
DWIDTH 14 0
BBX 11 12 2 1
BITMAP
C000
C000
C000
C000
C000
FFE0
FFE0
C000
C000
C000
C000
C000
ENDCHAR
STARTCHAR 22A3
ENCODING 8867
SWIDTH 630 0
DWIDTH 14 0
BBX 11 12 1 1
BITMAP
0060
0060
0060
0060
0060
FFE0
FFE0
0060
0060
0060
0060
0060
ENDCHAR
STARTCHAR 22A4
ENCODING 8868
SWIDTH 630 0
DWIDTH 14 0
BBX 12 11 1 1
BITMAP
FFF0
FFF0
0600
0600
0600
0600
0600
0600
0600
0600
0600
ENDCHAR
STARTCHAR 22A5
ENCODING 8869
SWIDTH 630 0
DWIDTH 14 0
BBX 12 11 1 1
BITMAP
0600
0600
0600
0600
0600
0600
0600
0600
0600
FFF0
FFF0
ENDCHAR
STARTCHAR 22A6
ENCODING 8870
SWIDTH 630 0
DWIDTH 14 0
BBX 6 12 4 1
BITMAP
C0
C0
C0
C0
C0
FC
FC
C0
C0
C0
C0
C0
ENDCHAR
STARTCHAR 22A7
ENCODING 8871
SWIDTH 630 0
DWIDTH 14 0
BBX 6 12 4 1
BITMAP
C0
C0
C0
FC
FC
C0
C0
FC
FC
C0
C0
C0
ENDCHAR
STARTCHAR 22A8
ENCODING 8872
SWIDTH 630 0
DWIDTH 14 0
BBX 11 12 2 1
BITMAP
C000
C000
C000
FFE0
FFE0
C000
C000
FFE0
FFE0
C000
C000
C000
ENDCHAR
STARTCHAR 22A9
ENCODING 8873
SWIDTH 630 0
DWIDTH 14 0
BBX 11 12 2 1
BITMAP
9800
9800
9800
9800
9800
9FE0
9FE0
9800
9800
9800
9800
9800
ENDCHAR
STARTCHAR 22AA
ENCODING 8874
SWIDTH 630 0
DWIDTH 14 0
BBX 14 12 0 1
BITMAP
CCC0
CCC0
CCC0
CCC0
CCC0
CCFC
CCFC
CCC0
CCC0
CCC0
CCC0
CCC0
ENDCHAR
STARTCHAR 22AB
ENCODING 8875
SWIDTH 630 0
DWIDTH 14 0
BBX 14 12 0 1
BITMAP
CC00
CC00
CC00
CFFC
CFFC
CC00
CC00
CFFC
CFFC
CC00
CC00
CC00
ENDCHAR
STARTCHAR 22AC
ENCODING 8876
SWIDTH 630 0
DWIDTH 14 0
BBX 11 18 2 -2
BITMAP
0100
0100
0300
C200
C200
C200
C600
C400
FFE0
FFE0
CC00
C800
C800
D800
D800
1000
1000
3000
ENDCHAR
STARTCHAR 22AD
ENCODING 8877
SWIDTH 630 0
DWIDTH 14 0
BBX 11 18 2 -2
BITMAP
0100
0300
0300
C200
C200
C600
FFE0
FFE0
C400
CC00
FFE0
FFE0
C800
D800
D000
1000
3000
3000
ENDCHAR
STARTCHAR 22AE
ENCODING 8878
SWIDTH 630 0
DWIDTH 14 0
BBX 11 18 2 -2
BITMAP
0060
0040
0040
9840
98C0
9880
9880
9980
9FE0
9FE0
9900
9B00
9B00
9A00
9A00
0600
0400
0400
ENDCHAR
STARTCHAR 22AF
ENCODING 8879
SWIDTH 630 0
DWIDTH 14 0
BBX 14 18 0 -2
BITMAP
0010
0010
0010
CC30
CC20
CC20
CFFC
CFFC
CC40
CC40
CFFC
CFFC
CC80
CC80
CD80
0100
0100
0300
ENDCHAR
STARTCHAR 2300
ENCODING 8960
SWIDTH 630 0
DWIDTH 14 0
BBX 12 12 1 2
BITMAP
0020
1F70
3FE0
71C0
63E0
4760
4E60
7C60
78E0
79C0
FF80
C000
ENDCHAR
STARTCHAR 2302
ENCODING 8962
SWIDTH 630 0
DWIDTH 14 0
BBX 12 12 1 0
BITMAP
0600
0F00
1980
30C0
E060
C030
C030
C030
C030
C030
C030
FFF0
ENDCHAR
STARTCHAR 2303
ENCODING 8963
SWIDTH 630 0
DWIDTH 14 0
BBX 13 7 0 8
BITMAP
0300
0780
0FC0
1CE0
3070
E038
4010
ENDCHAR
STARTCHAR 2304
ENCODING 8964
SWIDTH 630 0
DWIDTH 14 0
BBX 12 7 1 7
BITMAP
C030
E070
70E0
39C0
1F80
0E00
0400
ENDCHAR
STARTCHAR 2305
ENCODING 8965
SWIDTH 630 0
DWIDTH 14 0
BBX 12 10 1 5
BITMAP
FFF0
0000
0000
0600
0F00
1F80
39C0
70E0
C070
8020
ENDCHAR
STARTCHAR 2306
ENCODING 8966
SWIDTH 630 0
DWIDTH 14 0
BBX 13 11 0 4
BITMAP
7FF8
0000
0000
7FF8
7FF8
0780
0FC0
1CE0
7070
E038
4010
ENDCHAR
STARTCHAR 2310
ENCODING 8976
SWIDTH 630 0
DWIDTH 14 0
BBX 9 5 2 3
BITMAP
FF80
FF80
C000
C000
C000
ENDCHAR
STARTCHAR 2318
ENCODING 8984
SWIDTH 630 0
DWIDTH 14 0
BBX 14 14 0 1
BITMAP
7078
D8FC
8CCC
8CCC
FFF8
7FF0
0CC0
0CC0
7FF0
FFF8
8CCC
8CCC
D8FC
7078
ENDCHAR
STARTCHAR 2320
ENCODING 8992
SWIDTH 630 0
DWIDTH 14 0
BBX 6 30 6 -11
BITMAP
7C
C0
C0
C0
C0
C0
C0
C0
C0
C0
C0
C0
C0
C0
C0
C0
C0
C0
C0
C0
C0
C0
C0
C0
C0
C0
C0
C0
C0
C0
ENDCHAR
STARTCHAR 2321
ENCODING 8993
SWIDTH 630 0
DWIDTH 14 0
BBX 6 28 2 -5
BITMAP
0C
0C
0C
0C
0C
0C
0C
0C
0C
0C
0C
0C
0C
0C
0C
0C
0C
0C
0C
0C
0C
0C
0C
0C
0C
1C
F8
F0
ENDCHAR
STARTCHAR 2324
ENCODING 8996
SWIDTH 630 0
DWIDTH 14 0
BBX 16 7 -1 8
BITMAP
FB9F
FBDF
06C0
0660
0C70
1C30
1818
ENDCHAR
STARTCHAR 2325
ENCODING 8997
SWIDTH 630 0
DWIDTH 14 0
BBX 12 16 1 0
BITMAP
F0F0
F8F0
1800
0800
0C00
0C00
0C00
0600
0600
0600
0200
0300
0300
0100
01F0
01F0
ENDCHAR
STARTCHAR 2326
ENCODING 8998
SWIDTH 630 0
DWIDTH 14 0
BBX 18 14 -2 1
BITMAP
FFF000
FFF800
FFFC00
E79E00
E31F00
F03F80
F87FC0
F87FC0
F03F80
E31F00
E79E00
FFFC00
FFF800
FFF000
ENDCHAR
STARTCHAR 2327
ENCODING 8999
SWIDTH 630 0
DWIDTH 14 0
BBX 18 14 -2 1
BITMAP
FFFF80
FFFFC0
FFFFC0
F9E7C0
F8C7C0
FC0FC0
FE1FC0
FE1FC0
FC0FC0
F8C7C0
F9E7C0
FFFFC0
FFFFC0
FFFF80
ENDCHAR
STARTCHAR 2328
ENCODING 9000
SWIDTH 630 0
DWIDTH 14 0
BBX 18 13 -2 1
BITMAP
FFFFC0
CCCC40
CCCC40
CCCC40
FFFE40
E64640
E44640
E64640
FFFFC0
F001C0
F001C0
F003C0
FFFFC0
ENDCHAR
STARTCHAR 232B
ENCODING 9003
SWIDTH 630 0
DWIDTH 14 0
BBX 19 14 -3 1
BITMAP
01FFC0
03FFE0
077FE0
1E3CE0
3F18E0
7F81E0
FFC3E0
FFC3E0
7F81E0
3F18E0
1F3CE0
07FFE0
03FFE0
01FFC0
ENDCHAR
STARTCHAR 2387
ENCODING 9095
SWIDTH 630 0
DWIDTH 14 0
BBX 12 16 1 0
BITMAP
01F0
01F0
0100
0300
0300
0300
0600
0600
0600
0C00
0C00
0C00
0800
1800
F8F0
F8F0
ENDCHAR
STARTCHAR 2388
ENCODING 9096
SWIDTH 630 0
DWIDTH 14 0
BBX 19 22 4 -3
BITMAP
006000
006000
006000
01F000
07FC00
4E6640
F863E0
3863C0
3E6F80
37FCC0
21F0C0
21F0C0
23FCC0
3E6E80
3C6780
7863E0
6C6740
07FE00
03F800
006000
006000
006000
ENDCHAR
STARTCHAR 238B
ENCODING 9099
SWIDTH 630 0
DWIDTH 14 0
BBX 13 13 0 2
BITMAP
FC00
F900
F1C0
F8E0
DC30
8E10
0718
0218
6010
3030
3070
1FE0
0F80
ENDCHAR
STARTCHAR 239B
ENCODING 9115
SWIDTH 630 0
DWIDTH 14 0
BBX 6 26 6 -7
BITMAP
04
0C
18
30
70
60
E0
C0
C0
C0
C0
C0
C0
C0
C0
C0
C0
C0
C0
C0
C0
C0
C0
C0
C0
C0
ENDCHAR
STARTCHAR 239C
ENCODING 9116
SWIDTH 630 0
DWIDTH 14 0
BBX 2 33 6 -7
BITMAP
C0
C0
C0
C0
C0
C0
C0
C0
C0
C0
C0
C0
C0
C0
C0
C0
C0
C0
C0
C0
C0
C0
C0
C0
C0
C0
C0
C0
C0
C0
C0
C0
C0
ENDCHAR
STARTCHAR 239D
ENCODING 9117
SWIDTH 630 0
DWIDTH 14 0
BBX 6 29 6 -3
BITMAP
C0
C0
C0
C0
C0
C0
C0
C0
C0
C0
C0
C0
C0
C0
C0
C0
C0
C0
C0
C0
C0
C0
E0
60
70
30
18
0C
04
ENDCHAR
STARTCHAR 239E
ENCODING 9118
SWIDTH 630 0
DWIDTH 14 0
BBX 7 26 1 -7
BITMAP
C0
E0
70
38
18
0C
0C
0C
06
06
06
06
06
06
06
06
06
06
06
06
06
06
06
06
06
06
ENDCHAR
STARTCHAR 239F
ENCODING 9119
SWIDTH 630 0
DWIDTH 14 0
BBX 2 33 6 -7
BITMAP
C0
C0
C0
C0
C0
C0
C0
C0
C0
C0
C0
C0
C0
C0
C0
C0
C0
C0
C0
C0
C0
C0
C0
C0
C0
C0
C0
C0
C0
C0
C0
C0
C0
ENDCHAR
STARTCHAR 23A0
ENCODING 9120
SWIDTH 630 0
DWIDTH 14 0
BBX 7 29 1 -3
BITMAP
06
06
06
06
06
06
06
06
06
06
06
06
06
06
06
06
06
06
06
06
06
0C
0C
0C
18
38
30
60
C0
ENDCHAR
STARTCHAR 23A1
ENCODING 9121
SWIDTH 630 0
DWIDTH 14 0
BBX 6 26 6 -7
BITMAP
FC
FC
C0
C0
C0
C0
C0
C0
C0
C0
C0
C0
C0
C0
C0
C0
C0
C0
C0
C0
C0
C0
C0
C0
C0
C0
ENDCHAR
STARTCHAR 23A2
ENCODING 9122
SWIDTH 630 0
DWIDTH 14 0
BBX 2 33 6 -7
BITMAP
C0
C0
C0
C0
C0
C0
C0
C0
C0
C0
C0
C0
C0
C0
C0
C0
C0
C0
C0
C0
C0
C0
C0
C0
C0
C0
C0
C0
C0
C0
C0
C0
C0
ENDCHAR
STARTCHAR 23A3
ENCODING 9123
SWIDTH 630 0
DWIDTH 14 0
BBX 6 29 6 -3
BITMAP
C0
C0
C0
C0
C0
C0
C0
C0
C0
C0
C0
C0
C0
C0
C0
C0
C0
C0
C0
C0
C0
C0
C0
C0
C0
C0
C0
FC
FC
ENDCHAR
STARTCHAR 23A4
ENCODING 9124
SWIDTH 630 0
DWIDTH 14 0
BBX 6 26 2 -7
BITMAP
FC
FC
0C
0C
0C
0C
0C
0C
0C
0C
0C
0C
0C
0C
0C
0C
0C
0C
0C
0C
0C
0C
0C
0C
0C
0C
ENDCHAR
STARTCHAR 23A5
ENCODING 9125
SWIDTH 630 0
DWIDTH 14 0
BBX 2 33 6 -7
BITMAP
C0
C0
C0
C0
C0
C0
C0
C0
C0
C0
C0
C0
C0
C0
C0
C0
C0
C0
C0
C0
C0
C0
C0
C0
C0
C0
C0
C0
C0
C0
C0
C0
C0
ENDCHAR
STARTCHAR 23A6
ENCODING 9126
SWIDTH 630 0
DWIDTH 14 0
BBX 6 29 2 -3
BITMAP
0C
0C
0C
0C
0C
0C
0C
0C
0C
0C
0C
0C
0C
0C
0C
0C
0C
0C
0C
0C
0C
0C
0C
0C
0C
0C
0C
FC
FC
ENDCHAR
STARTCHAR 23A7
ENCODING 9127
SWIDTH 630 0
DWIDTH 14 0
BBX 5 26 6 -7
BITMAP
38
F8
C0
C0
C0
C0
C0
C0
C0
C0
C0
C0
C0
C0
C0
C0
C0
C0
C0
C0
C0
C0
C0
C0
C0
C0
ENDCHAR
STARTCHAR 23A8
ENCODING 9128
SWIDTH 630 0
DWIDTH 14 0
BBX 6 33 2 -7
BITMAP
0C
0C
0C
0C
0C
0C
0C
0C
0C
0C
0C
0C
0C
0C
0C
0C
1C
F8
F8
1C
0C
0C
0C
0C
0C
0C
0C
0C
0C
0C
0C
0C
0C
ENDCHAR
STARTCHAR 23A9
ENCODING 9129
SWIDTH 630 0
DWIDTH 14 0
BBX 5 29 6 -3
BITMAP
C0
C0
C0
C0
C0
C0
C0
C0
C0
C0
C0
C0
C0
C0
C0
C0
C0
C0
C0
C0
C0
C0
C0
C0
C0
C0
C0
F8
78
ENDCHAR
STARTCHAR 23AA
ENCODING 9130
SWIDTH 630 0
DWIDTH 14 0
BBX 2 33 6 -7
BITMAP
C0
C0
C0
C0
C0
C0
C0
C0
C0
C0
C0
C0
C0
C0
C0
C0
C0
C0
C0
C0
C0
C0
C0
C0
C0
C0
C0
C0
C0
C0
C0
C0
C0
ENDCHAR
STARTCHAR 23AB
ENCODING 9131
SWIDTH 630 0
DWIDTH 14 0
BBX 5 26 3 -7
BITMAP
E0
F0
18
18
18
18
18
18
18
18
18
18
18
18
18
18
18
18
18
18
18
18
18
18
18
18
ENDCHAR
STARTCHAR 23AC
ENCODING 9132
SWIDTH 630 0
DWIDTH 14 0
BBX 5 33 6 -7
BITMAP
C0
C0
C0
C0
C0
C0
C0
C0
C0
C0
C0
C0
C0
C0
C0
C0
C0
78
78
C0
C0
C0
C0
C0
C0
C0
C0
C0
C0
C0
C0
C0
C0
ENDCHAR
STARTCHAR 23AD
ENCODING 9133
SWIDTH 630 0
DWIDTH 14 0
BBX 5 29 3 -3
BITMAP
18
18
18
18
18
18
18
18
18
18
18
18
18
18
18
18
18
18
18
18
18
18
18
18
18
18
18
F0
E0
ENDCHAR
STARTCHAR 23CE
ENCODING 9166
SWIDTH 630 0
DWIDTH 14 0
BBX 14 16 0 0
BITMAP
007C
0084
0084
0084
0484
0C84
1484
2784
4004
8004
8004
4004
27FC
1400
0C00
0400
ENDCHAR
STARTCHAR 23CF
ENCODING 9167
SWIDTH 630 0
DWIDTH 14 0
BBX 12 14 1 0
BITMAP
0400
0E00
0F00
1980
30C0
6040
FFE0
FFF0
0000
0000
FFF0
8010
8010
FFF0
ENDCHAR
STARTCHAR 23FB
ENCODING 9211
SWIDTH 630 0
DWIDTH 14 0
BBX 14 16 0 -1
BITMAP
0200
0300
0300
0300
2330
7338
6338
E318
C31C
C31C
E01C
E018
7038
3CF0
1FE0
0F80
ENDCHAR
STARTCHAR 23FC
ENCODING 9212
SWIDTH 630 0
DWIDTH 14 0
BBX 14 14 0 0
BITMAP
0F80
1FE0
3CF0
7078
6338
E318
C31C
C31C
C31C
E318
7238
7CF0
1FE0
0F80
ENDCHAR
STARTCHAR 23FD
ENCODING 9213
SWIDTH 630 0
DWIDTH 14 0
BBX 4 22 5 -4
BITMAP
60
F0
F0
F0
F0
F0
F0
F0
F0
F0
F0
F0
F0
F0
F0
F0
F0
F0
F0
F0
F0
E0
ENDCHAR
STARTCHAR 23FE
ENCODING 9214
SWIDTH 630 0
DWIDTH 14 0
BBX 13 19 0 -4
BITMAP
0400
1800
3800
3800
7000
7000
F000
F000
F800
F800
F800
FC00
7C00
7E00
3F00
1F80
0FE0
07F8
0060
ENDCHAR
STARTCHAR 2400
ENCODING 9216
SWIDTH 630 0
DWIDTH 14 0
BBX 12 5 1 5
BITMAP
A940
A940
E940
E940
2670
ENDCHAR
STARTCHAR 2401
ENCODING 9217
SWIDTH 630 0
DWIDTH 14 0
BBX 13 5 0 5
BITMAP
F748
44C8
34F8
14C8
6308
ENDCHAR
STARTCHAR 2402
ENCODING 9218
SWIDTH 630 0
DWIDTH 14 0
BBX 13 5 0 5
BITMAP
F728
4210
3210
1228
6248
ENDCHAR
STARTCHAR 2403
ENCODING 9219
SWIDTH 630 0
DWIDTH 14 0
BBX 12 5 1 5
BITMAP
CE50
8420
C420
8450
E490
ENDCHAR
STARTCHAR 2404
ENCODING 9220
SWIDTH 630 0
DWIDTH 14 0
BBX 12 5 1 5
BITMAP
CE70
8920
C920
8920
E620
ENDCHAR
STARTCHAR 2405
ENCODING 9221
SWIDTH 630 0
DWIDTH 14 0
BBX 12 6 1 4
BITMAP
CA70
8E90
CE90
8A90
EA60
0010
ENDCHAR
STARTCHAR 2406
ENCODING 9222
SWIDTH 630 0
DWIDTH 14 0
BBX 13 5 0 5
BITMAP
6728
6430
5430
F428
83A8
ENDCHAR
STARTCHAR 2407
ENCODING 9223
SWIDTH 630 0
DWIDTH 14 0
BBX 12 5 1 5
BITMAP
EE40
A840
EE40
A840
CF70
ENDCHAR
STARTCHAR 2408
ENCODING 9224
SWIDTH 630 0
DWIDTH 14 0
BBX 8 5 3 5
BITMAP
EE
A4
E3
A1
E6
ENDCHAR
STARTCHAR 2409
ENCODING 9225
SWIDTH 630 0
DWIDTH 14 0
BBX 8 5 3 5
BITMAP
A7
A4
E4
A4
A0
ENDCHAR
STARTCHAR 240A
ENCODING 9226
SWIDTH 630 0
DWIDTH 14 0
BBX 8 5 3 5
BITMAP
86
84
87
84
E4
ENDCHAR
STARTCHAR 240B
ENCODING 9227
SWIDTH 630 0
DWIDTH 14 0
BBX 8 5 3 5
BITMAP
A7
A4
A4
C4
40
ENDCHAR
STARTCHAR 240C
ENCODING 9228
SWIDTH 630 0
DWIDTH 14 0
BBX 8 5 3 5
BITMAP
E6
84
E7
84
84
ENDCHAR
STARTCHAR 240D
ENCODING 9229
SWIDTH 630 0
DWIDTH 14 0
BBX 8 5 3 5
BITMAP
EF
89
86
8A
61
ENDCHAR
STARTCHAR 240E
ENCODING 9230
SWIDTH 630 0
DWIDTH 14 0
BBX 8 5 3 5
BITMAP
EF
89
69
29
E6
ENDCHAR
STARTCHAR 240F
ENCODING 9231
SWIDTH 630 0
DWIDTH 14 0
BBX 8 5 3 5
BITMAP
E6
84
64
24
E7
ENDCHAR
STARTCHAR 2410
ENCODING 9232
SWIDTH 630 0
DWIDTH 14 0
BBX 12 5 1 5
BITMAP
E870
A840
A860
A840
C770
ENDCHAR
STARTCHAR 2411
ENCODING 9233
SWIDTH 630 0
DWIDTH 14 0
BBX 12 5 1 5
BITMAP
EE60
A820
A820
A820
C770
ENDCHAR
STARTCHAR 2412
ENCODING 9234
SWIDTH 630 0
DWIDTH 14 0
BBX 12 5 1 5
BITMAP
EE70
A810
A820
A840
C770
ENDCHAR
STARTCHAR 2413
ENCODING 9235
SWIDTH 630 0
DWIDTH 14 0
BBX 12 5 1 5
BITMAP
EE70
A810
A830
A810
C760
ENDCHAR
STARTCHAR 2414
ENCODING 9236
SWIDTH 630 0
DWIDTH 14 0
BBX 12 5 1 5
BITMAP
EE40
A840
A860
A870
C700
ENDCHAR
STARTCHAR 2415
ENCODING 9237
SWIDTH 630 0
DWIDTH 14 0
BBX 12 5 1 5
BITMAP
A650
AA60
EA60
EF50
2950
ENDCHAR
STARTCHAR 2416
ENCODING 9238
SWIDTH 630 0
DWIDTH 14 0
BBX 13 5 0 5
BITMAP
F528
4568
3258
1248
6208
ENDCHAR
STARTCHAR 2417
ENCODING 9239
SWIDTH 630 0
DWIDTH 14 0
BBX 12 5 1 5
BITMAP
CE70
8450
C470
8450
E470
ENDCHAR
STARTCHAR 2418
ENCODING 9240
SWIDTH 630 0
DWIDTH 14 0
BBX 13 5 0 5
BITMAP
7328
8568
8558
87C8
7488
ENDCHAR
STARTCHAR 2419
ENCODING 9241
SWIDTH 630 0
DWIDTH 14 0
BBX 8 5 3 5
BITMAP
ED
8F
CF
8B
E9
ENDCHAR
STARTCHAR 241A
ENCODING 9242
SWIDTH 630 0
DWIDTH 14 0
BBX 13 5 0 5
BITMAP
F4B8
44A8
34B8
14A8
6338
ENDCHAR
STARTCHAR 241B
ENCODING 9243
SWIDTH 630 0
DWIDTH 14 0
BBX 12 5 1 5
BITMAP
CE70
8880
C680
8140
EE30
ENDCHAR
STARTCHAR 241C
ENCODING 9244
SWIDTH 630 0
DWIDTH 14 0
BBX 8 5 3 5
BITMAP
EE
84
E3
81
86
ENDCHAR
STARTCHAR 241D
ENCODING 9245
SWIDTH 630 0
DWIDTH 14 0
BBX 8 5 3 5
BITMAP
EE
84
A3
A1
E6
ENDCHAR
STARTCHAR 241E
ENCODING 9246
SWIDTH 630 0
DWIDTH 14 0
BBX 8 5 3 5
BITMAP
EE
A4
C3
A1
86
ENDCHAR
STARTCHAR 241F
ENCODING 9247
SWIDTH 630 0
DWIDTH 14 0
BBX 8 5 3 5
BITMAP
AE
A4
A3
A1
E6
ENDCHAR
STARTCHAR 2420
ENCODING 9248
SWIDTH 630 0
DWIDTH 14 0
BBX 8 5 3 5
BITMAP
EF
89
66
28
E0
ENDCHAR
STARTCHAR 2421
ENCODING 9249
SWIDTH 630 0
DWIDTH 14 0
BBX 12 5 1 5
BITMAP
EE40
A840
AE40
A840
CF70
ENDCHAR
STARTCHAR 2422
ENCODING 9250
SWIDTH 630 0
DWIDTH 14 0
BBX 13 17 -1 0
BITMAP
1800
1900
1F00
1C00
F800
5BE0
1F70
1C38
1818
1818
1818
1818
1818
1818
1C38
1E70
1BE0
ENDCHAR
STARTCHAR 2423
ENCODING 9251
SWIDTH 630 0
DWIDTH 14 0
BBX 12 3 1 -4
BITMAP
C030
FFF0
FFF0
ENDCHAR
STARTCHAR 2424
ENCODING 9252
SWIDTH 630 0
DWIDTH 14 0
BBX 8 5 3 5
BITMAP
A4
E4
E4
E4
A7
ENDCHAR
STARTCHAR 2425
ENCODING 9253
SWIDTH 630 0
DWIDTH 14 0
BBX 14 16 0 0
BITMAP
0098
0190
0334
0264
06CC
0CD8
1998
1B30
3360
6640
6CC0
C980
9900
3300
2600
6400
ENDCHAR
STARTCHAR 2426
ENCODING 9254
SWIDTH 630 0
DWIDTH 14 0
BBX 9 16 2 0
BITMAP
3E00
7F80
E180
E000
E000
6000
3800
1C00
0C00
0E00
0E00
0000
0000
0C00
0E00
0E00
ENDCHAR
STARTCHAR 2500
ENCODING 9472
SWIDTH 630 0
DWIDTH 14 0
BBX 14 2 0 7
BITMAP
FFFC
FFFC
ENDCHAR
STARTCHAR 2501
ENCODING 9473
SWIDTH 630 0
DWIDTH 14 0
BBX 14 6 0 5
BITMAP
FFFC
FFFC
FFFC
FFFC
FFFC
FFFC
ENDCHAR
STARTCHAR 2502
ENCODING 9474
SWIDTH 630 0
DWIDTH 14 0
BBX 2 34 6 -11
BITMAP
C0
C0
C0
C0
C0
C0
C0
C0
C0
C0
C0
C0
C0
C0
C0
C0
C0
C0
C0
C0
C0
C0
C0
C0
C0
C0
C0
C0
C0
C0
C0
C0
C0
C0
ENDCHAR
STARTCHAR 2503
ENCODING 9475
SWIDTH 630 0
DWIDTH 14 0
BBX 6 34 4 -11
BITMAP
FC
FC
FC
FC
FC
FC
FC
FC
FC
FC
FC
FC
FC
FC
FC
FC
FC
FC
FC
FC
FC
FC
FC
FC
FC
FC
FC
FC
FC
FC
FC
FC
FC
FC
ENDCHAR
STARTCHAR 2504
ENCODING 9476
SWIDTH 630 0
DWIDTH 14 0
BBX 12 2 1 7
BITMAP
EE70
EE70
ENDCHAR
STARTCHAR 2505
ENCODING 9477
SWIDTH 630 0
DWIDTH 14 0
BBX 12 6 1 5
BITMAP
EE70
EE70
EE70
EE70
EE70
EE70
ENDCHAR
STARTCHAR 2506
ENCODING 9478
SWIDTH 630 0
DWIDTH 14 0
BBX 2 31 6 -6
BITMAP
C0
C0
C0
C0
C0
C0
C0
C0
C0
00
00
C0
C0
C0
C0
C0
C0
C0
C0
C0
00
00
C0
C0
C0
C0
C0
C0
C0
C0
C0
ENDCHAR
STARTCHAR 2507
ENCODING 9479
SWIDTH 630 0
DWIDTH 14 0
BBX 6 31 4 -6
BITMAP
FC
FC
FC
FC
FC
FC
FC
FC
FC
00
00
FC
FC
FC
FC
FC
FC
FC
FC
FC
00
00
FC
FC
FC
FC
FC
FC
FC
FC
FC
ENDCHAR
STARTCHAR 2508
ENCODING 9480
SWIDTH 630 0
DWIDTH 14 0
BBX 12 2 1 7
BITMAP
D930
D930
ENDCHAR
STARTCHAR 2509
ENCODING 9481
SWIDTH 630 0
DWIDTH 14 0
BBX 12 6 1 5
BITMAP
D930
D930
D930
D930
D930
D930
ENDCHAR
STARTCHAR 250A
ENCODING 9482
SWIDTH 630 0
DWIDTH 14 0
BBX 2 30 6 -6
BITMAP
C0
C0
C0
C0
C0
C0
00
00
C0
C0
C0
C0
C0
C0
00
00
C0
C0
C0
C0
C0
C0
00
00
C0
C0
C0
C0
C0
C0
ENDCHAR
STARTCHAR 250B
ENCODING 9483
SWIDTH 630 0
DWIDTH 14 0
BBX 6 30 4 -6
BITMAP
FC
FC
FC
FC
FC
FC
00
00
FC
FC
FC
FC
FC
FC
00
00
FC
FC
FC
FC
FC
FC
00
00
FC
FC
FC
FC
FC
FC
ENDCHAR
STARTCHAR 250C
ENCODING 9484
SWIDTH 630 0
DWIDTH 14 0
BBX 8 20 6 -11
BITMAP
FF
FF
C0
C0
C0
C0
C0
C0
C0
C0
C0
C0
C0
C0
C0
C0
C0
C0
C0
C0
ENDCHAR
STARTCHAR 250D
ENCODING 9485
SWIDTH 630 0
DWIDTH 14 0
BBX 8 22 6 -11
BITMAP
FF
FF
FF
FF
FF
FF
C0
C0
C0
C0
C0
C0
C0
C0
C0
C0
C0
C0
C0
C0
C0
C0
ENDCHAR
STARTCHAR 250E
ENCODING 9486
SWIDTH 630 0
DWIDTH 14 0
BBX 10 20 4 -11
BITMAP
FFC0
FFC0
FC00
FC00
FC00
FC00
FC00
FC00
FC00
FC00
FC00
FC00
FC00
FC00
FC00
FC00
FC00
FC00
FC00
FC00
ENDCHAR
ENDFONT
